<svg width="400" height="400" viewBox="0 0 400 400" fill="none" xmlns="http://www.w3.org/2000/svg">
<path d="M350 200.031V200C350 179.771 346.035 160.13 338.197 141.605C330.638 123.73 319.827 107.714 306.072 93.9281C292.317 80.1735 276.27 69.3618 258.395 61.803C239.901 53.9653 220.229 50 200 50C179.771 50 160.099 53.9653 141.605 61.803C123.73 69.3618 107.714 80.1735 93.9281 93.9281C80.1735 107.683 69.3618 123.73 61.803 141.605C53.9653 160.099 50 179.771 50 200C50 220.229 53.9653 239.87 61.803 258.395C69.3618 276.27 80.1735 292.286 93.9281 306.072C107.683 319.827 123.73 330.638 141.605 338.197C160.099 346.035 179.771 350 200 350H350V200.031ZM97.3978 200C97.3978 143.401 143.432 97.3668 200.031 97.3668C256.629 97.3668 302.664 143.401 302.664 200V200.031C302.664 256.599 256.629 302.633 200.031 302.633C143.432 302.633 97.3978 256.599 97.3978 200Z" fill="#2397FF"/>
<path d="M199.993 255.572C230.516 255.572 255.259 230.828 255.259 200.305C255.259 169.783 230.516 145.039 199.993 145.039C169.47 145.039 144.727 169.783 144.727 200.305C144.727 230.828 169.47 255.572 199.993 255.572Z" fill="#FD2D40"/>
</svg>
