<svg width="80" height="80" viewBox="0 0 80 80" fill="none" xmlns="http://www.w3.org/2000/svg">
<path d="M5 15.835V30.855C4.99844 34.0885 5.74896 37.278 7.19224 40.1715C8.63552 43.065 10.732 45.5832 13.316 47.527C15.9 49.4709 18.9007 50.787 22.0809 51.3716C25.2611 51.9561 28.5337 51.7929 31.64 50.895C32.46 52.945 33.575 54.84 34.93 56.535L26.005 65.47C25.5362 65.9394 25.2731 66.5759 25.2736 67.2393C25.2741 67.9027 25.5381 68.5387 26.0075 69.0075C26.4769 69.4763 27.1134 69.7394 27.7768 69.7389C28.4402 69.7384 29.0762 69.4744 29.545 69.005L38.465 60.075C41.7733 62.7203 45.7614 64.3775 49.9702 64.8559C54.179 65.3342 58.4373 64.6143 62.2548 62.7789C66.0724 60.9435 69.2941 58.0673 71.5489 54.4815C73.8037 50.8956 75 46.7459 75 42.51V26.16C75 22.77 72.25 20.025 68.865 20.025H52.515C49.685 20.025 46.985 20.545 44.495 21.495C42.7594 18.038 40.0963 15.132 36.8036 13.1019C33.5108 11.0719 29.7182 9.99787 25.85 10H10.835C7.615 10 5 12.615 5 15.835ZM42.025 56.51L54.285 44.245C54.7538 43.7756 55.0169 43.1391 55.0164 42.4757C55.0159 41.8123 54.7519 41.1763 54.2825 40.7075C54.0501 40.4754 53.7742 40.2913 53.4706 40.1658C53.167 40.0403 52.8417 39.9759 52.5132 39.9761C51.8498 39.9766 51.2138 40.2406 50.745 40.71L38.5 52.97C36.5597 50.3699 35.3809 47.2813 35.0953 44.0496C34.8097 40.8179 35.4287 37.5705 36.8829 34.6703C38.3371 31.7702 40.5693 29.3317 43.3299 27.6275C46.0905 25.9233 49.2707 25.0205 52.515 25.02H68.87C69.495 25.02 70.005 25.53 70.005 26.155V42.51C70.0052 45.7573 69.1015 48.9405 67.3949 51.7031C65.6883 54.4658 63.2463 56.6987 60.3424 58.152C57.4384 59.6052 54.1873 60.2214 50.953 59.9314C47.7187 59.6414 44.6291 58.4567 42.03 56.51H42.025ZM25.855 15C28.8046 14.9992 31.696 15.8215 34.2037 17.3744C36.7115 18.9273 38.7362 21.1491 40.05 23.79C36.4929 26.1613 33.6822 29.4939 31.945 33.4L24.265 25.73C24.0326 25.4979 23.7567 25.3138 23.4531 25.1883C23.1495 25.0629 22.8242 24.9984 22.4957 24.9986C22.1672 24.9988 21.842 25.0638 21.5386 25.1897C21.2352 25.3156 20.9596 25.5001 20.7275 25.7325C20.4954 25.9649 20.3113 26.2408 20.1858 26.5444C20.0604 26.848 19.9959 27.1733 19.9961 27.5018C19.9963 27.8303 20.0613 28.1555 20.1872 28.4589C20.3131 28.7623 20.4976 29.0379 20.73 29.27L30.32 38.85C29.929 41.2404 29.9239 43.678 30.305 46.07C27.9414 46.7622 25.449 46.8942 23.0255 46.4553C20.6021 46.0164 18.3142 45.0188 16.3435 43.5416C14.3728 42.0644 12.7734 40.1483 11.6723 37.9453C10.5712 35.7422 9.99861 33.3129 10 30.85L9.995 15.83C9.99892 15.6094 10.089 15.399 10.246 15.2439C10.4029 15.0888 10.6143 15.0013 10.835 15H25.855Z" fill="url(#paint0_linear_4681_125482)"/>
<defs>
<linearGradient id="paint0_linear_4681_125482" x1="40" y1="10" x2="40" y2="69.7389" gradientUnits="userSpaceOnUse">
<stop stop-color="#12E1C9"/>
<stop offset="1" stop-color="#1EB0EC"/>
</linearGradient>
</defs>
</svg>
