<svg width="80" height="80" viewBox="0 0 80 80" fill="none" xmlns="http://www.w3.org/2000/svg">
<path d="M61 47.5V66C61 68.7614 58.7614 71 56 71H12C9.23858 71 7 68.7614 7 66V21C7 18.2386 9.23858 16 12 16H36.7458" stroke="url(#paint0_linear_4760_113888)" stroke-width="4.5" stroke-linecap="round"/>
<path d="M48.5875 31.0969L45.9176 33.6801C45.6105 33.9871 45.438 34.4036 45.438 34.8379C45.438 35.2721 45.6105 35.6886 45.9176 35.9957C46.2246 36.3028 46.6411 36.4753 47.0754 36.4753C47.5097 36.4753 47.9261 36.3028 48.2332 35.9957L50.9031 33.4125C53.3034 35.3648 56.2183 36.5793 59.2947 36.9089C62.3711 37.2386 65.4771 36.6692 68.2366 35.2697C70.996 33.8703 73.2905 31.7008 74.8422 29.024C76.3939 26.3472 77.1363 23.278 76.9794 20.188L76.4306 9.45039C76.3793 8.4377 75.9539 7.4801 75.2369 6.7631C74.5199 6.0461 73.5623 5.62073 72.5496 5.5694L61.812 5.02059C58.722 4.86369 55.6528 5.60605 52.976 7.15777C50.2992 8.70949 48.1297 11.004 46.7303 13.7634C45.3308 16.5229 44.7614 19.6289 45.0911 22.7053C45.4207 25.7817 46.6352 28.6966 48.5875 31.0969ZM73.7074 20.3524C73.8306 22.781 73.2553 25.1941 72.0497 27.3059C70.8441 29.4178 69.0587 31.14 66.9048 32.2687C64.7509 33.3975 62.3187 33.8854 59.896 33.6749C57.4734 33.4643 55.1619 32.5641 53.235 31.0807L63.6877 20.6279C63.9948 20.3209 64.1673 19.9044 64.1673 19.4701C64.1673 19.0358 63.9948 18.6194 63.6877 18.3123C63.3806 18.0052 62.9642 17.8327 62.5299 17.8327C62.0956 17.8327 61.6791 18.0052 61.3721 18.3123L50.9193 28.765C49.4354 26.8383 48.5346 24.5267 48.3236 22.104C48.1125 19.6812 48.6002 17.2487 49.7287 15.0944C50.8572 12.9402 52.5794 11.1544 54.6913 9.94855C56.8033 8.74268 59.2165 8.1672 61.6453 8.29026L72.3829 8.83906C72.5861 8.84892 72.7783 8.93406 72.9221 9.07789C73.0659 9.22172 73.1511 9.41395 73.1609 9.61712L73.7097 20.3547L73.7074 20.3524Z" fill="url(#paint1_linear_4760_113888)"/>
<path d="M33.0004 27V59.5M20 37.5006V59.5006M46.5004 47V60" stroke="url(#paint2_linear_4760_113888)" stroke-width="4.5" stroke-linecap="round" stroke-linejoin="round"/>
<defs>
<linearGradient id="paint0_linear_4760_113888" x1="34" y1="16" x2="34" y2="71" gradientUnits="userSpaceOnUse">
<stop stop-color="#C1E5FA"/>
<stop offset="1" stop-color="#1BBAE2"/>
</linearGradient>
<linearGradient id="paint1_linear_4760_113888" x1="61" y1="5" x2="61" y2="37" gradientUnits="userSpaceOnUse">
<stop stop-color="#C1E5FA"/>
<stop offset="1" stop-color="#1BBAE2"/>
</linearGradient>
<linearGradient id="paint2_linear_4760_113888" x1="33.2502" y1="27" x2="33.2502" y2="60" gradientUnits="userSpaceOnUse">
<stop stop-color="#C1E5FA"/>
<stop offset="1" stop-color="#1BBAE2"/>
</linearGradient>
</defs>
</svg>
