<svg width="80" height="80" viewBox="0 0 80 80" fill="none" xmlns="http://www.w3.org/2000/svg">
<path d="M69.715 60.5714H65.1451V56H67.4301V46.8571H58.2902V49.1429H53.7203V44.5714C53.7203 43.9652 53.961 43.3838 54.3895 42.9552C54.818 42.5265 55.3992 42.2857 56.0052 42.2857H69.715C70.321 42.2857 70.9022 42.5265 71.3308 42.9552C71.7593 43.3838 72 43.9652 72 44.5714V58.2857C72 58.8919 71.7593 59.4733 71.3308 59.902C70.9022 60.3306 70.321 60.5714 69.715 60.5714Z" fill="url(#paint0_linear_4760_113875)"/>
<path d="M58.2902 72H44.5804C43.9744 72 43.3932 71.7592 42.9647 71.3305C42.5362 70.9019 42.2954 70.3205 42.2954 69.7143V56C42.2954 55.3938 42.5362 54.8124 42.9647 54.3838C43.3932 53.9551 43.9744 53.7143 44.5804 53.7143H58.2902C58.8962 53.7143 59.4774 53.9551 59.9059 54.3838C60.3344 54.8124 60.5752 55.3938 60.5752 56V69.7143C60.5752 70.3205 60.3344 70.9019 59.9059 71.3305C59.4774 71.7592 58.8962 72 58.2902 72ZM46.8654 67.4286H56.0052V58.2857H46.8654V67.4286ZM37.7255 48.8183C36.0745 48.3879 34.5772 47.503 33.4036 46.2641C32.2301 45.0252 31.4273 43.482 31.0865 41.8097C30.7457 40.1373 30.8804 38.4029 31.4755 36.8034C32.0705 35.2038 33.102 33.8032 34.4528 32.7605C35.8036 31.7179 37.4196 31.0751 39.1173 30.905C40.8149 30.7349 42.5263 31.0444 44.0569 31.7984C45.5876 32.5523 46.8763 33.7205 47.7766 35.1703C48.6769 36.62 49.1529 38.2933 49.1503 40H53.7203C53.7229 37.3847 52.9779 34.8232 51.5732 32.6174C50.1685 30.4117 48.1625 28.6538 45.7919 27.5509C43.4213 26.448 40.7849 26.0462 38.1935 26.3928C35.6021 26.7394 33.1638 27.82 31.1661 29.5072C29.1685 31.1943 27.6947 33.4177 26.9186 35.9151C26.1425 38.4125 26.0965 41.0799 26.7859 43.6026C27.4754 46.1253 28.8715 48.3983 30.8098 50.1534C32.7481 51.9085 35.1476 53.0727 37.7255 53.5086V48.8183Z" fill="url(#paint1_linear_4760_113875)"/>
<path d="M69.4637 34.4L64.1854 39.04L60.9408 35.7943L66.4475 30.9486L61.055 21.6229L53.1947 24.2743C51.3535 22.7412 49.268 21.5281 47.0253 20.6857L45.403 12.5714H34.6179L32.9956 20.6857C30.7349 21.5046 28.638 22.7198 26.8034 24.2743L18.9659 21.6229L13.5734 30.9486L19.7885 36.4114C19.3658 38.7774 19.3658 41.1997 19.7885 43.5657L13.5734 49.0514L18.9659 58.3771L26.8262 55.7257C28.6674 57.2588 30.7529 58.4719 32.9956 59.3143L34.6179 67.4286H37.7255V72H34.6179C33.5612 71.9991 32.5375 71.632 31.7209 70.961C30.9043 70.2901 30.3455 69.3568 30.1394 68.32L28.9741 62.56C27.9396 62.0553 26.9396 61.4826 25.9808 60.8457L20.4283 62.72C19.9561 62.8737 19.4624 62.9509 18.9659 62.9486C18.1633 62.9541 17.3737 62.7451 16.6788 62.3433C15.9838 61.9415 15.4087 61.3614 15.0129 60.6629L9.6204 51.3371C9.08706 50.4206 8.88887 49.3471 9.05978 48.3004C9.23069 47.2538 9.76007 46.2991 10.5572 45.6L14.9444 41.76C14.8987 41.1657 14.8758 40.5943 14.8758 40C14.8758 39.4057 14.9215 38.8343 14.9672 38.2629L10.5572 34.4C9.76007 33.7009 9.23069 32.7462 9.05978 31.6996C8.88887 30.6529 9.08706 29.5794 9.6204 28.6629L15.0129 19.3371C15.4087 18.6386 15.9838 18.0585 16.6788 17.6567C17.3737 17.2548 18.1633 17.0459 18.9659 17.0514C19.4624 17.0491 19.9561 17.1263 20.4283 17.28L25.9579 19.1543C26.9246 18.5173 27.9322 17.9446 28.9741 17.44L30.1394 11.68C30.3455 10.6432 30.9043 9.70993 31.7209 9.03896C32.5375 8.368 33.5612 8.00085 34.6179 8H45.403C46.4597 8.00085 47.4835 8.368 48.3 9.03896C49.1166 9.70993 49.6755 10.6432 49.8815 11.68L51.0469 17.44C52.0814 17.9447 53.0813 18.5174 54.0402 19.1543L59.5926 17.28C60.0648 17.1263 60.5585 17.0491 61.055 17.0514C61.8577 17.0459 62.6472 17.2548 63.3422 17.6567C64.0371 18.0585 64.6122 18.6386 65.008 19.3371L70.4005 28.6629C70.9339 29.5794 71.1321 30.6529 70.9611 31.6996C70.7902 32.7462 70.2609 33.7009 69.4637 34.4Z" fill="url(#paint2_linear_4760_113875)"/>
<defs>
<linearGradient id="paint0_linear_4760_113875" x1="40.0105" y1="8" x2="40.0105" y2="72" gradientUnits="userSpaceOnUse">
<stop stop-color="#AE9AFF"/>
<stop offset="1" stop-color="#5A31FF"/>
</linearGradient>
<linearGradient id="paint1_linear_4760_113875" x1="40.0105" y1="8" x2="40.0105" y2="72" gradientUnits="userSpaceOnUse">
<stop stop-color="#AE9AFF"/>
<stop offset="1" stop-color="#5A31FF"/>
</linearGradient>
<linearGradient id="paint2_linear_4760_113875" x1="40.0105" y1="8" x2="40.0105" y2="72" gradientUnits="userSpaceOnUse">
<stop stop-color="#AE9AFF"/>
<stop offset="1" stop-color="#5A31FF"/>
</linearGradient>
</defs>
</svg>
