<svg width="81" height="80" viewBox="0 0 81 80" fill="none" xmlns="http://www.w3.org/2000/svg">
<path d="M62.4874 18.8731L62.4874 18.8729C62.1872 17.6264 61.4762 16.5173 60.4689 15.724C59.4616 14.9308 58.2167 14.4997 56.9346 14.5C56.9346 14.5 56.9345 14.5 56.9345 14.5H24.078C21.44 14.5 19.1462 16.3085 18.5253 18.8723L18.5252 18.8731L16.3706 27.8333H13.0013C12.7464 27.8333 12.4942 27.8431 12.2447 27.8623L14.6341 17.937C15.1444 15.8176 16.3531 13.9315 18.0655 12.5825C19.778 11.2335 21.8946 10.4999 24.0746 10.5H56.9346C61.4201 10.5 65.3227 13.5749 66.3753 17.9373L73.0152 45.5137C73.4165 47.1802 73.4344 48.9161 73.0678 50.5905C72.7012 52.265 71.9596 53.8345 70.8987 55.1809C69.8378 56.5273 68.4853 57.6155 66.943 58.3637C65.4008 59.1118 63.7089 59.5003 61.9947 59.5H61.9946H36.0013V55.5H61.9913C63.1004 55.5 64.195 55.2484 65.1928 54.7642C66.1906 54.28 67.0656 53.5758 67.7519 52.7046C68.4382 51.8334 68.918 50.8178 69.1551 49.7344C69.3921 48.651 69.3804 47.5279 69.1208 46.4497C69.1208 46.4497 69.1208 46.4496 69.1207 46.4496L62.4874 18.8731ZM26.3346 32.1667H26.3349C27.0356 32.1663 27.7294 32.3039 28.3768 32.5718C29.0243 32.8396 29.6126 33.2324 30.1081 33.7277C30.6037 34.223 30.9968 34.811 31.265 35.4583C31.5333 36.1056 31.6713 36.7994 31.6713 37.5V67.5C31.6713 68.9145 31.1094 70.271 30.1092 71.2712C29.109 72.2714 27.7525 72.8333 26.338 72.8333H13.0046H13.0043C12.3037 72.8337 11.6099 72.6961 10.9624 72.4282C10.315 72.1604 9.72671 71.7676 9.23114 71.2723C8.73557 70.777 8.34245 70.1889 8.07424 69.5417C7.80602 68.8944 7.66797 68.2006 7.66797 67.5V37.5C7.66797 34.5561 10.0574 32.1667 13.0013 32.1667H26.3346ZM58.008 67.8333H36.0011C36.0055 67.7231 36.008 67.6118 36.008 67.5V63.8333H58.008C58.5384 63.8333 59.0471 64.044 59.4222 64.4191C59.7973 64.7942 60.008 65.3029 60.008 65.8333C60.008 66.3638 59.7973 66.8725 59.4222 67.2475C59.0471 67.6226 58.5384 67.8333 58.008 67.8333ZM22.2607 62.7594C21.5731 63.447 20.6404 63.8333 19.668 63.8333C18.6955 63.8333 17.7629 63.447 17.0752 62.7594C16.3876 62.0718 16.0013 61.1391 16.0013 60.1667C16.0013 59.1942 16.3876 58.2616 17.0752 57.5739C17.7629 56.8863 18.6955 56.5 19.668 56.5C20.6404 56.5 21.5731 56.8863 22.2607 57.5739C22.9483 58.2616 23.3346 59.1942 23.3346 60.1667C23.3346 61.1391 22.9483 62.0718 22.2607 62.7594ZM13.0013 36.1667C12.6477 36.1667 12.3085 36.3071 12.0585 36.5572C11.8084 36.8072 11.668 37.1464 11.668 37.5V67.5C11.668 68.2361 12.2652 68.8333 13.0013 68.8333H26.3346C26.6883 68.8333 27.0274 68.6928 27.2774 68.4428C27.5275 68.1928 27.668 67.8536 27.668 67.5V37.5C27.668 37.1464 27.5275 36.8072 27.2774 36.5572C27.0274 36.3071 26.6883 36.1667 26.3346 36.1667H13.0013Z" fill="url(#paint0_linear_4681_125477)" stroke="url(#paint1_linear_4681_125477)"/>
<defs>
<linearGradient id="paint0_linear_4681_125477" x1="40.499" y1="10" x2="40.499" y2="73.3333" gradientUnits="userSpaceOnUse">
<stop stop-color="#FFD200"/>
<stop offset="1" stop-color="#FF93A3"/>
</linearGradient>
<linearGradient id="paint1_linear_4681_125477" x1="40.499" y1="10" x2="40.499" y2="73.3333" gradientUnits="userSpaceOnUse">
<stop stop-color="#FFD200"/>
<stop offset="1" stop-color="#FF93A3"/>
</linearGradient>
</defs>
</svg>
