<svg xmlns="http://www.w3.org/2000/svg" width="32" height="32" viewBox="0 0 32 32" fill="none">
  <g id="icon/check">
    <path id="Vector" fill-rule="evenodd" clip-rule="evenodd"
      d="M20.4173 13.1973C20.4855 13.2655 20.5238 13.358 20.5238 13.4544C20.5238 13.5508 20.4855 13.6433 20.4173 13.7115L14.6428 19.486C14.5746 19.5542 14.4821 19.5925 14.3857 19.5925C14.2892 19.5925 14.1968 19.5542 14.1286 19.486L11.7475 17.1042C11.7128 17.0707 11.6851 17.0305 11.666 16.9862C11.6469 16.9418 11.6369 16.8941 11.6365 16.8458C11.6361 16.7975 11.6453 16.7496 11.6636 16.7049C11.6818 16.6603 11.7088 16.6197 11.743 16.5855C11.7771 16.5514 11.8177 16.5244 11.8624 16.5061C11.9071 16.4878 11.955 16.4786 12.0033 16.479C12.0516 16.4794 12.0993 16.4895 12.1436 16.5085C12.188 16.5276 12.2281 16.5553 12.2617 16.59L14.3868 18.7151L19.9039 13.1973C19.972 13.1291 20.0645 13.0908 20.1609 13.0908C20.2574 13.0908 20.3498 13.1291 20.418 13.1973H20.4173Z"
      fill="#0071E3" />
  </g>
</svg>