<svg width="33" height="32" viewBox="0 0 33 32" fill="none" xmlns="http://www.w3.org/2000/svg">
<path fill-rule="evenodd" clip-rule="evenodd" d="M18.1976 2.01486C20.9135 2.15605 23.4808 3.29824 25.404 5.221C27.188 7.00501 28.3046 9.34804 28.5665 11.8574C28.8285 14.3667 28.2199 16.8898 26.8428 19.0038L19.1952 30.7437C19.025 31.005 18.7923 31.2196 18.5182 31.3682C18.2441 31.5167 17.9373 31.5945 17.6255 31.5945C17.3137 31.5945 17.0069 31.5167 16.7328 31.3682C16.4587 31.2196 16.226 31.005 16.0558 30.7437L8.4085 19.0038C6.92437 16.7249 6.33699 13.9771 6.75972 11.2906C7.18245 8.6041 8.58532 6.16943 10.6976 4.45646C12.8098 2.74349 15.4817 1.87367 18.1976 2.01486ZM15.3762 9.63991C16.0419 9.19512 16.8245 8.95771 17.6251 8.95771C18.6983 8.95893 19.7272 9.3858 20.4861 10.1447C21.245 10.9036 21.6719 11.9325 21.6731 13.0057C21.6731 13.8063 21.4357 14.5889 20.9909 15.2546C20.5461 15.9203 19.9139 16.4391 19.1742 16.7455C18.4345 17.0519 17.6206 17.1321 16.8354 16.9759C16.0502 16.8197 15.3289 16.4341 14.7628 15.868C14.1966 15.3019 13.8111 14.5806 13.6549 13.7954C13.4987 13.0102 13.5789 12.1963 13.8853 11.4566C14.1917 10.7169 14.7105 10.0847 15.3762 9.63991ZM16.4466 11.4307C16.3775 11.4666 16.3314 11.4921 16.3223 11.498C16.3125 11.5044 16.3468 11.4876 16.4435 11.4355C16.4445 11.4339 16.4455 11.4323 16.4466 11.4307ZM18.3997 11.1358C18.4828 11.1702 18.4549 11.1672 18.3642 11.1458C18.3761 11.1423 18.3879 11.139 18.3997 11.1358Z" fill="#0071E3"/>
</svg>
