<svg width="111" height="20" viewBox="0 0 111 20" fill="none" xmlns="http://www.w3.org/2000/svg">
<g clip-path="url(#clip0_18949_473184)">
<path d="M32.5814 6.36824C32.5455 9.14318 35.1069 10.6916 37.0364 11.6123C39.0187 12.5569 39.6846 13.1627 39.6767 14.0075C39.662 15.3003 38.0955 15.8709 36.6296 15.8931C34.0721 15.9319 32.5851 15.2169 31.403 14.6762L30.4817 18.8976C31.6678 19.4328 33.864 19.8996 36.1414 19.92C41.4873 19.92 44.9848 17.3359 45.0037 13.3294C45.0247 8.24462 37.8213 7.96318 37.8705 5.6904C37.8875 5.00125 38.5591 4.26583 40.0306 4.07884C40.759 3.98438 42.7696 3.91209 45.0493 4.94004L45.944 0.855707C44.7181 0.418598 43.1424 4.3869e-05 41.1807 4.3869e-05C36.149 4.3869e-05 32.61 2.61932 32.5814 6.36824ZM54.5413 0.351851C53.5652 0.351851 52.7425 0.909441 52.3754 1.7651L44.739 19.62H50.081L51.144 16.7432H57.6719L58.2885 19.62H62.9969L58.8882 0.351851H54.5413ZM55.2887 5.55691L56.8303 12.7923H52.6082L55.2887 5.55691ZM26.1045 0.352091L21.8937 19.6198H26.9842L31.1931 0.35161H26.1045V0.352091ZM18.5739 0.35161L13.2754 13.4665L11.1321 2.31547C10.8806 1.07065 9.88749 0.351851 8.78458 0.351851H0.123268L0.00195312 0.911369C1.78008 1.2892 3.80035 1.8986 5.02433 2.55065C5.77338 2.94896 5.98697 3.29715 6.23304 4.24366L10.2925 19.62H15.672L23.9194 0.351851H18.5739" fill="url(#paint0_linear_18949_473184)"/>
</g>
<g clip-path="url(#clip1_18949_473184)">
<path d="M91 2H100V18H91V2Z" fill="#FF5F00"/>
<path d="M91.2338 10C91.2338 6.8056 92.7183 3.97221 95 2.13884C93.3231 0.805527 91.2064 0 88.8971 0C83.4261 0 79 4.47216 79 10C79 15.5277 83.4261 20 88.8969 20C91.2062 20 93.323 19.1945 95 17.861C92.7183 16.0555 91.2338 13.1944 91.2338 10Z" fill="#EB001B"/>
<path d="M111 10C111 15.5277 106.574 20 101.103 20C98.7937 20 96.677 19.1945 95 17.861C97.3093 16.0278 98.7663 13.1944 98.7663 10C98.7663 6.8056 97.2817 3.97221 95 2.13884C96.6768 0.805527 98.7937 0 101.103 0C106.574 0 111 4.49999 111 10H111Z" fill="#F79E1B"/>
</g>
<defs>
<linearGradient id="paint0_linear_18949_473184" x1="28.9633" y1="20.3196" x2="29.5279" y2="-0.13916" gradientUnits="userSpaceOnUse">
<stop stop-color="#222357"/>
<stop offset="1" stop-color="#254AA5"/>
</linearGradient>
<clipPath id="clip0_18949_473184">
<rect width="63" height="20" fill="white"/>
</clipPath>
<clipPath id="clip1_18949_473184">
<rect width="32" height="20" fill="white" transform="translate(79)"/>
</clipPath>
</defs>
</svg>
