<svg width="24" height="24" viewBox="0 0 24 24" fill="none"
  xmlns="http://www.w3.org/2000/svg">
  <path d="M19.3719 17.3097C19.255 17.1172 19.0101 17.0518 18.8248 17.1637C18.6394 17.2756 18.5839 17.5225 18.7008 17.715L19.3719 17.3097ZM18.5732 19.9866L18.345 19.6486L18.345 19.6486L18.5732 19.9866ZM16.7171 21.2448L16.9453 21.5829L16.7171 21.2448ZM14.8597 18.1834L15.0879 18.5214L14.8597 18.1834ZM16.016 17.8923C16.1952 17.7708 16.2383 17.521 16.1123 17.3343C15.9862 17.1476 15.7388 17.0948 15.5596 17.2162L16.016 17.8923ZM16.8584 18.8815C16.9752 19.074 17.2202 19.1394 17.4055 19.0275C17.5908 18.9156 17.6463 18.6687 17.5295 18.4762L16.8584 18.8815ZM17.6571 16.2046L17.8852 16.5426L17.8852 16.5426L17.6571 16.2046ZM19.5132 14.9464L19.7414 15.2844L19.7414 15.2844L19.5132 14.9464ZM21.8336 15.5336L21.4981 15.7362L21.4981 15.7362L21.8336 15.5336ZM21.3705 18.0078L21.5987 18.3458L21.5987 18.3458L21.3705 18.0078ZM20.2143 18.2989C20.0351 18.4204 19.992 18.6702 20.118 18.8569C20.244 19.0436 20.4915 19.0964 20.6707 18.975L20.2143 18.2989ZM18.7008 17.715C18.8928 18.0316 18.9641 18.416 18.8956 18.782L19.6751 18.9602C19.7803 18.3982 19.6724 17.8051 19.3719 17.3097L18.7008 17.715ZM18.8956 18.782C18.8271 19.1479 18.6263 19.4579 18.345 19.6486L18.8014 20.3246C19.2584 20.0148 19.5699 19.5224 19.6751 18.9602L18.8956 18.782ZM18.345 19.6486L16.4889 20.9068L16.9453 21.5829L18.8014 20.3246L18.345 19.6486ZM16.4889 20.9068C15.9134 21.2969 15.129 21.1092 14.7322 20.455L14.061 20.8603C14.6899 21.8969 15.9834 22.2349 16.9453 21.5829L16.4889 20.9068ZM14.7322 20.455C14.3276 19.7882 14.4986 18.9209 15.0879 18.5214L14.6315 17.8454C13.6835 18.4881 13.4398 19.8362 14.061 20.8603L14.7322 20.455ZM15.0879 18.5214L16.016 17.8923L15.5596 17.2162L14.6315 17.8454L15.0879 18.5214ZM17.5295 18.4762C17.3374 18.1596 17.2662 17.7752 17.3347 17.4092L16.5551 17.231C16.4499 17.793 16.5578 18.3861 16.8584 18.8815L17.5295 18.4762ZM17.3347 17.4092C17.4032 17.0433 17.604 16.7333 17.8852 16.5426L17.4289 15.8666C16.9719 16.1764 16.6603 16.6688 16.5551 17.231L17.3347 17.4092ZM17.8852 16.5426L19.7414 15.2844L19.285 14.6083L17.4289 15.8666L17.8852 16.5426ZM19.7414 15.2844C20.3168 14.8943 21.1012 15.082 21.4981 15.7362L22.1692 15.3309C21.5403 14.2943 20.2469 13.9563 19.285 14.6083L19.7414 15.2844ZM21.4981 15.7362C21.9026 16.403 21.7316 17.2703 21.1423 17.6698L21.5987 18.3458C22.5468 17.7031 22.7905 16.355 22.1692 15.3309L21.4981 15.7362ZM21.1423 17.6698L20.2143 18.2989L20.6707 18.975L21.5987 18.3458L21.1423 17.6698Z" fill="black"/>
  <path d="M11.4847 18.2319H6.99388C5.94592 18.2319 5.42195 18.2319 5.02168 18.0259C4.66959 17.8446 4.38334 17.5555 4.20395 17.1998C4 16.7954 4 16.2661 4 15.2074V8.02443C4 6.96578 4 6.43645 4.20395 6.0321C4.38334 5.67643 4.66959 5.38725 5.02168 5.20603C5.42195 5 5.94592 5 6.99388 5H17.8467C18.8946 5 19.4186 5 19.8189 5.20603C20.171 5.38725 20.4572 5.67643 20.6366 6.0321C20.8406 6.43645 20.8406 6.96578 20.8406 8.02443V12.5611M4 8.78054H20.8406" stroke="black" stroke-width="1.2" stroke-linecap="round" stroke-linejoin="round"/>
</svg>
