<svg width="46" height="12" viewBox="0 0 46 12" fill="none"
  xmlns="http://www.w3.org/2000/svg">
  <path fill-rule="evenodd" clip-rule="evenodd" d="M5.40423 0.0012207H1.90137C1.66166 0.0012207 1.45779 0.175415 1.42041 0.411942L0.0036746 9.39331C-0.0244843 9.57058 0.11278 9.73032 0.292565 9.73032H1.96487C2.20457 9.73032 2.40844 9.55613 2.44582 9.31913L2.82793 6.89675C2.86479 6.65951 3.06916 6.48555 3.30836 6.48555H4.41725C6.72471 6.48555 8.05634 5.36904 8.40429 3.15664C8.56097 2.18873 8.41093 1.4282 7.9575 0.895421C7.45974 0.310742 6.57657 0.0012207 5.40423 0.0012207ZM5.80836 3.28154C5.61685 4.53836 4.65646 4.53836 3.72786 4.53836H3.19926L3.57009 2.1911C3.59211 2.04938 3.71503 1.94486 3.85846 1.94486H4.10072C4.73328 1.94486 5.33004 1.94486 5.63842 2.30534C5.82211 2.52053 5.87853 2.84001 5.80836 3.28154ZM15.8752 3.24125H14.1977C14.0548 3.24125 13.9313 3.34577 13.9093 3.48773L13.8351 3.95676L13.7177 3.78683C13.3546 3.25974 12.5449 3.08365 11.7367 3.08365C9.88287 3.08365 8.29976 4.4874 7.99139 6.45664C7.83116 7.43877 8.05894 8.378 8.6162 9.03307C9.12747 9.63528 9.85893 9.88627 10.7291 9.88627C12.2226 9.88627 13.051 8.92594 13.051 8.92594L12.9761 9.39212C12.9479 9.57035 13.0851 9.73008 13.2638 9.73008H14.7749C15.0152 9.73008 15.2179 9.55589 15.2558 9.31889L16.1624 3.57827C16.1911 3.4017 16.0544 3.24125 15.8752 3.24125ZM13.5369 6.50569C13.375 7.46389 12.6144 8.10711 11.6445 8.10711C11.1574 8.10711 10.7679 7.95092 10.5181 7.65491C10.2702 7.36103 10.1758 6.94249 10.2548 6.47655C10.406 5.52641 11.1794 4.86233 12.1346 4.86233C12.6108 4.86233 12.9981 5.02041 13.2532 5.31903C13.5087 5.62073 13.6101 6.04165 13.5369 6.50569ZM23.1232 3.24102H24.809C25.0451 3.24102 25.1828 3.50574 25.0486 3.69937L19.4422 11.791C19.3514 11.9221 19.2019 12.0001 19.0421 12.0001H17.3585C17.1215 12.0001 16.983 11.7332 17.1203 11.5391L18.866 9.07525L17.0093 3.62709C16.9451 3.43772 17.085 3.24102 17.2864 3.24102H18.9428C19.158 3.24102 19.3479 3.38227 19.41 3.58822L20.3953 6.87873L22.7203 3.45455C22.8113 3.32088 22.9625 3.24102 23.1232 3.24102Z" fill="#253B80"/>
  <path fill-rule="evenodd" clip-rule="evenodd" d="M41.4023 9.39256L42.8399 0.246955C42.862 0.104992 42.985 0.000474001 43.1279 0H44.7463C44.9251 0 45.0623 0.160212 45.0341 0.337488L43.6164 9.31838C43.5794 9.55538 43.3756 9.72958 43.1355 9.72958H41.6901C41.5114 9.72958 41.3741 9.56984 41.4023 9.39256ZM30.3926 0.000474644H26.8891C26.65 0.000474644 26.4461 0.174669 26.4087 0.411196L24.992 9.39256C24.9638 9.56984 25.101 9.72958 25.28 9.72958H27.0776C27.2447 9.72958 27.3876 9.60776 27.4137 9.44186L27.8157 6.896C27.8527 6.65876 28.057 6.4848 28.2961 6.4848H29.4045C31.7124 6.4848 33.0438 5.36829 33.392 3.1559C33.5491 2.18799 33.3982 1.42745 32.945 0.894675C32.4474 0.309995 31.565 0.000474644 30.3926 0.000474644ZM30.7968 3.2808C30.6057 4.53761 29.6453 4.53761 28.7161 4.53761H28.188L28.5595 2.19036C28.5815 2.04863 28.7033 1.94411 28.8472 1.94411H29.0895C29.7216 1.94411 30.3189 1.94411 30.6271 2.30459C30.811 2.51979 30.8669 2.83926 30.7968 3.2808ZM40.8626 3.24051H39.1864C39.0423 3.24051 38.92 3.34502 38.8984 3.48699L38.8242 3.95601L38.7064 3.78608C38.3433 3.25899 37.5341 3.0829 36.7258 3.0829C34.872 3.0829 33.2894 4.48666 32.981 6.45589C32.8212 7.43802 33.0481 8.37725 33.6053 9.03232C34.1175 9.63454 34.8481 9.88552 35.7182 9.88552C37.2117 9.88552 38.0399 8.92519 38.0399 8.92519L37.9652 9.39138C37.937 9.5696 38.0742 9.72934 38.2541 9.72934H39.7645C40.0036 9.72934 40.2075 9.55514 40.2449 9.31814L41.152 3.57752C41.1798 3.40096 41.0425 3.24051 40.8626 3.24051ZM38.5246 6.50495C38.3636 7.46314 37.6021 8.10636 36.6319 8.10636C36.1458 8.10636 35.7556 7.95018 35.5056 7.65416C35.2576 7.36028 35.1645 6.94174 35.2425 6.4758C35.3944 5.52566 36.1669 4.86159 37.1221 4.86159C37.5985 4.86159 37.9856 5.01967 38.2409 5.31829C38.4973 5.61999 38.5988 6.0409 38.5246 6.50495Z" fill="#179BD7"/>
</svg>
