<svg xmlns="http://www.w3.org/2000/svg" width="48" height="48" viewBox="0 0 48 48" fill="none">
  <circle cx="24" cy="24" r="24" fill="#F2F2F2" />
  <path
    d="M16.3094 34.4915C14.6363 34.4915 13.7998 33.9195 13.7998 32.7757C13.7998 32.0131 14.0294 31.2077 14.4885 30.3595C14.9554 29.5035 15.6246 28.702 16.4961 27.955C17.3676 27.2002 18.422 26.5854 19.6593 26.1108C20.8966 25.6361 22.2973 25.3987 23.8614 25.3987C25.4177 25.3987 26.8145 25.6361 28.0517 26.1108C29.289 26.5854 30.3434 27.2002 31.2149 27.955C32.0865 28.702 32.7518 29.5035 33.2109 30.3595C33.6778 31.2077 33.9112 32.0131 33.9112 32.7757C33.9112 33.9195 33.0708 34.4915 31.39 34.4915H16.3094ZM15.9592 33.1375H31.7635C32.0281 33.1375 32.211 33.0986 32.3121 33.0208C32.4211 32.9507 32.4755 32.8223 32.4755 32.6356C32.4755 32.0753 32.2849 31.4606 31.9036 30.7914C31.5223 30.1221 30.962 29.4802 30.2228 28.8654C29.4913 28.2507 28.5886 27.7488 27.5148 27.3597C26.4487 26.9628 25.2309 26.7644 23.8614 26.7644C22.484 26.7644 21.2584 26.9628 20.1846 27.3597C19.1185 27.7488 18.2158 28.2507 17.4766 28.8654C16.7451 29.4802 16.1887 30.1221 15.8074 30.7914C15.4261 31.4606 15.2355 32.0753 15.2355 32.6356C15.2355 32.8223 15.2861 32.9507 15.3872 33.0208C15.4962 33.0986 15.6868 33.1375 15.9592 33.1375ZM23.873 23.7996C22.9626 23.7996 22.1377 23.5623 21.3985 23.0876C20.6592 22.6052 20.0678 21.9593 19.6243 21.15C19.1885 20.3407 18.9706 19.442 18.9706 18.4537C18.9706 17.4888 19.1885 16.6095 19.6243 15.8158C20.0678 15.0221 20.6592 14.3879 21.3985 13.9132C22.1455 13.4385 22.9704 13.2012 23.873 13.2012C24.7757 13.2012 25.5966 13.4346 26.3359 13.9015C27.0829 14.3684 27.6743 14.9987 28.1101 15.7924C28.5536 16.5861 28.7754 17.4655 28.7754 18.4304C28.7754 19.4264 28.5536 20.333 28.1101 21.15C27.6743 21.9593 27.0829 22.6052 26.3359 23.0876C25.5966 23.5623 24.7757 23.7996 23.873 23.7996ZM23.873 22.4457C24.5111 22.4457 25.0908 22.2667 25.6122 21.9087C26.1413 21.5508 26.5577 21.0683 26.8611 20.4614C27.1724 19.8544 27.328 19.1774 27.328 18.4304C27.328 17.7067 27.1724 17.053 26.8611 16.4694C26.5499 15.878 26.1336 15.4111 25.6122 15.0687C25.0908 14.7264 24.5111 14.5552 23.873 14.5552C23.2349 14.5552 22.6513 14.7302 22.1222 15.0804C21.6008 15.4228 21.1845 15.8897 20.8732 16.4811C20.562 17.0725 20.4063 17.73 20.4063 18.4537C20.4063 19.2007 20.562 19.8777 20.8732 20.4847C21.1845 21.0839 21.6008 21.5624 22.1222 21.9204C22.6513 22.2706 23.2349 22.4457 23.873 22.4457Z"
    fill="#6E6E73" />
</svg>