<svg width="32" height="32" viewBox="0 0 32 32" fill="none" xmlns="http://www.w3.org/2000/svg">
<path d="M5.33331 18.3732C5.33331 12.3041 10.2133 7.43651 16.2824 7.43651C17.0379 7.43651 17.7687 7.52321 18.4127 7.64707L15.1181 4.3896C14.9447 4.19142 14.8456 3.94371 14.8456 3.68361C14.8456 3.11386 15.2667 2.66797 15.8241 2.66797C16.1214 2.66797 16.3691 2.76706 16.5425 2.96523L21.6454 8.1425C21.8436 8.34067 21.9551 8.61316 21.9551 8.88565C21.9551 9.17052 21.8684 9.41824 21.6454 9.6288L16.5425 14.7565C16.3691 14.9423 16.1337 15.0414 15.8241 15.0414C15.2667 15.0414 14.8456 14.6203 14.8456 14.0505C14.8456 13.7904 14.9447 13.5427 15.1305 13.3445L18.8339 9.67834C18.1031 9.50494 17.2237 9.43063 16.2824 9.43063C11.3157 9.43063 7.32743 13.4065 7.32743 18.3732C7.32743 23.3523 11.3157 27.3405 16.2824 27.3405C21.2491 27.3405 25.2249 23.3523 25.2249 18.3732C25.2249 17.7787 25.6089 17.3452 26.191 17.3452C26.7979 17.3452 27.2191 17.7787 27.2191 18.3732C27.2191 24.4546 22.3514 29.3346 16.2824 29.3346C10.2133 29.3346 5.33331 24.4546 5.33331 18.3732Z" fill="#F04438"/>
</svg>
