<svg width="32" height="32" viewBox="0 0 32 32" fill="none" xmlns="http://www.w3.org/2000/svg">
<path d="M19.3384 20.0106H24.8008C27.1982 20.0106 28.4242 18.7998 28.4242 17.1349C28.4242 15.2647 27.1434 14.0323 25.1511 13.5999C25.0198 13.5782 24.965 13.4918 24.976 13.3512C25.0198 12.8431 25.0526 12.2593 25.0198 11.7729C24.8337 8.55129 22.3488 5.74052 18.7583 5.74052C15.9231 5.74052 14.292 7.28644 13.2302 9.15668C13.1645 9.2756 13.0879 9.29722 12.9565 9.25398C10.7015 8.60534 8.28228 9.52425 8.28228 12.8431C8.28228 12.9837 8.22755 13.0701 8.0743 13.0701C5.7536 13.0701 4.42904 14.6053 4.42904 16.6701C4.42904 18.5295 5.78643 20.0106 8.3808 20.0106H13.6133V21.7511H8.39175C4.80123 21.7511 2.66663 19.4809 2.66663 16.6701C2.66663 14.1188 4.21011 12.1188 6.68406 11.7404C6.7388 8.70264 9.8805 6.79996 12.3654 7.45941C13.679 5.56755 15.7917 4 18.7583 4C23.2355 4 26.7494 7.48103 26.7275 12.3026C28.8621 13.1566 30.1866 14.9512 30.1866 17.1349C30.1866 19.7511 28.1724 21.7511 24.8118 21.7511H19.3384V20.0106ZM16.4814 27.2862C16.0107 27.2862 15.6056 26.9078 15.6056 26.4537V16.3133L15.6713 14.3134L14.9379 15.0809L13.274 16.7133C13.1098 16.8755 12.8799 16.9728 12.6719 16.9728C12.2121 16.9728 11.8837 16.6593 11.8837 16.216C11.8837 15.989 11.9713 15.7944 12.1465 15.6431L15.8465 12.2269C16.0763 12.0215 16.2515 11.9458 16.4814 11.9458C16.7003 11.9458 16.8754 12.0215 17.1053 12.2269L20.8053 15.6431C20.9805 15.7944 21.068 15.989 21.068 16.216C21.068 16.6593 20.7177 16.9728 20.2689 16.9728C20.0609 16.9728 19.842 16.8755 19.6778 16.7133L18.0139 15.0809L17.2805 14.3134L17.3461 16.3133V26.4537C17.3461 26.9078 16.9521 27.2862 16.4814 27.2862Z" fill="#0A84FF"/>
</svg>
