<svg width="210" height="205" viewBox="0 0 210 205" fill="none" xmlns="http://www.w3.org/2000/svg">
<path d="M209.73 100.202C208.468 44.7499 161.927 0.0498047 104.88 0.0498047C47.0404 0.0498047 0 46.0115 0 102.525C0 158.149 45.6024 203.566 102.209 204.971V204.999H177.098H209.437H209.759V100.202H209.73ZM32.7786 102.496C32.7786 63.645 65.117 32.0481 104.88 32.0481C144.642 32.0481 176.981 63.645 176.981 102.496C176.981 141.347 144.642 172.944 104.88 172.944C65.117 172.944 32.7786 141.347 32.7786 102.496Z" fill="#2397FF"/>
<path d="M81.25 64C67.8571 64 57 74.8112 57 88.1475C57 98.9139 61.2421 124.465 103.014 150.298C104.527 151.234 106.473 151.234 107.986 150.298C149.758 124.465 154 98.9139 154 88.1475C154 74.8112 143.143 64 129.75 64C116.357 64 105.5 78.6348 105.5 78.6348C105.5 78.6348 94.6429 64 81.25 64Z" fill="#FD2D40"/>
</svg>
