<svg width="1140" height="205" viewBox="0 0 1140 205" fill="none" xmlns="http://www.w3.org/2000/svg">
<path d="M1139.71 204.939H1106.93V104.127C1106.93 65.2762 1074.6 33.6793 1034.83 33.6793C995.07 33.6793 962.732 65.2762 962.732 104.127V204.939H929.953V104.127C929.953 47.6141 976.994 1.65234 1034.83 1.65234C1092.67 1.65234 1139.71 47.6141 1139.71 104.127V204.939Z" fill="white"/>
<path d="M404.353 128.509C393.73 154.515 367.73 172.923 337.388 172.923C297.625 172.923 265.286 141.326 265.286 102.475C265.286 63.6239 297.625 32.027 337.388 32.027C368.083 32.027 394.347 50.8934 404.735 77.3579H439.069C427.565 32.9732 386.335 0 337.388 0C279.548 0 232.508 45.9617 232.508 102.475C232.508 158.988 279.548 204.95 337.388 204.95C386.013 204.95 427.008 172.435 438.834 128.509H404.353V128.509Z" fill="white"/>
<path d="M209.73 100.202C208.468 44.7499 161.927 0.0498047 104.88 0.0498047C47.0404 0.0498047 0 46.0115 0 102.525C0 158.149 45.6024 203.566 102.209 204.971V204.999H177.098H209.437H209.759V100.202H209.73ZM32.7786 102.496C32.7786 63.645 65.117 32.0481 104.88 32.0481C144.642 32.0481 176.981 63.645 176.981 102.496C176.981 141.347 144.642 172.944 104.88 172.944C65.117 172.944 32.7786 141.347 32.7786 102.496Z" fill="white"/>
<path d="M907.244 102.475C907.244 45.9617 860.203 0 802.364 0C744.525 0 697.484 45.9617 697.484 102.475C697.484 158.128 743.145 203.573 799.782 204.921V204.95H874.377H907.038V173.898V108.668C907.185 106.632 907.244 104.568 907.244 102.475ZM730.263 102.475C730.263 63.6239 762.601 32.027 802.364 32.027C841.334 32.027 873.145 62.3909 874.406 100.181H874.377V105.944C872.528 143.19 840.924 172.923 802.364 172.923C762.631 172.923 730.263 141.326 730.263 102.475Z" fill="white"/>
<path d="M674.775 102.934C674.775 102.79 674.775 102.618 674.775 102.475C674.775 45.9617 627.735 0 569.895 0C512.056 0 465.016 45.9617 465.016 102.475C465.016 158.988 512.056 204.95 569.895 204.95C618.52 204.95 659.516 172.435 671.342 128.509H636.89C626.267 154.515 600.268 172.923 569.925 172.923C530.309 172.923 498.088 141.555 497.824 102.934H641.997H674.775V102.934ZM569.895 32.027C598.184 32.027 622.717 48.0261 634.513 71.2507H505.277C517.074 48.0261 541.607 32.027 569.895 32.027Z" fill="white"/>
<path d="M81.25 64C67.8571 64 57 74.8112 57 88.1475C57 98.9139 61.2421 124.465 103.014 150.298C104.527 151.234 106.473 151.234 107.986 150.298C149.758 124.465 154 98.9139 154 88.1475C154 74.8112 143.143 64 129.75 64C116.357 64 105.5 78.6348 105.5 78.6348C105.5 78.6348 94.6429 64 81.25 64Z" fill="#FD2D40"/>
</svg>
