<svg width="187" height="17" viewBox="0 0 187 17" fill="none"
  xmlns="http://www.w3.org/2000/svg">
  <path d="M2.2315 7.20982H3.45883C5.57876 7.20982 7.36396 6.98452 7.36396 4.73158C7.36396 2.92922 5.80191 2.47863 4.57458 2.47863H2.34308V7.20982H2.2315ZM2.2315 14.3066H3.79356C5.69033 14.3066 7.47554 13.856 7.47554 11.8284C7.47554 9.46277 5.46718 9.12482 3.57041 9.12482H2.2315V14.3066ZM0 0.67627H4.01671C7.14081 0.67627 9.26074 1.6901 9.26074 4.50628C9.37231 6.64658 8.14499 7.77306 6.24821 8.22365C8.25656 8.44894 9.70704 9.80071 9.70704 11.941C9.70704 15.2078 7.02924 15.9963 4.01671 15.9963H0V0.67627Z" fill="white"/>
  <path d="M19.5263 2.70392L16.5138 10.3639H22.5388L19.5263 2.70392ZM18.5221 0.67627H20.7536L27.1134 16.109H24.7703L23.2083 12.279H15.8443L14.2823 16.109H12.0508L18.5221 0.67627Z" fill="white"/>
  <path d="M30.3477 0.67627H33.3602L39.9431 13.0675V0.67627H42.063V16.109H39.2737L32.5792 3.37981V15.9963H30.4592L30.3477 0.67627Z" fill="white"/>
  <path d="M58.4664 3.38C57.4622 2.70412 56.2349 2.36618 54.3381 2.36618C50.8793 2.36618 48.5362 4.95707 48.5362 8.33649C48.5362 11.9412 51.1024 14.3068 54.2265 14.3068C55.677 14.3068 56.1233 14.1942 56.6812 14.0815V9.46297H53.4455V7.66061H58.8011V15.6586C58.0201 15.9965 56.5696 16.3345 54.2265 16.3345C49.4288 16.3345 46.3047 13.1803 46.3047 8.33649C46.3047 3.6053 49.6519 0.451172 54.2265 0.451172C56.458 0.451172 57.3506 0.789114 58.6895 1.2397L58.4664 3.38Z" fill="white"/>
  <path d="M96.4008 14.4195C99.8596 14.4195 101.31 11.4906 101.31 8.44914C101.31 5.29501 99.6365 2.36618 96.4008 2.47883C93.0536 2.47883 91.4915 5.40766 91.4915 8.44914C91.4915 11.4906 92.942 14.4195 96.4008 14.4195ZM96.4008 0.451172C100.975 0.451172 103.653 3.83059 103.653 8.44914C103.653 13.1803 100.975 16.4471 96.4008 16.4471C91.8262 16.4471 89.1484 13.0677 89.1484 8.33649C89.1484 3.83059 91.8262 0.451172 96.4008 0.451172Z" fill="white"/>
  <path d="M107.893 0.67627H110.013V14.0813H116.261V15.9963H107.781V0.67627H107.893Z" fill="white"/>
  <path d="M130.877 9.68806C130.877 13.9687 128.757 16.3343 125.075 16.3343C121.393 16.3343 119.273 13.9687 119.273 9.68806V0.67627H121.393V9.46277C121.393 12.3916 122.286 14.4193 125.075 14.4193C127.865 14.4193 128.757 12.3916 128.757 9.46277V0.67627H130.877V9.68806Z" fill="white"/>
  <path d="M136.121 0.67627H144.154V2.59128H138.241V7.09717H143.82V9.01218H138.241V15.9963H136.121V0.67627Z" fill="white"/>
  <path d="M156.095 3.04206C154.98 2.59147 154.422 2.36618 153.306 2.36618C152.079 2.36618 150.628 2.81677 150.628 4.39383C150.628 7.32266 157.1 6.64678 157.1 11.7159C157.1 14.9827 154.645 16.3345 151.632 16.3345C150.628 16.3345 149.512 15.9965 148.508 15.6586L148.731 13.6309C149.512 13.9689 150.74 14.4195 151.856 14.4195C153.083 14.4195 154.757 13.7436 154.757 11.9412C154.757 8.44914 148.285 9.46297 148.285 4.61913C148.285 1.91559 150.405 0.451172 153.083 0.451172C154.087 0.451172 155.314 0.676467 156.319 1.01441L156.095 3.04206Z" fill="white"/>
  <path d="M162.008 0.67627H170.487V2.59128H164.239V7.09717H169.93V9.01218H164.239V14.0813H170.487V15.9963H162.008V0.67627Z" fill="white"/>
  <path d="M175.397 0.67627H178.298L184.881 13.0675V0.67627H187.001V16.109H184.211L177.405 3.49245V16.109H175.285V0.67627H175.397Z" fill="white"/>
  <path d="M79.6644 12.1654L81.2265 10.5883L79.6644 9.01125L78.1024 10.5883C78.1024 10.5883 73.8625 6.19507 73.0815 5.40654C73.0815 5.29389 72.6352 4.95595 72.6352 4.28006C72.6352 3.26624 73.5278 2.59035 74.1972 2.59035C74.7551 2.59035 75.2014 2.92829 75.313 3.04094C75.5361 2.81565 76.7634 1.57652 76.875 1.46388C76.7634 1.35123 75.8708 0.337402 74.1972 0.337402C71.9657 0.337402 70.4037 2.25241 70.4037 4.16741C70.4037 6.08242 71.7426 7.09625 71.9657 7.32154C71.7426 7.77213 71.1847 8.33537 70.7384 8.89861C69.5111 10.1377 68.73 13.0666 70.7384 15.0942C72.7467 17.1219 75.5361 16.446 76.7635 15.0942C77.4329 14.4183 77.7676 14.0804 78.1024 13.7424L80.2223 15.8827L81.6728 14.3057L79.6644 12.1654ZM75.2014 13.5172C74.4204 14.3057 73.0815 14.531 72.1889 13.5172C71.2963 12.5033 71.4078 11.1516 72.1889 10.363L73.5278 9.01125L76.5403 12.0527C76.6519 12.1654 75.9824 12.8413 75.2014 13.5172Z" fill="white"/>
</svg>
