<svg width="160" height="35" viewBox="0 0 160 35" fill="none" xmlns="http://www.w3.org/2000/svg">
<path fill-rule="evenodd" clip-rule="evenodd" d="M155.112 3.76222V2.31813H156.064C156.546 2.31813 157.067 2.41947 157.067 3.00217C157.067 3.72422 156.534 3.76222 155.937 3.76222H155.112ZM157.791 3.05285C157.791 2.12813 157.257 1.72277 156.153 1.72277H154.4V6.39704H155.099V4.37024H155.899L157.118 6.39704H157.905L156.584 4.33224C157.283 4.25624 157.791 3.88889 157.791 3.05285ZM155.95 7.43576C154.108 7.43576 152.686 6.00435 152.686 4.0409C152.686 2.11546 154.121 0.67137 155.95 0.67137C157.765 0.67137 159.187 2.11546 159.187 4.0409C159.2 6.00435 157.765 7.43576 155.95 7.43576ZM155.95 0C153.74 0 151.886 1.72276 151.886 4.05356C151.886 6.39703 153.753 8.1198 155.95 8.1198C158.133 8.1198 160 6.39703 160 4.05356C160 1.71009 158.133 0 155.95 0ZM120.651 25.1828C120.651 23.954 120.955 22.9406 121.565 22.1046C122.174 21.2812 123.076 20.8632 124.269 20.8632C125.298 20.8632 126.06 21.1925 126.542 21.8766C127.038 22.548 127.52 23.536 128.003 24.8534C129.183 27.7796 130.758 29.249 132.739 29.249C133.589 29.249 134.326 29.021 134.935 28.5523C135.545 28.0836 135.85 27.4376 135.85 26.6142C135.85 25.7401 135.177 24.7901 133.843 23.7387C132.51 22.7 131.164 21.6739 129.806 20.6605C128.46 19.6471 127.279 18.4564 126.301 17.0503C125.311 15.6442 124.815 13.9595 124.815 11.958C124.815 9.75389 125.412 7.82844 126.58 6.19435C127.761 4.56026 129.31 3.31885 131.253 2.47014C133.196 1.62142 135.24 1.19074 137.411 1.19074C138.326 1.19074 139.329 1.33008 140.408 1.58342C141.487 1.84944 142.046 1.98878 142.084 1.98878C142.224 1.98878 142.579 1.84944 143.176 1.58342C143.773 1.33008 144.319 1.19074 144.814 1.19074C145.677 1.19074 146.49 1.55809 147.264 2.30546C148.039 3.05284 148.648 3.95222 149.118 5.01628C149.588 6.06768 149.804 7.00507 149.804 7.82845C149.804 8.87984 149.474 9.80456 148.775 10.5773C148.103 11.3626 147.239 11.7553 146.198 11.7553C145.449 11.7553 144.789 11.5527 144.243 11.1473C143.697 10.7419 143.074 10.1466 142.389 9.34853C141.69 8.55048 141.081 7.95512 140.56 7.53709C140.04 7.13174 139.43 6.92906 138.732 6.92906C138.097 6.92906 137.576 7.09373 137.17 7.44842C136.764 7.79044 136.561 8.27181 136.561 8.87984C136.561 9.63989 136.815 10.2606 137.322 10.7546C137.818 11.2613 138.541 11.7427 139.443 12.2114C141.64 13.4021 143.316 14.4028 144.509 15.2135C145.69 16.0242 146.693 17.0883 147.518 18.3931C148.344 19.6978 148.75 21.3192 148.75 23.2447C148.75 25.1954 148.306 26.9182 147.417 28.413C146.528 29.9077 145.322 31.1364 143.824 32.0992C142.325 33.0745 140.675 33.7966 138.833 34.278C137.018 34.772 135.189 35 133.361 35C131.202 35 129.145 34.658 127.215 33.9486C125.26 33.2392 123.685 32.1498 122.466 30.6551C121.26 29.211 120.651 27.3742 120.651 25.1828ZM105.503 10.3873C105.515 10.2099 105.566 9.8679 105.63 9.37387C105.693 8.86717 105.731 8.43648 105.731 8.08179C105.731 7.58776 105.604 7.23308 105.338 7.04306C105.084 6.85305 104.677 6.66305 104.131 6.48571C103.598 6.30836 103.179 6.09301 102.9 5.827C102.633 5.57365 102.493 5.13029 102.493 4.50959C102.493 3.68621 103.052 2.97683 104.182 2.38147C105.312 1.7861 107.75 1.49475 111.509 1.49475C114.137 1.49475 116.169 1.58342 117.591 1.7481C119.025 1.92544 120.054 2.21679 120.676 2.66015C121.298 3.10351 121.603 3.72422 121.603 4.5476C121.603 5.19363 121.451 5.64965 121.159 5.87767C120.854 6.13102 120.397 6.32103 119.762 6.47304C119.127 6.62504 118.632 6.81506 118.276 7.0304C117.934 7.24575 117.692 7.67644 117.603 8.29714C117.54 8.7025 117.451 9.17119 117.324 9.71588C117.197 10.2732 117.108 10.6913 117.045 10.9826L115.242 23.7767C115.013 25.4108 114.912 26.4368 114.912 26.8295C114.912 27.6529 115.064 28.2609 115.356 28.603C115.648 28.9577 116.067 29.249 116.6 29.4517C117.146 29.667 117.553 29.8824 117.807 30.1104C118.073 30.3384 118.2 30.7691 118.2 31.4151C118.2 32.7959 117.375 33.6826 115.711 34.0879C114.048 34.506 111.978 34.7086 109.502 34.7086C106.785 34.7086 104.677 34.6073 103.192 34.4173C101.706 34.2273 100.627 33.8979 99.954 33.3912C99.2683 32.8972 98.9255 32.1878 98.9255 31.2758C98.9255 30.6044 99.0652 30.1737 99.3699 29.9584C99.6619 29.743 100.195 29.4897 100.957 29.211C101.719 28.9323 102.316 28.5523 102.747 28.0836C103.179 27.6022 103.471 26.8042 103.598 25.6768L105.503 10.3873ZM71.5372 34.354C69.5945 34.354 68.2486 34.1133 67.4994 33.6066C66.7503 33.0999 66.382 32.3905 66.382 31.4785C66.382 30.7311 66.5471 30.2624 66.8519 30.0344C67.1693 29.8064 67.6899 29.553 68.4263 29.2617C69.1628 28.9703 69.5945 28.6156 69.7215 28.2356C70.2293 26.4748 70.6864 24.4227 71.1055 22.0539C71.5118 19.6851 71.8546 17.3037 72.0959 14.9095C72.3371 12.5154 72.4514 10.4379 72.4514 8.67716C72.4514 8.08179 72.3244 7.67643 72.0578 7.41042C71.7911 7.15707 71.3975 6.92906 70.8896 6.72638C70.3817 6.5237 69.9881 6.2957 69.7342 6.04235C69.4675 5.80167 69.3405 5.3963 69.3405 4.82627C69.3405 2.79949 70.915 1.77344 74.0766 1.77344C75.3972 1.79877 77.378 1.82411 80.0064 1.82411C83.6505 1.82411 86.3678 1.81144 88.1581 1.77344C91.0531 1.77344 93.3386 2.40681 95.002 3.67354C96.6526 4.94028 97.478 6.80239 97.478 9.27253C97.478 10.3239 97.2748 11.274 96.8558 12.1227C96.4368 12.9714 95.9797 13.6554 95.4845 14.1748C94.9893 14.6942 94.4306 15.2135 93.8592 15.7076C93.2751 16.2016 92.9831 16.5183 92.9831 16.6449C92.9831 16.8856 93.3386 17.2023 94.037 17.6203C94.748 18.0384 95.3448 18.4437 95.8654 18.8364C96.3733 19.2291 96.8685 19.9005 97.3383 20.8505C97.8081 21.7879 98.0367 23.042 98.0367 24.5747C98.0367 25.9681 97.6939 27.4122 97.0082 28.8943C96.3225 30.3764 95.1163 31.6558 93.3894 32.7325C91.6499 33.8093 89.3643 34.3413 86.5074 34.3413H71.5372V34.354ZM81.0856 28.6156C81.0856 28.9703 81.2126 29.211 81.4412 29.3123C81.6697 29.401 82.0506 29.4517 82.5712 29.4517C85.0091 29.4517 86.2281 27.4629 86.2281 23.4727C86.2281 22.624 86.1265 21.9526 85.9361 21.4206C85.7456 20.9012 85.4155 20.5085 84.9457 20.2678C84.4759 20.0271 83.8283 19.9005 82.9902 19.9005C82.5712 19.9005 82.2665 19.9131 82.0887 19.9511C81.911 19.9765 81.784 20.0652 81.7205 20.1792C81.657 20.2932 81.6189 20.5338 81.6062 20.9012C81.5808 21.2559 81.5681 21.5472 81.5427 21.7626L81.0856 28.6156ZM82.2411 13.2248C82.2411 13.6934 82.2284 14.0101 82.1903 14.2001C82.1903 14.5168 82.2538 14.7448 82.3935 14.8969C82.5204 15.0489 82.7998 15.1249 83.2061 15.1249C85.4662 15.1249 86.5963 13.1741 86.5963 9.2472C86.5963 8.25914 86.4185 7.5371 86.063 7.0684C85.7075 6.61238 85.0726 6.38436 84.1457 6.38436C83.7775 6.38436 83.5109 6.4097 83.3585 6.44771C83.1934 6.48571 83.0791 6.56171 83.0156 6.66305C82.9521 6.77706 82.8886 6.9924 82.8506 7.30909C82.8125 7.62577 82.7744 7.86645 82.749 8.04379L82.2411 13.2248ZM36.9241 25.1828C36.9241 23.954 37.2288 22.9406 37.8383 22.1046C38.4478 21.2812 39.3493 20.8632 40.5428 20.8632C41.5713 20.8632 42.3331 21.1925 42.8156 21.8766C43.2981 22.548 43.7934 23.536 44.2885 24.8534C45.4567 27.7796 47.0312 29.249 49.012 29.249C49.8627 29.249 50.5992 29.021 51.2086 28.5523C51.8181 28.0836 52.1229 27.4376 52.1229 26.6142C52.1229 25.7401 51.4499 24.7901 50.1167 23.7387C48.7834 22.7 47.4375 21.6739 46.0789 20.6605C44.7203 19.6471 43.5521 18.4564 42.5744 17.0503C41.584 15.6442 41.0888 13.9595 41.0888 11.958C41.0888 9.75389 41.6856 7.82844 42.8537 6.19435C44.0219 4.56026 45.5837 3.31885 47.5264 2.47014C49.4691 1.62142 51.5261 1.19074 53.6846 1.19074C54.5988 1.19074 55.602 1.33008 56.6812 1.58342C57.7605 1.84944 58.3192 1.98878 58.3573 1.98878C58.497 1.98878 58.8652 1.84944 59.4493 1.58342C60.046 1.33008 60.592 1.19074 61.0999 1.19074C61.9506 1.19074 62.776 1.55809 63.5505 2.30546C64.3251 3.05284 64.9345 3.95222 65.4043 5.01628C65.8614 6.06768 66.1027 7.00507 66.1027 7.82845C66.1027 8.87984 65.7599 9.80456 65.0742 10.5773C64.4012 11.3626 63.5378 11.7553 62.4966 11.7553C61.7348 11.7553 61.0872 11.5527 60.5413 11.1473C59.9953 10.7419 59.3731 10.1466 58.6874 9.34853C57.989 8.55048 57.3796 7.95512 56.859 7.53709C56.3384 7.13174 55.7289 6.92906 55.0305 6.92906C54.3957 6.92906 53.8751 7.09373 53.4688 7.44842C53.0625 7.79044 52.8593 8.27181 52.8593 8.87984C52.8593 9.63989 53.1133 10.2606 53.6212 10.7546C54.129 11.2613 54.8401 11.7427 55.7416 12.2114C57.9383 13.4021 59.6143 14.4028 60.7952 15.2135C61.976 16.0242 62.9791 17.0883 63.8045 18.3931C64.6298 19.6978 65.0361 21.3192 65.0361 23.2447C65.0361 25.1954 64.5917 26.9182 63.7029 28.413C62.8014 29.9077 61.6078 31.1364 60.1095 32.0992C58.6239 33.0745 56.9606 33.7966 55.1321 34.278C53.3037 34.772 51.488 35 49.6596 35C47.501 35 45.444 34.658 43.5013 33.9486C41.5459 33.2392 39.9715 32.1498 38.7525 30.6551C37.5336 29.211 36.9241 27.3742 36.9241 25.1828ZM19.8207 21.3319C20.4555 21.2812 20.8619 21.1799 21.0523 20.9899C21.2428 20.8125 21.3317 20.5212 21.3317 20.1285C21.3317 19.4824 21.2047 18.6464 20.9253 17.595C20.6587 16.5563 20.3413 15.6316 19.973 14.8335C19.6175 14.0355 19.3128 13.6301 19.0588 13.6301C18.716 13.6301 18.2589 14.1115 17.6875 15.0995C17.1161 16.0749 16.5955 17.1516 16.113 18.3297C15.6432 19.4951 15.402 20.2298 15.402 20.5338C15.402 20.9392 15.8718 21.2052 16.7987 21.3319H19.8207ZM14.4497 26.6649C13.3577 26.7535 12.6339 26.9435 12.2784 27.2475C11.9356 27.5642 11.7578 28.0456 11.7578 28.7043C11.7578 29.0843 12.0752 29.401 12.7101 29.6544C13.3323 29.9077 13.7767 30.1104 14.0307 30.2877C14.2846 30.4651 14.4116 30.9084 14.4116 31.6178C14.4116 32.2638 14.2338 32.8085 13.8529 33.2392C13.472 33.6826 12.6593 34.0373 11.415 34.316C10.1706 34.582 8.2914 34.734 5.79001 34.734C4.06317 34.734 2.67916 34.544 1.59989 34.1893C0.533303 33.8346 0 32.9986 0 31.6558C0 30.9844 0.114289 30.5284 0.330145 30.2877C0.546001 30.0471 0.926915 29.8317 1.4729 29.6544C2.01889 29.4897 2.50139 29.249 2.9331 28.983C3.36481 28.717 3.78385 28.2229 4.22826 27.4882C4.39332 27.2222 5.3456 25.6768 7.09784 22.852C8.86278 20.0145 10.2595 17.6963 11.288 15.8976C12.3165 14.0988 13.2561 12.2494 14.0941 10.3493C14.9322 8.43648 15.5289 6.65038 15.8972 4.96561C16.2273 3.47086 16.8114 2.48281 17.6494 1.97611C18.4875 1.46941 19.6937 1.21607 21.2809 1.21607C22.6395 1.21607 23.7949 1.45676 24.7218 1.92545C25.6615 2.39414 26.4233 3.07817 27.0328 3.96489C27.6296 4.86427 28.1755 5.96634 28.6453 7.28375C29.2421 8.93051 29.9659 11.578 30.8166 15.1882C31.68 18.7984 32.5689 22.7126 33.5085 26.9309C33.6989 27.7542 33.9529 28.3116 34.283 28.641C34.6004 28.9577 35.0068 29.211 35.502 29.401C36.0099 29.591 36.3527 29.7937 36.5685 30.0344C36.7717 30.2751 36.886 30.7437 36.886 31.4278C36.886 33.6192 34.0925 34.7213 28.5057 34.7213H27.109H25.8138C21.865 34.7213 19.8841 33.8219 19.8841 32.0232C19.8841 31.4151 20.0111 30.9844 20.2651 30.7058C20.519 30.4397 20.8999 30.1864 21.4205 29.9457C21.9411 29.7177 22.2967 29.5023 22.5252 29.3123C22.7411 29.1097 22.8427 28.7803 22.8427 28.3116C22.8427 27.8809 22.7538 27.5642 22.5506 27.3616C22.3601 27.1462 22.0935 27.0195 21.7634 26.9182C21.4332 26.8295 21.065 26.7409 20.6714 26.6395H14.4497V26.6649Z" fill="#193E6A"/>
</svg>
