<svg width="159" height="36" viewBox="0 0 159 36" fill="none" xmlns="http://www.w3.org/2000/svg">
<path d="M3.22065 5.74388C2.27799 5.74388 1.5046 5.46627 0.906388 4.90523C0.302129 4.34413 0 3.66236 0 2.84786C0 2.00915 0.302129 1.32732 0.906388 0.796471C1.5046 0.265547 2.27799 0 3.22065 0C4.18137 0 4.95483 0.265547 5.55305 0.796471C6.14514 1.32732 6.44727 2.00915 6.44727 2.84786C6.44727 3.69247 6.14514 4.39242 5.55305 4.93535C4.95483 5.47238 4.18137 5.74388 3.22065 5.74388ZM5.98206 26.7101H0.392811V8.60977H5.98206V26.7101Z" fill="white"/>
<path d="M9.77508 25.7539V20.0871C10.8073 20.951 11.9307 21.5974 13.139 22.0263C14.3473 22.4553 15.5679 22.6728 16.8005 22.6728C17.5291 22.6728 18.1607 22.6063 18.695 22.4795C19.2354 22.3466 19.6847 22.1713 20.0491 21.9357C20.4134 21.7061 20.6805 21.4344 20.8566 21.1262C21.0388 20.8121 21.1238 20.4738 21.1238 20.1052C21.1238 19.6098 20.9841 19.1689 20.6988 18.7822C20.4134 18.3894 20.0248 18.027 19.5329 17.7008C19.0411 17.3684 18.4582 17.0483 17.7781 16.7462C17.1041 16.4382 16.3754 16.124 15.5922 15.8038C13.6005 14.9822 12.1129 13.9733 11.1352 12.7771C10.1576 11.587 9.67188 10.1492 9.67188 8.46355C9.67188 7.14063 9.93296 6.00487 10.4673 5.05634C11.0016 4.10184 11.7303 3.32247 12.6472 2.70631C13.5702 2.09604 14.6327 1.64301 15.8411 1.35295C17.0494 1.06304 18.3306 0.917969 19.6847 0.917969C21.0145 0.917969 22.1925 1.00267 23.2187 1.15961C24.2388 1.31676 25.1861 1.56443 26.0544 1.89672V7.18885C25.6232 6.89289 25.1617 6.63305 24.6578 6.40963C24.1538 6.18599 23.6316 5.99883 23.0972 5.84779C22.569 5.7028 22.0346 5.594 21.5063 5.52146C20.9781 5.45497 20.4802 5.41878 20.0066 5.41878C19.3507 5.41878 18.7617 5.47915 18.2274 5.59996C17.6931 5.72697 17.2437 5.90205 16.8734 6.12569C16.509 6.34911 16.2236 6.61499 16.0172 6.92908C15.8168 7.24332 15.7197 7.59367 15.7197 7.98029C15.7197 8.40923 15.829 8.78979 16.0536 9.12216C16.2783 9.46043 16.6001 9.78064 17.0191 10.0827C17.432 10.3787 17.9359 10.6747 18.531 10.9648C19.12 11.2547 19.794 11.5507 20.5409 11.8589C21.561 12.2817 22.4718 12.7349 23.2855 13.212C24.0991 13.6893 24.7975 14.2331 25.3743 14.8312C25.9572 15.4353 26.4004 16.124 26.7101 16.8973C27.0198 17.6645 27.1716 18.5647 27.1716 19.5917C27.1716 21.0115 26.9044 22.1955 26.364 23.1621C25.8236 24.1227 25.095 24.9021 24.1659 25.4941C23.2429 26.0922 22.1682 26.5211 20.9416 26.7809C19.709 27.0407 18.4157 27.1676 17.0494 27.1676C15.6529 27.1676 14.323 27.0527 13.0601 26.8171C11.7971 26.5815 10.698 26.2251 9.77508 25.7539Z" fill="white"/>
<path d="M36.5259 24.6292H36.4533V35.0002H30.8555V8.72784H36.4533V11.4331H36.5259C37.9117 9.33961 39.8543 8.29004 42.3597 8.29004C44.7138 8.29004 46.5293 9.08771 47.8123 10.6893C49.0952 12.2847 49.7368 14.4622 49.7368 17.2153C49.7368 20.2145 48.9863 22.6198 47.4916 24.4372C45.9968 26.2547 44.0058 27.1605 41.5246 27.1605C39.3399 27.1605 37.6757 26.3207 36.5259 24.6292ZM36.3685 17.2514V18.6909C36.3685 19.9326 36.6953 20.9463 37.361 21.732C38.0207 22.5179 38.8921 22.9077 39.9693 22.9077C41.2401 22.9077 42.2326 22.4219 42.9346 21.4441C43.6366 20.4664 43.9937 19.0808 43.9937 17.2874C43.9937 14.1203 42.7531 12.5427 40.2658 12.5427C39.1221 12.5427 38.184 12.9686 37.4579 13.8324C36.7317 14.6962 36.3685 15.8358 36.3685 17.2514Z" fill="white"/>
<path d="M68.1568 26.7331H62.8155V24.1464H62.7424C61.5168 26.163 59.6998 27.1713 57.2913 27.1713C55.517 27.1713 54.1207 26.6792 53.1024 25.6888C52.0842 24.6985 51.5781 23.3723 51.5781 21.7217C51.5781 18.2288 53.6817 16.2122 57.8828 15.672L62.8521 15.0239C62.8521 13.0553 61.7668 12.0711 59.5962 12.0711C57.4194 12.0711 55.3463 12.7073 53.3829 13.9856V9.80243C54.1695 9.40026 55.2427 9.0522 56.6084 8.74603C57.9682 8.44008 59.212 8.29004 60.3339 8.29004C65.5471 8.29004 68.1568 10.8527 68.1568 15.9721V26.7331ZM62.8521 19.4171V18.2048L59.5291 18.6248C57.6938 18.8589 56.7792 19.6752 56.7792 21.0736C56.7792 21.7037 56.9986 22.2259 57.4437 22.628C57.895 23.0302 58.4986 23.2342 59.2608 23.2342C60.3217 23.2342 61.1815 22.874 61.8522 22.1539C62.5168 21.4337 62.8521 20.5215 62.8521 19.4171Z" fill="white"/>
<path d="M86.1155 26.085C84.8594 26.8112 83.0444 27.1713 80.6764 27.1713C77.9058 27.1713 75.6641 26.337 73.9512 24.6566C72.2383 22.9821 71.3789 20.8216 71.3789 18.1688C71.3789 15.1079 72.2985 12.7012 74.1315 10.9367C75.9706 9.17216 78.4287 8.29004 81.5058 8.29004C83.6273 8.29004 85.1659 8.57204 86.1155 9.13019V13.8475C84.9556 12.9773 83.6574 12.5451 82.227 12.5451C80.6283 12.5451 79.3662 13.0073 78.4287 13.9436C77.4971 14.8738 77.0283 16.1581 77.0283 17.8027C77.0283 19.3931 77.4791 20.6475 78.3686 21.5536C79.2581 22.4659 80.4901 22.9161 82.0467 22.9161C83.4351 22.9161 84.7873 22.4839 86.1155 21.6137V26.085Z" fill="white"/>
<path d="M105.918 19.3151H94.3155C94.4994 21.9259 96.1298 23.2342 99.1949 23.2342C101.151 23.2342 102.871 22.766 104.353 21.8297V25.8389C102.711 26.7272 100.576 27.1713 97.944 27.1713C95.0744 27.1713 92.8452 26.3671 91.2563 24.7526C89.6733 23.1441 88.8789 20.8935 88.8789 18.0127C88.8789 15.0239 89.7327 12.6532 91.452 10.9067C93.1654 9.16022 95.2701 8.29004 97.772 8.29004C100.363 8.29004 102.373 9.07022 103.79 10.6246C105.207 12.185 105.918 14.3037 105.918 16.9745V19.3151ZM100.831 15.9001C100.831 13.3254 99.7996 12.035 97.7364 12.035C96.859 12.035 96.0942 12.4011 95.4539 13.1393C94.8077 13.8776 94.4223 14.8018 94.28 15.9001H100.831Z" fill="white"/>
<path d="M144.102 2.79726C144.765 2.0217 145.094 1.01612 145.016 0C144.52 0.040998 144.038 0.18042 143.597 0.410063C143.156 0.639706 142.765 0.954933 142.448 1.3372C142.128 1.70249 141.888 2.12986 141.741 2.59242C141.595 3.05497 141.546 3.54271 141.598 4.02492C142.082 4.02376 142.559 3.91257 142.993 3.69982C143.427 3.48706 143.806 3.17836 144.102 2.79725" fill="white"/>
<path d="M148.65 12.66C148.377 13.5422 147.98 14.3816 147.472 15.1537C146.725 16.2356 145.94 17.2707 144.777 17.3015C143.583 17.3125 143.201 16.6301 141.867 16.6301C140.623 16.6301 140.202 17.2708 139.099 17.3125C137.953 17.3607 137.09 16.1983 136.334 15.112C134.841 12.9352 133.702 9.03955 135.226 6.46154C135.589 5.81582 136.114 5.27553 136.75 4.89398C137.386 4.51243 138.111 4.30279 138.853 4.28576C139.985 4.24963 141.045 5.03215 141.709 5.03215C142.345 5.03215 143.618 4.09066 145.005 4.22986C145.635 4.25359 146.25 4.42264 146.803 4.72372C147.357 5.0248 147.832 5.4497 148.193 5.965C147.629 6.29791 147.159 6.76739 146.826 7.32982C146.494 7.89225 146.309 8.5294 146.289 9.18208C146.289 9.93065 146.513 10.6622 146.934 11.2822C147.355 11.9021 147.953 12.3821 148.65 12.66" fill="white"/>
<path d="M117.599 0H116.199V34.9999H117.599V0Z" fill="white"/>
<path d="M128.579 27.1543L128.127 25.8213H126.248L125.796 27.1543H125L126.781 22.2222H127.608L129.389 27.1543H128.579ZM127.177 23.0425L126.442 25.2061H127.933L127.198 23.0425H127.177Z" fill="white"/>
<path d="M132.913 23.4424V27.1543H132.205V26.5186H132.191C131.976 26.9595 131.6 27.1953 131.033 27.1953C130.223 27.1953 129.73 26.6724 129.73 25.8213V23.4424H130.472V25.6812C130.472 26.252 130.742 26.5562 131.279 26.5562C131.833 26.5562 132.171 26.1699 132.171 25.582V23.4424H132.913Z" fill="white"/>
<path d="M133.894 22.6084H134.632V23.4424H135.343V24.0269H134.632V26.1016C134.632 26.4229 134.775 26.5732 135.086 26.5732C135.165 26.5732 135.292 26.563 135.339 26.5562V27.1406C135.257 27.1611 135.083 27.1782 134.922 27.1782C134.181 27.1782 133.894 26.8945 133.894 26.1768V24.0269H133.381V23.4424H133.894V22.6084Z" fill="white"/>
<path d="M135.999 27.1543V22H136.734V24.0679H136.751C136.973 23.6304 137.356 23.4014 137.923 23.4014C138.74 23.4014 139.229 23.9448 139.229 24.7822V27.1543H138.487V24.9258C138.487 24.3721 138.21 24.0371 137.667 24.0371C137.089 24.0371 136.741 24.4336 136.741 25.0283V27.1543H135.999Z" fill="white"/>
<path d="M141.563 27.1987C140.49 27.1987 139.807 26.4673 139.807 25.2983C139.807 24.1328 140.494 23.3945 141.563 23.3945C142.633 23.3945 143.317 24.1294 143.317 25.2983C143.317 26.4673 142.637 27.1987 141.563 27.1987ZM141.563 26.5835C142.192 26.5835 142.565 26.1084 142.565 25.2983C142.565 24.4883 142.192 24.0098 141.563 24.0098C140.935 24.0098 140.559 24.4917 140.559 25.2983C140.559 26.1084 140.935 26.5835 141.563 26.5835Z" fill="white"/>
<path d="M143.912 27.1543V23.4424H144.619V24.0679H144.633C144.749 23.6543 145.091 23.4048 145.528 23.4048C145.638 23.4048 145.73 23.415 145.788 23.4287V24.1226C145.727 24.0986 145.597 24.0781 145.45 24.0781C144.961 24.0781 144.653 24.4165 144.653 24.9395V27.1543H143.912Z" fill="white"/>
<path d="M146.291 27.1543V23.4424H147.032V27.1543H146.291ZM146.663 22.9126C146.424 22.9126 146.229 22.7212 146.229 22.4854C146.229 22.2427 146.424 22.0581 146.663 22.0581C146.902 22.0581 147.097 22.2427 147.097 22.4854C147.097 22.7212 146.902 22.9126 146.663 22.9126Z" fill="white"/>
<path d="M147.76 24.4985C147.76 23.8457 148.345 23.3979 149.199 23.3979C150.013 23.3979 150.601 23.856 150.618 24.502H149.92C149.89 24.1738 149.606 23.9688 149.182 23.9688C148.762 23.9688 148.481 24.1636 148.481 24.4575C148.481 24.6831 148.666 24.8369 149.059 24.9326L149.674 25.0796C150.423 25.2607 150.7 25.5308 150.7 26.0776C150.7 26.7407 150.071 27.1987 149.172 27.1987C148.307 27.1987 147.716 26.751 147.661 26.0811H148.393C148.451 26.4365 148.738 26.6313 149.209 26.6313C149.671 26.6313 149.961 26.4399 149.961 26.1392C149.961 25.9033 149.814 25.7803 149.425 25.6812L148.762 25.5171C148.092 25.353 147.76 25.0112 147.76 24.4985Z" fill="white"/>
<path d="M152.846 23.9995C152.313 23.9995 151.927 24.3892 151.886 24.96H153.769C153.752 24.3823 153.386 23.9995 152.846 23.9995ZM153.766 26.0674H154.473C154.367 26.7339 153.714 27.1987 152.88 27.1987C151.804 27.1987 151.134 26.4741 151.134 25.312C151.134 24.1499 151.811 23.3945 152.85 23.3945C153.868 23.3945 154.511 24.1021 154.511 25.2266V25.4863H151.882V25.5308C151.882 26.1733 152.286 26.5972 152.894 26.5972C153.325 26.5972 153.663 26.3921 153.766 26.0674Z" fill="white"/>
<path d="M156.507 27.1919C155.577 27.1919 154.941 26.4434 154.941 25.2949C154.941 24.1533 155.577 23.4048 156.5 23.4048C157.033 23.4048 157.457 23.6475 157.669 24.0576H157.686V22H158.424V27.1543H157.707V26.5254H157.693C157.474 26.9458 157.05 27.1919 156.507 27.1919ZM156.695 24.0337C156.097 24.0337 155.7 24.5327 155.7 25.2983C155.7 26.0674 156.093 26.563 156.695 26.563C157.29 26.563 157.689 26.0571 157.689 25.2983C157.689 24.543 157.29 24.0337 156.695 24.0337Z" fill="white"/>
<path d="M131.549 30.8647V32.6387H132.649C133.241 32.6387 133.583 32.314 133.583 31.75C133.583 31.1997 133.22 30.8647 132.629 30.8647H131.549ZM131.549 33.2573V35.1543H130.783V30.2222H132.721C133.736 30.2222 134.369 30.8101 134.369 31.7295C134.369 32.396 134.013 32.936 133.412 33.1377L134.519 35.1543H133.634L132.629 33.2573H131.549Z" fill="white"/>
<path d="M136.566 31.9995C136.033 31.9995 135.647 32.3892 135.606 32.96H137.489C137.472 32.3823 137.106 31.9995 136.566 31.9995ZM137.486 34.0674H138.193C138.087 34.7339 137.435 35.1987 136.601 35.1987C135.524 35.1987 134.854 34.4741 134.854 33.312C134.854 32.1499 135.531 31.3945 136.57 31.3945C137.588 31.3945 138.231 32.1021 138.231 33.2266V33.4863H135.603V33.5308C135.603 34.1733 136.006 34.5972 136.614 34.5972C137.045 34.5972 137.383 34.3921 137.486 34.0674Z" fill="white"/>
<path d="M138.768 32.4985C138.768 31.8457 139.352 31.3979 140.207 31.3979C141.02 31.3979 141.608 31.856 141.625 32.502H140.928C140.897 32.1738 140.613 31.9688 140.189 31.9688C139.769 31.9688 139.489 32.1636 139.489 32.4575C139.489 32.6831 139.673 32.8369 140.066 32.9326L140.682 33.0796C141.43 33.2607 141.707 33.5308 141.707 34.0776C141.707 34.7407 141.078 35.1987 140.179 35.1987C139.314 35.1987 138.723 34.751 138.668 34.0811H139.4C139.458 34.4365 139.745 34.6313 140.217 34.6313C140.678 34.6313 140.969 34.4399 140.969 34.1392C140.969 33.9033 140.822 33.7803 140.432 33.6812L139.769 33.5171C139.099 33.353 138.768 33.0112 138.768 32.4985Z" fill="white"/>
<path d="M143.854 31.9995C143.32 31.9995 142.934 32.3892 142.893 32.96H144.776C144.759 32.3823 144.394 31.9995 143.854 31.9995ZM144.773 34.0674H145.48C145.375 34.7339 144.722 35.1987 143.888 35.1987C142.811 35.1987 142.141 34.4741 142.141 33.312C142.141 32.1499 142.818 31.3945 143.857 31.3945C144.875 31.3945 145.518 32.1021 145.518 33.2266V33.4863H142.89V33.5308C142.89 34.1733 143.293 34.5972 143.901 34.5972C144.332 34.5972 144.67 34.3921 144.773 34.0674Z" fill="white"/>
<path d="M146.147 35.1543V30H146.889V35.1543H146.147Z" fill="white"/>
<path d="M147.712 35.1543V30H148.454V35.1543H147.712Z" fill="white"/>
<path d="M150.792 31.9995C150.259 31.9995 149.873 32.3892 149.832 32.96H151.715C151.698 32.3823 151.332 31.9995 150.792 31.9995ZM151.711 34.0674H152.419C152.313 34.7339 151.66 35.1987 150.826 35.1987C149.75 35.1987 149.08 34.4741 149.08 33.312C149.08 32.1499 149.756 31.3945 150.795 31.3945C151.814 31.3945 152.457 32.1021 152.457 33.2266V33.4863H149.828V33.5308C149.828 34.1733 150.231 34.5972 150.84 34.5972C151.271 34.5972 151.609 34.3921 151.711 34.0674Z" fill="white"/>
<path d="M153.055 35.1543V31.4424H153.762V32.0679H153.776C153.892 31.6543 154.234 31.4048 154.671 31.4048C154.781 31.4048 154.873 31.415 154.931 31.4287V32.1226C154.87 32.0986 154.74 32.0781 154.593 32.0781C154.104 32.0781 153.796 32.4165 153.796 32.9395V35.1543H153.055Z" fill="white"/>
</svg>
