<svg width="190" height="35" viewBox="0 0 190 35" fill="none"
  xmlns="http://www.w3.org/2000/svg">
  <path d="M190 34.9943H184.536V17.7808C184.536 11.147 179.144 5.7518 172.516 5.7518C165.887 5.7518 160.496 11.147 160.496 17.7808V34.9943H155.031V17.7808C155.031 8.13115 162.873 0.283203 172.516 0.283203C182.158 0.283203 190 8.13115 190 17.7808V34.9943Z" fill="#2397FF"/>
  <path d="M67.408 21.9429C65.6371 26.3834 61.3026 29.5265 56.2442 29.5265C49.6154 29.5265 44.2243 24.1313 44.2243 17.4976C44.2243 10.8638 49.6154 5.4686 56.2442 5.4686C61.3613 5.4686 65.7398 8.69003 67.4716 13.2088H73.1954C71.2777 5.63016 64.4042 0 56.2442 0C46.6018 0 38.7598 7.84795 38.7598 17.4976C38.7598 27.1472 46.6018 34.9951 56.2442 34.9951C64.3504 34.9951 71.1847 29.4433 73.1562 21.9429H67.408V21.9429Z" fill="#2397FF"/>
  <path d="M34.964 17.1069C34.7536 7.63839 26.9947 0.00585938 17.4844 0.00585938C7.84206 0.00585938 0 7.85381 0 17.5034C0 27.0012 7.60235 34.7562 17.0392 34.9961V35.001H29.5239H34.915H34.9688V17.1069H34.964ZM5.46449 17.4985C5.46449 10.8647 10.8556 5.46956 17.4844 5.46956C24.1132 5.46956 29.5044 10.8647 29.5044 17.4985C29.5044 24.1323 24.1132 29.5275 17.4844 29.5275C10.8556 29.5275 5.46449 24.1323 5.46449 17.4985Z" fill="#2397FF"/>
  <path d="M151.24 17.4976C151.24 7.84795 143.398 0 133.756 0C124.114 0 116.271 7.84795 116.271 17.4976C116.271 27.0003 123.884 34.7601 133.325 34.9902V34.9951H145.761H151.206V29.693V18.555C151.231 18.2074 151.24 17.8549 151.24 17.4976ZM121.736 17.4976C121.736 10.8638 127.127 5.4686 133.756 5.4686C140.253 5.4686 145.556 10.6532 145.766 17.1059H145.761V18.0899C145.453 24.4496 140.184 29.5265 133.756 29.5265C127.132 29.5265 121.736 24.1313 121.736 17.4976Z" fill="#2397FF"/>
  <path d="M112.484 17.5759C112.484 17.5514 112.484 17.522 112.484 17.4976C112.484 7.84795 104.642 0 95 0C85.3577 0 77.5156 7.84795 77.5156 17.4976C77.5156 27.1472 85.3577 34.9951 95 34.9951C103.106 34.9951 109.941 29.4433 111.912 21.9429H106.169C104.398 26.3834 100.063 29.5265 95.0049 29.5265C88.4006 29.5265 83.029 24.1705 82.985 17.5759H107.02H112.484V17.5759ZM95 5.4686C99.716 5.4686 103.806 8.20045 105.772 12.166H84.2276C86.1942 8.20045 90.284 5.4686 95 5.4686Z" fill="#2397FF"/>
  <path d="M17.5674 23.7438C20.9853 23.7438 23.756 20.971 23.756 17.5506C23.756 14.1302 20.9853 11.3574 17.5674 11.3574C14.1496 11.3574 11.3789 14.1302 11.3789 17.5506C11.3789 20.971 14.1496 23.7438 17.5674 23.7438Z" fill="#FD2D40"/>
</svg>
