<svg width="1753" height="300" viewBox="0 0 1753 300" fill="none" xmlns="http://www.w3.org/2000/svg">
<path d="M27.6056 49.2332C19.5256 49.2332 12.8966 46.8537 7.76904 42.0449C2.58968 37.2354 0 31.3916 0 24.4102C0 17.2213 2.58968 11.377 7.76904 6.82689C12.8966 2.27612 19.5256 0 27.6056 0C35.8403 0 42.47 2.27612 47.5975 6.82689C52.6726 11.377 55.2623 17.2213 55.2623 24.4102C55.2623 31.6497 52.6726 37.6493 47.5975 42.303C42.47 46.9061 35.8403 49.2332 27.6056 49.2332ZM51.2748 228.944H3.36695V73.798H51.2748V228.944Z" fill="white"/>
<path d="M83.7831 220.748V172.176C92.6311 179.58 102.26 185.121 112.617 188.798C122.974 192.474 133.436 194.339 144.001 194.339C150.246 194.339 155.659 193.769 160.239 192.682C164.871 191.542 168.723 190.041 171.846 188.021C174.968 186.053 177.258 183.724 178.768 181.082C180.329 178.39 181.058 175.49 181.058 172.331C181.058 168.085 179.861 164.305 177.415 160.991C174.968 157.624 171.638 154.518 167.422 151.722C163.206 148.873 158.21 146.129 152.38 143.54C146.603 140.899 140.357 138.206 133.644 135.461C116.572 128.42 103.821 119.772 95.4411 109.519C87.0618 99.318 82.8984 86.9937 82.8984 72.5452C82.8984 61.2059 85.1363 51.4708 89.7162 43.3406C94.2961 35.1591 100.542 28.4788 108.401 23.1974C116.312 17.9666 125.42 14.0834 135.778 11.5972C146.134 9.11225 157.116 7.8688 168.723 7.8688C180.121 7.8688 190.218 8.59486 199.014 9.94002C207.757 11.2871 215.877 13.4099 223.32 16.2581V61.6192C219.624 59.0824 215.669 56.8552 211.349 54.9402C207.029 53.0233 202.553 51.419 197.973 50.1244C193.445 48.8816 188.865 47.949 184.337 47.3273C179.809 46.7574 175.541 46.4472 171.481 46.4472C165.86 46.4472 160.812 46.9646 156.232 48.0002C151.652 49.0888 147.8 50.5895 144.626 52.5064C141.502 54.4215 139.056 56.7004 137.287 59.3926C135.569 62.0861 134.737 65.0891 134.737 68.403C134.737 72.0796 135.673 75.3416 137.599 78.1905C139.525 81.0899 142.284 83.8346 145.875 86.4238C149.414 88.9612 153.733 91.498 158.834 93.9842C163.883 96.4692 169.659 99.0065 176.061 101.648C184.805 105.272 192.612 109.157 199.586 113.247C206.56 117.338 212.546 121.998 217.491 127.125C222.487 132.303 226.286 138.206 228.94 144.834C231.595 151.41 232.896 159.126 232.896 167.929C232.896 180.099 230.606 190.248 225.974 198.533C221.342 206.766 215.097 213.447 207.133 218.521C199.222 223.648 190.01 227.324 179.496 229.551C168.931 231.778 157.845 232.865 146.134 232.865C134.164 232.865 122.766 231.881 111.94 229.861C101.115 227.842 91.6938 224.787 83.7831 220.748Z" fill="white"/>
<path d="M313.073 211.106H312.451V300H264.47V74.8086H312.451V97.9962H313.073C324.952 80.0524 341.603 71.0561 363.077 71.0561C383.256 71.0561 398.817 77.8932 409.814 91.6214C420.811 105.296 426.309 123.96 426.309 147.559C426.309 173.265 419.877 193.883 407.065 209.46C394.253 225.039 377.187 232.803 355.919 232.803C337.193 232.803 322.929 225.605 313.073 211.106ZM311.725 147.868V160.207C311.725 170.849 314.526 179.539 320.231 186.273C325.886 193.009 333.355 196.35 342.588 196.35C353.481 196.35 361.988 192.186 368.005 183.805C374.022 175.425 377.083 163.548 377.083 148.176C377.083 121.029 366.45 107.508 345.13 107.508C335.326 107.508 327.286 111.158 321.062 118.562C314.837 125.966 311.725 135.734 311.725 147.868Z" fill="white"/>
<path d="M584.201 229.14H538.418V206.968H537.791C527.286 224.253 511.712 232.896 491.068 232.896C475.86 232.896 463.891 228.677 455.163 220.188C446.435 211.7 442.098 200.332 442.098 186.185C442.098 156.246 460.128 138.961 496.137 134.33L538.732 128.775C538.732 111.901 529.429 103.465 510.824 103.465C492.166 103.465 474.396 108.918 457.567 119.876V84.0194C464.309 80.5722 473.508 77.5889 485.214 74.9646C496.869 72.3422 507.531 71.0561 517.147 71.0561C561.832 71.0561 584.201 93.0216 584.201 136.903V229.14ZM538.732 166.431V156.04L510.249 159.64C494.518 161.646 486.678 168.644 486.678 180.63C486.678 186.03 488.559 190.507 492.374 193.953C496.242 197.4 501.416 199.149 507.949 199.149C517.042 199.149 524.412 196.062 530.161 189.889C535.857 183.716 538.732 175.897 538.732 166.431Z" fill="white"/>
<path d="M738.151 223.585C727.385 229.809 711.827 232.896 691.531 232.896C667.782 232.896 648.568 225.745 633.886 211.341C619.204 196.988 611.838 178.469 611.838 155.731C611.838 129.495 619.72 108.866 635.431 93.7416C651.195 78.6171 672.264 71.0561 698.64 71.0561C716.824 71.0561 730.012 73.4732 738.151 78.2574V118.692C728.209 111.232 717.082 107.528 704.821 107.528C691.118 107.528 680.3 111.49 672.264 119.515C664.279 127.489 660.261 138.497 660.261 152.593C660.261 166.225 664.125 176.977 671.749 184.744C679.373 192.564 689.934 196.422 703.276 196.422C715.176 196.422 726.767 192.718 738.151 185.259V223.585Z" fill="white"/>
<path d="M907.884 165.557H808.433C810.009 187.935 823.984 199.149 850.256 199.149C867.026 199.149 881.764 195.136 894.468 187.11V221.475C880.391 229.089 862.097 232.896 839.534 232.896C814.938 232.896 795.83 226.003 782.211 212.164C768.643 198.377 761.833 179.085 761.833 154.393C761.833 128.775 769.151 108.454 783.888 93.4842C798.575 78.5148 816.615 71.0561 838.06 71.0561C860.267 71.0561 877.494 77.7433 889.64 91.067C901.785 104.442 907.884 122.601 907.884 145.494V165.557ZM864.282 136.285C864.282 114.216 855.439 103.155 837.755 103.155C830.234 103.155 823.679 106.294 818.19 112.621C812.651 118.949 809.348 126.871 808.128 136.285H864.282Z" fill="white"/>
<path d="M1008.37 0H997.884V300H1008.37V0Z" fill="white"/>
<path d="M1224.75 72.3869C1232.73 62.7301 1238.09 49.3211 1236.62 35.9725C1225.15 36.3949 1211.25 43.6108 1203.02 53.2431C1195.65 61.7832 1189.17 75.4386 1190.93 88.5121C1203.72 89.5092 1216.8 82.008 1224.75 72.3869ZM1284.08 203.252C1283.79 204.07 1279.29 219.628 1268.29 235.69C1258.78 249.593 1248.91 263.439 1233.37 263.723C1218.1 264.012 1213.19 254.661 1195.74 254.661C1178.27 254.661 1172.81 263.439 1158.37 264.012C1143.37 264.58 1131.94 248.99 1122.36 235.144C1102.77 206.825 1087.82 155.117 1107.91 120.245C1117.87 102.905 1135.73 91.9338 1155.09 91.6474C1169.84 91.3723 1183.73 101.552 1192.74 101.552C1201.75 101.552 1218.63 89.3005 1236.39 91.0973C1243.82 91.4143 1264.69 94.0926 1278.11 113.716C1277.03 114.392 1253.19 128.266 1253.45 157.114C1253.76 191.634 1283.73 203.116 1284.08 203.252Z" fill="white"/>
<path d="M1404.26 134.85L1399.48 120.05C1398.98 118.538 1398.03 114.978 1396.63 109.371H1396.46C1395.9 111.782 1395 115.343 1393.77 120.05L1389.07 134.85H1404.26ZM1420.84 158.412H1411.18L1405.88 141.84H1387.49L1382.45 158.412H1373.04L1391.27 101.817H1402.52L1420.84 158.412Z" fill="white"/>
<path d="M1461 158.41H1453.03L1452.53 152.197H1452.36C1449.5 156.941 1445.19 159.312 1439.43 159.312C1435.4 159.312 1432.18 158.055 1429.77 155.535C1426.92 152.457 1425.49 147.814 1425.49 141.604V117.598H1434.51V140.112C1434.51 147.952 1437.21 151.871 1442.61 151.871C1446.67 151.871 1449.48 149.913 1451.06 145.992C1451.45 144.985 1451.65 143.837 1451.65 142.548V117.598H1460.67V146.655C1460.67 150.517 1460.78 154.436 1461 158.41Z" fill="white"/>
<path d="M1492.74 124.353H1482.77V144.186C1482.77 149.228 1484.53 151.748 1488.05 151.748C1489.67 151.748 1491.01 151.617 1492.07 151.349L1492.32 158.189C1490.53 158.855 1488.18 159.189 1485.28 159.189C1481.7 159.189 1478.9 158.097 1476.89 155.917C1474.87 153.734 1473.87 150.069 1473.87 144.919V124.353H1467.89V117.588H1473.87V110.125L1482.77 107.441V117.588H1492.74V124.353Z" fill="white"/>
<path d="M1535.94 158.409H1526.92V135.217C1526.92 127.907 1524.17 124.25 1518.66 124.25C1514.45 124.25 1511.55 126.371 1509.98 130.612C1509.7 131.507 1509.56 132.596 1509.56 133.879V158.409H1500.54V98.8829H1509.56V123.402H1509.73C1512.59 119.007 1516.67 116.809 1522 116.809C1525.75 116.809 1528.86 118.04 1531.32 120.5C1534.4 123.575 1535.94 128.132 1535.94 134.17V158.409Z" fill="white"/>
<path d="M1574.75 137.914C1574.75 134.182 1573.94 130.977 1572.31 128.302C1570.41 125.072 1567.7 123.454 1564.17 123.454C1560.53 123.454 1557.76 125.072 1555.86 128.302C1554.24 130.977 1553.42 134.235 1553.42 138.081C1553.42 141.814 1554.24 145.019 1555.86 147.692C1557.82 150.926 1560.56 152.541 1564.08 152.541C1567.55 152.541 1570.27 150.898 1572.23 147.61C1573.91 144.88 1574.75 141.649 1574.75 137.914ZM1584.15 137.677C1584.15 143.937 1582.36 149.078 1578.78 153.101C1575.03 157.238 1570.04 159.305 1563.83 159.305C1557.84 159.305 1553.07 157.322 1549.52 153.352C1545.97 149.385 1544.19 144.382 1544.19 138.349C1544.19 132.034 1546.02 126.863 1549.69 122.839C1553.36 118.816 1558.29 116.802 1564.51 116.802C1570.5 116.802 1575.31 118.787 1578.94 122.755C1582.42 126.612 1584.15 131.585 1584.15 137.677Z" fill="white"/>
<path d="M1613.9 125.579C1613 125.441 1612.05 125.37 1611.03 125.37C1607.82 125.37 1605.35 126.574 1603.6 128.977C1602.08 131.1 1601.32 133.784 1601.32 137.025V158.403H1592.3V130.44C1592.3 125.737 1592.23 121.453 1592.08 117.591H1599.97L1600.31 125.411H1600.56C1601.51 122.737 1603.02 120.593 1605.09 118.977C1607.1 117.528 1609.29 116.802 1611.64 116.802C1612.48 116.802 1613.23 116.859 1613.9 116.97V125.579Z" fill="white"/>
<path d="M1630.22 158.408H1621.2V117.596H1630.22V158.408ZM1631.23 105.378C1631.23 107 1630.7 108.315 1629.63 109.323C1628.57 110.33 1627.21 110.832 1625.54 110.832C1624.03 110.832 1622.76 110.317 1621.73 109.281C1620.7 108.246 1620.18 106.947 1620.18 105.378C1620.18 103.814 1620.71 102.528 1621.77 101.521C1622.83 100.513 1624.14 100.008 1625.71 100.008C1627.27 100.008 1628.57 100.513 1629.63 101.521C1630.7 102.528 1631.23 103.814 1631.23 105.378Z" fill="white"/>
<path d="M1665.06 146.628C1665.06 150.425 1663.66 153.469 1660.86 155.759C1658.06 158.051 1654.2 159.192 1649.28 159.192C1644.63 159.192 1640.68 158.276 1637.44 156.437L1639.37 149.756C1642.52 151.612 1645.85 152.541 1649.39 152.541C1654.05 152.541 1656.38 150.84 1656.38 147.436C1656.38 145.929 1655.87 144.688 1654.86 143.711C1653.85 142.737 1652.06 141.772 1649.49 140.822C1642.21 138.145 1638.57 134.241 1638.57 129.105C1638.57 125.59 1639.9 122.662 1642.59 120.318C1645.27 117.976 1648.82 116.802 1653.23 116.802C1657.26 116.802 1660.7 117.611 1663.55 119.226L1661.61 125.664C1658.98 124.116 1656.21 123.341 1653.3 123.341C1651.39 123.341 1649.9 123.789 1648.84 124.681C1647.78 125.576 1647.25 126.72 1647.25 128.115C1647.25 129.512 1647.8 130.656 1648.93 131.55C1649.88 132.389 1651.73 133.31 1654.47 134.315C1661.53 136.996 1665.06 141.099 1665.06 146.628Z" fill="white"/>
<path d="M1698.62 133.731C1698.68 131.046 1698.09 128.724 1696.86 126.766C1695.28 124.246 1692.87 122.986 1689.62 122.986C1686.64 122.986 1684.23 124.217 1682.38 126.681C1680.86 128.64 1679.96 130.99 1679.68 133.731H1698.62ZM1707.3 136.083C1707.3 137.707 1707.19 139.076 1706.97 140.195H1679.68C1679.8 144.226 1681.12 147.303 1683.64 149.432C1685.94 151.333 1688.91 152.284 1692.56 152.284C1696.59 152.284 1700.26 151.642 1703.57 150.354L1705 156.672C1701.14 158.36 1696.58 159.202 1691.32 159.202C1684.99 159.202 1680.03 157.342 1676.42 153.616C1672.81 149.893 1671 144.895 1671 138.621C1671 132.463 1672.69 127.34 1676.04 123.251C1679.58 118.883 1684.33 116.699 1690.33 116.699C1696.21 116.699 1700.67 118.882 1703.69 123.245C1706.1 126.714 1707.3 130.993 1707.3 136.083Z" fill="white"/>
<path d="M1743.58 141.207V134.438C1743.58 133.268 1743.5 132.323 1743.33 131.597C1742.83 129.427 1741.74 127.602 1740.06 126.125C1738.38 124.649 1736.36 123.911 1734.01 123.911C1730.65 123.911 1728.01 125.249 1726.08 127.922C1724.15 130.597 1723.18 134.021 1723.18 138.199C1723.18 142.208 1724.1 145.466 1725.95 147.973C1727.91 150.647 1730.54 151.984 1733.84 151.984C1736.81 151.984 1739.19 150.87 1740.98 148.642C1742.72 146.58 1743.58 144.102 1743.58 141.207ZM1753 158.409H1744.94L1744.52 151.862H1744.27C1741.69 156.831 1737.33 159.311 1731.17 159.311C1726.25 159.311 1722.16 157.385 1718.92 153.528C1715.67 149.673 1714.05 144.67 1714.05 138.522C1714.05 131.927 1715.82 126.588 1719.36 122.509C1722.8 118.709 1727.02 116.809 1732.02 116.809C1737.54 116.809 1741.39 118.644 1743.58 122.312V98.8829H1752.6V147.41C1752.6 151.384 1752.73 155.053 1753 158.409Z" fill="white"/>
<path d="M1398.72 214.479C1398.72 208.1 1394.89 204.984 1387.44 204.954C1385.31 204.888 1383.17 205.087 1381.09 205.548V224.212H1387.26C1390.28 224.358 1393.24 223.374 1395.57 221.452C1396.6 220.581 1397.42 219.487 1397.96 218.254C1398.51 217.02 1398.77 215.679 1398.72 214.331V214.479ZM1409.81 254.092H1400.23C1398.63 249.821 1397.43 245.41 1396.64 240.918C1396.32 238.011 1395.1 235.275 1393.17 233.084C1392.25 232.25 1391.18 231.612 1390.01 231.208C1388.84 230.805 1387.6 230.646 1386.37 230.74H1380.94V254.122H1372.04V199.316C1376.81 198.535 1381.63 198.177 1386.46 198.248C1394 198.248 1399.55 199.643 1403.05 202.61C1404.68 203.902 1405.97 205.565 1406.82 207.46C1407.67 209.354 1408.06 211.426 1407.94 213.5C1407.98 216.793 1406.76 219.976 1404.53 222.402C1402.67 224.68 1400.2 226.387 1397.41 227.328V227.565C1401.24 228.93 1403.85 232.669 1405.42 238.603C1406.7 243.202 1407.38 246.437 1407.94 248.098C1408.33 250.143 1408.96 252.134 1409.81 254.033V254.092ZM1439.75 229.79C1439.89 227.381 1439.26 224.991 1437.94 222.966C1437.19 221.781 1436.13 220.821 1434.88 220.184C1433.62 219.547 1432.22 219.258 1430.82 219.346C1429.46 219.338 1428.12 219.657 1426.9 220.277C1425.69 220.897 1424.64 221.798 1423.85 222.906C1422.3 224.888 1421.37 227.283 1421.18 229.79H1439.75ZM1448.33 232.135C1448.26 233.469 1448.05 234.792 1447.71 236.081H1421C1420.92 237.794 1421.23 239.504 1421.9 241.082C1422.57 242.659 1423.59 244.064 1424.89 245.191C1427.34 247.159 1430.44 248.162 1433.58 248.009C1437.29 248.083 1440.99 247.459 1444.47 246.17L1445.81 252.401C1441.55 254.132 1436.99 254.97 1432.39 254.864C1429.71 255.008 1427.03 254.595 1424.52 253.65C1422.01 252.706 1419.72 251.25 1417.8 249.374C1415.97 247.377 1414.57 245.036 1413.66 242.489C1412.75 239.941 1412.36 237.238 1412.51 234.538C1412.29 229.084 1414.04 223.732 1417.44 219.464C1419.09 217.359 1421.22 215.675 1423.65 214.55C1426.08 213.426 1428.74 212.893 1431.42 212.996C1433.98 212.864 1436.53 213.39 1438.83 214.522C1441.13 215.654 1443.1 217.355 1444.56 219.464C1446.98 223.221 1448.23 227.609 1448.15 232.075L1448.33 232.135ZM1480.35 242.609C1480.38 244.303 1480.03 245.982 1479.33 247.523C1478.62 249.063 1477.58 250.426 1476.28 251.511C1473 253.9 1469 255.084 1464.95 254.864C1460.9 255.005 1456.89 254.074 1453.31 252.164L1455.21 245.547C1458.21 247.312 1461.64 248.225 1465.12 248.187C1469.57 248.187 1471.98 246.585 1471.98 243.321C1471.99 242.617 1471.85 241.919 1471.59 241.267C1471.32 240.615 1470.93 240.022 1470.44 239.523C1468.84 238.312 1467.04 237.388 1465.12 236.793C1458.03 234.093 1454.41 230.414 1454.41 225.31C1454.41 223.677 1454.75 222.061 1455.42 220.572C1456.09 219.083 1457.07 217.754 1458.3 216.675C1461.3 214.333 1465.03 213.134 1468.83 213.292C1472.35 213.186 1475.82 214.005 1478.92 215.666L1477.02 221.957C1474.55 220.529 1471.75 219.772 1468.89 219.761C1467.32 219.668 1465.76 220.142 1464.5 221.096C1464.01 221.507 1463.62 222.02 1463.34 222.599C1463.07 223.178 1462.93 223.81 1462.93 224.449C1462.94 225.097 1463.09 225.734 1463.38 226.315C1463.67 226.895 1464.08 227.403 1464.59 227.802C1466.21 229.006 1468.03 229.929 1469.96 230.532C1477.02 233.143 1480.38 237.12 1480.38 242.639L1480.35 242.609ZM1512.54 229.85C1512.6 227.449 1511.97 225.081 1510.73 223.025C1509.98 221.847 1508.92 220.891 1507.67 220.255C1506.43 219.619 1505.04 219.326 1503.64 219.405C1502.43 219.45 1501.25 219.801 1500.21 220.423C1499.18 221.046 1498.31 221.92 1497.7 222.966C1496.23 224.985 1495.32 227.361 1495.06 229.85H1512.69H1512.54ZM1521.03 232.194C1521 233.505 1520.9 234.814 1520.7 236.111H1494.92C1494.85 237.821 1495.17 239.524 1495.84 241.099C1496.52 242.673 1497.53 244.08 1498.8 245.22C1499.79 246.237 1500.99 247.018 1502.32 247.507C1503.65 247.995 1505.08 248.177 1506.49 248.039C1510.19 248.122 1513.88 247.498 1517.35 246.199L1518.74 252.431C1514.48 254.153 1509.92 254.991 1505.33 254.894C1502.81 254.969 1500.31 254.52 1497.97 253.575C1495.64 252.63 1493.53 251.209 1491.77 249.404C1489.94 247.413 1488.52 245.074 1487.61 242.525C1486.7 239.976 1486.3 237.27 1486.46 234.568C1486.24 229.121 1487.98 223.776 1491.35 219.494C1492.89 217.499 1494.85 215.88 1497.11 214.759C1499.36 213.638 1501.84 213.045 1504.35 213.025C1506.91 212.879 1509.46 213.398 1511.76 214.531C1514.06 215.665 1516.03 217.375 1517.47 219.494C1519.94 223.223 1521.19 227.633 1521.03 232.105V232.194ZM1538.18 195.607V253.974H1529.28V195.696H1538.18V195.607ZM1556.93 195.607V253.974H1547.58V195.696H1556.93V195.607ZM1592.54 229.731C1592.61 227.337 1592 224.972 1590.79 222.906C1590.03 221.726 1588.98 220.769 1587.73 220.132C1586.49 219.496 1585.09 219.204 1583.7 219.286C1582.31 219.286 1580.95 219.608 1579.71 220.226C1578.48 220.844 1577.4 221.741 1576.57 222.847C1575.05 224.839 1574.13 227.23 1573.93 229.731H1592.54ZM1600.46 232.075C1600.48 233.386 1600.4 234.697 1600.19 235.992H1573.93C1573.87 237.7 1574.18 239.401 1574.85 240.975C1575.52 242.549 1576.52 243.957 1577.79 245.102C1580.31 247.106 1583.48 248.11 1586.69 247.92C1590.37 248.004 1594.02 247.379 1597.46 246.081L1598.53 252.312C1594.43 254.065 1590 254.905 1585.54 254.775C1582.84 254.928 1580.14 254.52 1577.61 253.575C1575.09 252.629 1572.78 251.169 1570.85 249.285C1569.03 247.288 1567.63 244.946 1566.73 242.397C1565.83 239.848 1565.46 237.146 1565.63 234.449C1565.42 229.012 1567.13 223.675 1570.46 219.375C1572.12 217.265 1574.25 215.579 1576.69 214.454C1579.12 213.33 1581.79 212.799 1584.47 212.907C1587.03 212.773 1589.59 213.297 1591.9 214.429C1594.2 215.561 1596.18 217.264 1597.64 219.375C1599.61 223.288 1600.62 227.608 1600.61 231.986L1600.46 232.075ZM1630.04 221.66C1629.14 221.506 1628.23 221.416 1627.31 221.393C1625.91 221.311 1624.52 221.604 1623.26 222.24C1622.01 222.876 1620.95 223.833 1620.19 225.013C1618.6 227.319 1617.8 230.077 1617.91 232.876V253.855H1609.01V226.586C1609.01 222.075 1609.01 217.862 1608.74 214.034H1616.42L1616.84 221.63C1617.7 219.163 1619.24 216.991 1621.29 215.369C1623.14 214.032 1625.36 213.297 1627.64 213.263C1628.41 213.248 1629.17 213.308 1629.93 213.441V221.868L1630.04 221.66Z" fill="white"/>
</svg>
