<svg width="137" height="31" viewBox="0 0 137 31" fill="none" xmlns="http://www.w3.org/2000/svg">
<path d="M37.4709 12.3933V0.700448H41.8474C43.1726 0.700448 44.2305 1.03453 45.0212 1.70269C45.823 2.35971 46.2239 3.26173 46.2239 4.40874V4.44215C46.2239 5.65598 45.784 6.59697 44.9042 7.26513C44.0356 7.93329 42.9443 8.26737 41.6303 8.26737H38.7906V12.3933H37.4709ZM38.7906 7.06468H41.6804C42.6492 7.06468 43.4231 6.83083 44.0022 6.36311C44.5924 5.88426 44.8875 5.26065 44.8875 4.49226V4.45885C44.8875 3.64592 44.6036 3.02231 44.0356 2.588C43.4788 2.14256 42.716 1.91984 41.7472 1.91984H38.7906V7.06468Z" fill="#F5F5F5"/>
<path d="M49.798 12.3933V0.700448H54.8259C56.2625 0.700448 57.3705 1.09021 58.15 1.86973C58.7514 2.47107 59.052 3.23946 59.052 4.17489V4.20829C59.052 5.14372 58.7625 5.90654 58.1834 6.49675C57.6043 7.07582 56.836 7.44887 55.8783 7.61592L59.4696 12.3933H57.8493L54.4584 7.84977H51.1176V12.3933H49.798ZM51.1176 6.66379H54.709C55.5999 6.66379 56.3237 6.44663 56.8805 6.01233C57.4373 5.57802 57.7157 4.99338 57.7157 4.25841V4.225C57.7157 3.50116 57.454 2.93879 56.9306 2.53789C56.4072 2.12586 55.6722 1.91984 54.7257 1.91984H51.1176V6.66379Z" fill="#F5F5F5"/>
<path d="M63.0385 12.3933V0.700448H71.4908V1.90314H64.3582V5.8954H70.7391V7.09809H64.3582V11.1906H71.5743V12.3933H63.0385Z" fill="#F5F5F5"/>
<path d="M79.4072 12.5603C77.6031 12.5603 76.0107 11.9367 74.6298 10.6895L75.4483 9.72062C76.0719 10.2886 76.6956 10.7062 77.3192 10.9734C77.9539 11.2407 78.6666 11.3743 79.4573 11.3743C80.2368 11.3743 80.866 11.1906 81.3449 10.8231C81.8237 10.4445 82.0631 9.96562 82.0631 9.38654V9.35313C82.0631 8.7852 81.8515 8.33976 81.4284 8.01681C81.0052 7.68273 80.2034 7.38763 79.023 7.1315C77.6421 6.83083 76.6399 6.42993 76.0163 5.92881C75.4038 5.41655 75.0975 4.69271 75.0975 3.75729V3.72388C75.0975 2.81072 75.4595 2.05347 76.1833 1.45213C76.9183 0.839648 77.837 0.533408 78.9395 0.533408C79.7747 0.533408 80.5097 0.650336 81.1444 0.884193C81.7903 1.11805 82.425 1.47997 83.0487 1.96995L82.2803 2.9889C81.2446 2.14256 80.1199 1.71939 78.9061 1.71939C78.1488 1.71939 77.5419 1.89757 77.0853 2.25392C76.6399 2.61027 76.4172 3.06128 76.4172 3.60695V3.64036C76.4172 4.21943 76.6343 4.68157 77.0686 5.02679C77.5141 5.36087 78.3548 5.65598 79.5909 5.91211C80.9161 6.21278 81.8794 6.61924 82.4807 7.1315C83.0932 7.64376 83.3994 8.33976 83.3994 9.2195V9.25291C83.3994 10.244 83.0264 11.0458 82.2803 11.6583C81.5342 12.2596 80.5765 12.5603 79.4072 12.5603Z" fill="#F5F5F5"/>
<path d="M90.1129 12.3933V1.91984H86.1707V0.700448H95.3747V1.91984H91.4325V12.3933H90.1129Z" fill="#F5F5F5"/>
<path d="M99.06 12.3933V0.700448H100.38V12.3933H99.06Z" fill="#F5F5F5"/>
<path d="M110.402 12.5937C108.609 12.5937 107.167 12.0202 106.076 10.8732C104.996 9.72619 104.456 8.29521 104.456 6.58027V6.54686C104.456 4.89873 105.007 3.47888 106.109 2.28733C107.212 1.09578 108.615 0.5 110.319 0.5C111.254 0.5 112.056 0.628064 112.724 0.884193C113.403 1.14032 114.055 1.53008 114.679 2.05347L113.827 3.05572C112.824 2.16483 111.638 1.71939 110.269 1.71939C108.999 1.71939 107.941 2.18711 107.095 3.12253C106.249 4.05796 105.825 5.18826 105.825 6.51345V6.54686C105.825 7.96113 106.243 9.12485 107.078 10.038C107.925 10.9512 109.049 11.4077 110.452 11.4077C111.744 11.4077 112.869 11.018 113.827 10.2384V7.33195H110.269V6.14596H115.096V10.8064C113.782 11.9979 112.217 12.5937 110.402 12.5937Z" fill="#F5F5F5"/>
<path d="M119.359 12.3933V0.700448H120.678V12.3933H119.359Z" fill="#F5F5F5"/>
<path d="M134.994 10.8231C133.869 12.0035 132.438 12.5937 130.701 12.5937C128.964 12.5937 127.538 12.0091 126.425 10.8398C125.311 9.65937 124.754 8.23953 124.754 6.58027V6.54686C124.754 4.88759 125.317 3.46775 126.441 2.28733C127.566 1.09578 128.997 0.5 130.734 0.5C132.472 0.5 133.897 1.09021 135.011 2.27063C136.124 3.43991 136.681 4.85418 136.681 6.51345V6.54686C136.681 8.20612 136.119 9.63153 134.994 10.8231ZM127.427 9.97118C128.307 10.9066 129.409 11.3743 130.734 11.3743C132.06 11.3743 133.151 10.9122 134.008 9.98789C134.877 9.0636 135.311 7.92772 135.311 6.58027V6.54686C135.311 5.1994 134.871 4.05796 133.992 3.12253C133.123 2.18711 132.026 1.71939 130.701 1.71939C129.376 1.71939 128.279 2.18154 127.41 3.10583C126.553 4.03012 126.124 5.16599 126.124 6.51345V6.54686C126.124 7.89432 126.558 9.03576 127.427 9.97118Z" fill="#F5F5F5"/>
<path d="M37.4709 30.4375V18.7447H41.8474C43.1726 18.7447 44.2305 19.0787 45.0212 19.7469C45.823 20.4039 46.2239 21.3059 46.2239 22.4529V22.4864C46.2239 23.7002 45.784 24.6412 44.9042 25.3093C44.0356 25.9775 42.9443 26.3116 41.6303 26.3116H38.7906V30.4375H37.4709ZM38.7906 25.1089H41.6804C42.6492 25.1089 43.4231 24.875 44.0022 24.4073C44.5924 23.9285 44.8875 23.3049 44.8875 22.5365V22.5031C44.8875 21.6901 44.6036 21.0665 44.0356 20.6322C43.4788 20.1868 42.716 19.964 41.7472 19.964H38.7906V25.1089Z" fill="#EAC642"/>
<path d="M49.798 30.4375V18.7447H51.1176V29.2181H57.699V30.4375H49.798Z" fill="#EAC642"/>
<path d="M60.2419 30.4375L65.5705 18.6611H66.8066L72.1352 30.4375H70.7154L69.3456 27.3472H62.9814L61.595 30.4375H60.2419ZM63.4992 26.1612H68.8278L66.1719 20.1979L63.4992 26.1612Z" fill="#EAC642"/>
<path d="M75.0758 30.4375V29.5522L82.6427 19.9306H75.3263V18.7447H84.4467V19.63L76.8631 29.2515H84.4467V30.4375H75.0758Z" fill="#EAC642"/>
<path d="M87.3592 30.4375L92.6878 18.6611H93.9239L99.2525 30.4375H97.8326L96.4629 27.3472H90.0987L88.7122 30.4375H87.3592ZM90.6165 26.1612H95.9451L93.2891 20.1979L90.6165 26.1612Z" fill="#EAC642"/>
<path d="M9.60327 12.2529H16.6457V14.1736H9.60327V12.2529Z" fill="url(#paint0_linear_18246_6935)"/>
<path d="M9.60327 16.0947H16.6457V18.0154H9.60327V16.0947Z" fill="url(#paint1_linear_18246_6935)"/>
<path fill-rule="evenodd" clip-rule="evenodd" d="M1.92065 2.65014H16.3255C20.0382 2.65014 23.0478 5.65984 23.0478 9.37243C23.0478 12.9777 20.2097 15.9201 16.6457 16.0872V18.0096C21.2707 17.8412 24.9685 14.0386 24.9685 9.37243C24.9685 4.59909 21.0989 0.729492 16.3255 0.729492H1.92065H0V18.0154V30.4996H0.00187541L0.000234226 30.498L1.92065 28.5775V18.0154V16.0947V2.65014ZM5.76196 24.7362L3.8413 26.6569V18.0154V16.0947V14.1741V8.4121V4.5708H16.3255C18.9774 4.5708 21.1272 6.72059 21.1272 9.37243C21.1272 11.9167 19.1482 13.9988 16.6457 14.1636V12.2358C18.0861 12.0765 19.2065 10.8554 19.2065 9.37243C19.2065 7.78134 17.9167 6.49145 16.3255 6.49145H5.76196V7.45178V8.4121V12.2534V14.1741V16.0947V18.0154V24.7362ZM9.60326 20.8949L7.68261 22.8156V21.2164V18.0154V16.0947V14.1741V12.2534V10.3328V8.4121H9.60326H16.3255C16.8559 8.4121 17.2859 8.84209 17.2859 9.37243C17.2859 9.90276 16.8559 10.3328 16.3255 10.3328H10.8837H9.60326V11.9333V12.2534V14.1741V16.0947V18.0154V19.6159V20.8949Z" fill="#EAC642"/>
<defs>
<linearGradient id="paint0_linear_18246_6935" x1="16.6457" y1="12.2529" x2="9.60327" y2="12.2529" gradientUnits="userSpaceOnUse">
<stop stop-color="#EAC642"/>
<stop offset="1" stop-color="#EAC642" stop-opacity="0"/>
</linearGradient>
<linearGradient id="paint1_linear_18246_6935" x1="16.6457" y1="16.0947" x2="9.60327" y2="16.0947" gradientUnits="userSpaceOnUse">
<stop stop-color="#EAC642"/>
<stop offset="1" stop-color="#EAC642" stop-opacity="0"/>
</linearGradient>
</defs>
</svg>
