<svg width="109" height="36" viewBox="0 0 109 36" fill="none" xmlns="http://www.w3.org/2000/svg">
<path d="M3.31267 5.90799C2.34307 5.90799 1.54759 5.62245 0.932284 5.04538C0.310761 4.46825 0 3.767 0 2.92923C0 2.06655 0.310761 1.36524 0.932284 0.819227C1.54759 0.273134 2.34307 0 3.31267 0C4.30084 0 5.0964 0.273134 5.71171 0.819227C6.32072 1.36524 6.63148 2.06655 6.63148 2.92923C6.63148 3.79797 6.32072 4.51792 5.71171 5.07636C5.0964 5.62873 4.30084 5.90799 3.31267 5.90799ZM6.15297 27.4733H0.404034V8.85576H6.15297V27.4733Z" fill="white"/>
<path d="M10.0534 26.4899V20.6612C11.1152 21.5497 12.2706 22.2146 13.5135 22.6558C14.7563 23.097 16.0117 23.3207 17.2795 23.3207C18.029 23.3207 18.6786 23.2524 19.2282 23.1219C19.784 22.9852 20.2462 22.8049 20.621 22.5626C20.9957 22.3265 21.2705 22.0469 21.4516 21.7299C21.639 21.4069 21.7264 21.0589 21.7264 20.6797C21.7264 20.1702 21.5827 19.7167 21.2892 19.319C20.9957 18.915 20.596 18.5422 20.09 18.2067C19.5842 17.8648 18.9846 17.5355 18.2851 17.2248C17.5918 16.908 16.8424 16.5848 16.0367 16.2554C13.9881 15.4104 12.458 14.3727 11.4524 13.1423C10.4469 11.9182 9.94727 10.4393 9.94727 8.7055C9.94727 7.34479 10.2158 6.17658 10.7654 5.20095C11.315 4.21917 12.0645 3.41754 13.0076 2.78377C13.9569 2.15607 15.0499 1.69009 16.2928 1.39174C17.5356 1.09355 18.8534 0.944336 20.2462 0.944336C21.614 0.944336 22.8256 1.03146 23.8812 1.19288C24.9303 1.35453 25.9047 1.60927 26.7978 1.95106V7.39438C26.3544 7.08997 25.8797 6.82271 25.3614 6.5929C24.8429 6.36287 24.3059 6.17036 23.7562 6.01501C23.2128 5.86587 22.6633 5.75396 22.1198 5.67936C21.5765 5.61097 21.0644 5.57375 20.5772 5.57375C19.9027 5.57375 19.2968 5.63583 18.7472 5.7601C18.1977 5.89073 17.7355 6.07081 17.3545 6.30085C16.9797 6.53065 16.6862 6.80413 16.4739 7.1272C16.2678 7.45041 16.1679 7.81077 16.1679 8.20844C16.1679 8.64963 16.2803 9.04107 16.5113 9.38294C16.7424 9.73087 17.0735 10.0602 17.5044 10.3709C17.9291 10.6754 18.4475 10.9798 19.0595 11.2782C19.6654 11.5764 20.3586 11.8809 21.1268 12.1979C22.1761 12.6328 23.1129 13.0989 23.9498 13.5897C24.7867 14.0806 25.505 14.6399 26.0983 15.2551C26.6979 15.8765 27.1538 16.5848 27.4723 17.3802C27.7908 18.1693 27.947 19.0952 27.947 20.1516C27.947 21.6119 27.6722 22.8298 27.1164 23.824C26.5604 24.812 25.811 25.6137 24.8554 26.2226C23.9061 26.8378 22.8007 27.279 21.539 27.5463C20.2712 27.8134 18.9409 27.9439 17.5356 27.9439C16.0991 27.9439 14.7313 27.8258 13.4323 27.5834C12.1332 27.3411 11.0027 26.9745 10.0534 26.4899Z" fill="white"/>
<path d="M37.5687 25.3328H37.4941V36.0001H31.7363V8.97716H37.4941V11.7597H37.5687C38.9942 9.60642 40.9923 8.52686 43.5693 8.52686C45.9907 8.52686 47.858 9.34731 49.1776 10.9947C50.4972 12.6357 51.1571 14.8753 51.1571 17.7072C51.1571 20.792 50.3852 23.2661 48.8478 25.1354C47.3103 27.0048 45.2624 27.9365 42.7103 27.9365C40.4632 27.9365 38.7514 27.0727 37.5687 25.3328ZM37.4069 17.7443V19.2249C37.4069 20.502 37.7431 21.5448 38.4277 22.3529C39.1063 23.1612 40.0026 23.5622 41.1106 23.5622C42.4177 23.5622 43.4385 23.0625 44.1606 22.0567C44.8826 21.0511 45.2499 19.6259 45.2499 17.7812C45.2499 14.5237 43.9739 12.901 41.4156 12.901C40.2391 12.901 39.2743 13.3391 38.5274 14.2276C37.7804 15.116 37.4069 16.2882 37.4069 17.7443Z" fill="white"/>
<path d="M70.1031 27.4969H64.6093V24.8362H64.534C63.2734 26.9104 61.4045 27.9476 58.9272 27.9476C57.1022 27.9476 55.666 27.4414 54.6186 26.4227C53.5713 25.4042 53.0508 24.04 53.0508 22.3423C53.0508 18.7496 55.2144 16.6754 59.5356 16.1198L64.6469 15.4531C64.6469 13.4282 63.5305 12.4159 61.2979 12.4159C59.059 12.4159 56.9266 13.0703 54.9071 14.3852V10.0825C55.7162 9.66879 56.82 9.31079 58.2248 8.99588C59.6234 8.68118 60.9028 8.52686 62.0567 8.52686C67.4189 8.52686 70.1031 11.1627 70.1031 16.4284V27.4969ZM64.6469 19.9718V18.7249L61.2289 19.1569C59.3412 19.3977 58.4004 20.2373 58.4004 21.6757C58.4004 22.3237 58.6262 22.8609 59.084 23.2745C59.5481 23.6881 60.169 23.898 60.953 23.898C62.0442 23.898 62.9285 23.5275 63.6184 22.7868C64.3019 22.046 64.6469 21.1078 64.6469 19.9718Z" fill="white"/>
<path d="M88.5776 26.8303C87.2856 27.5772 85.4187 27.9476 82.9831 27.9476C80.1333 27.9476 77.8275 27.0895 76.0657 25.361C74.3039 23.6387 73.4199 21.4164 73.4199 18.6878C73.4199 15.5396 74.3658 13.0641 76.2512 11.2491C78.1428 9.43418 80.6711 8.52686 83.8362 8.52686C86.0183 8.52686 87.6008 8.81691 88.5776 9.39101V14.2431C87.3845 13.348 86.0492 12.9035 84.578 12.9035C82.9336 12.9035 81.6355 13.3789 80.6711 14.3419C79.7129 15.2988 79.2307 16.6197 79.2307 18.3113C79.2307 19.9471 79.6944 21.2374 80.6093 22.1694C81.5242 23.1078 82.7914 23.5708 84.3925 23.5708C85.8205 23.5708 87.2114 23.1263 88.5776 22.2312V26.8303Z" fill="white"/>
<path d="M108.946 19.8669H97.0119C97.201 22.5523 98.878 23.898 102.031 23.898C104.043 23.898 105.812 23.4164 107.336 22.4534V26.5771C105.647 27.4908 103.452 27.9476 100.744 27.9476C97.7925 27.9476 95.4996 27.1204 93.8653 25.4598C92.237 23.8053 91.4199 21.4904 91.4199 18.5273C91.4199 15.4531 92.2981 13.0146 94.0665 11.2182C95.8289 9.4219 97.9937 8.52686 100.567 8.52686C103.232 8.52686 105.299 9.32932 106.757 10.9282C108.214 12.5331 108.946 14.7123 108.946 17.4594V19.8669ZM103.714 16.3543C103.714 13.7061 102.653 12.3788 100.531 12.3788C99.628 12.3788 98.8414 12.7554 98.1827 13.5147C97.5181 14.274 97.1217 15.2246 96.9753 16.3543H103.714Z" fill="white"/>
</svg>
