<svg width="26" height="30" viewBox="0 0 26 30" fill="none" xmlns="http://www.w3.org/2000/svg">
<path d="M9.67773 11.6133H16.7745V13.5488H9.67773V11.6133Z" fill="url(#paint0_linear_18246_11597)"/>
<path d="M9.67773 15.4834H16.7745V17.4189H9.67773V15.4834Z" fill="url(#paint1_linear_18246_11597)"/>
<path fill-rule="evenodd" clip-rule="evenodd" d="M1.93548 1.93548H16.4516C20.193 1.93548 23.2258 4.96842 23.2258 8.70968C23.2258 12.3428 20.3657 15.3079 16.7742 15.4763V17.4135C21.4349 17.2438 25.1613 13.4119 25.1613 8.70968C25.1613 3.89948 21.2618 0 16.4516 0H1.93548H0V17.4194V30H0.00188989L0.000236035 29.9983L1.93548 28.0631V17.4194V15.4839V1.93548ZM5.80645 24.1921L3.87097 26.1276V17.4194V15.4839V13.5484V7.74194V3.87097H16.4516C19.1239 3.87097 21.2903 6.03736 21.2903 8.70968C21.2903 11.2736 19.2961 13.3718 16.7742 13.5378V11.5952C18.2258 11.4347 19.3548 10.2041 19.3548 8.70968C19.3548 7.1063 18.0551 5.80645 16.4516 5.80645H5.80645V6.77419V7.74194V11.6129V13.5484V15.4839V17.4194V24.1921ZM9.67742 20.3212L7.74194 22.2566V20.6452V17.4194V15.4839V13.5484V11.6129V9.67742V7.74194H9.67742H16.4516C16.986 7.74194 17.4194 8.17525 17.4194 8.70968C17.4194 9.24411 16.986 9.67742 16.4516 9.67742H10.9677H9.67742V11.2903V11.6129V13.5484V15.4839V17.4194V19.0323V20.3212Z" fill="#EAC642"/>
<defs>
<linearGradient id="paint0_linear_18246_11597" x1="16.7745" y1="11.6133" x2="9.67773" y2="11.6133" gradientUnits="userSpaceOnUse">
<stop stop-color="#EAC642"/>
<stop offset="1" stop-color="#EAC642" stop-opacity="0"/>
</linearGradient>
<linearGradient id="paint1_linear_18246_11597" x1="16.7745" y1="15.4834" x2="9.67773" y2="15.4834" gradientUnits="userSpaceOnUse">
<stop stop-color="#EAC642"/>
<stop offset="1" stop-color="#EAC642" stop-opacity="0"/>
</linearGradient>
</defs>
</svg>
