<svg width="72" height="71" viewBox="0 0 72 71" fill="none" xmlns="http://www.w3.org/2000/svg">
<path d="M71.4001 34.7004C70.9705 15.4929 55.126 0.00976562 35.705 0.00976562C16.0143 0.00976562 0 15.9299 0 35.5048C0 54.7718 15.5248 70.5033 34.7959 70.9899V70.9998H71.4101V34.7004H71.4001ZM11.1591 35.4949C11.1591 22.0377 22.1683 11.0933 35.705 11.0933C49.2418 11.0933 60.251 22.0377 60.251 35.4949C60.251 48.952 49.2418 59.8965 35.705 59.8965C22.1683 59.8965 11.1591 48.952 11.1591 35.4949Z" fill="#2397FF"/>
<path d="M35.8749 48.1676C42.8545 48.1676 48.5126 42.5428 48.5126 35.6043C48.5126 28.6658 42.8545 23.041 35.8749 23.041C28.8954 23.041 23.2373 28.6658 23.2373 35.6043C23.2373 42.5428 28.8954 48.1676 35.8749 48.1676Z" fill="#2397FF"/>
</svg>
