<svg width="20" height="20" viewBox="0 0 20 20" fill="none"
  xmlns="http://www.w3.org/2000/svg">
  <g id="Component 18">
    <path id="Vector" fill-rule="evenodd" clip-rule="evenodd" d="M10.6723 12.4029C10.9821 12.3741 11.1804 12.3167 11.2733 12.209C11.3663 12.1085 11.4096 11.9433 11.4096 11.7207C11.4096 11.3545 11.3477 10.8806 11.2114 10.2846C11.0812 9.69577 10.9263 9.17158 10.7466 8.7192C10.5732 8.26682 10.4244 8.03704 10.3005 8.03704C10.1332 8.03704 9.91016 8.3099 9.63134 8.86999C9.35251 9.4229 9.09845 10.0333 8.86299 10.7011C8.63373 11.3617 8.51601 11.7782 8.51601 11.9505C8.51601 12.1803 8.74527 12.3311 9.19759 12.4029H10.6723ZM8.05129 15.4259C7.51842 15.4762 7.16524 15.5839 6.99174 15.7562C6.82445 15.9358 6.7377 16.2086 6.7377 16.582C6.7377 16.7974 6.8926 16.977 7.20241 17.1206C7.50603 17.2642 7.7229 17.3791 7.84682 17.4796C7.97075 17.5801 8.0327 17.8314 8.0327 18.2336C8.0327 18.5998 7.94595 18.9085 7.76007 19.1527C7.57418 19.404 7.17763 19.6051 6.57041 19.763C5.96318 19.9138 5.04612 20 3.82547 20C2.98279 20 2.30741 19.8923 1.78073 19.6912C1.26025 19.4902 1 19.0163 1 18.2551C1 17.8745 1.05577 17.616 1.16111 17.4796C1.26644 17.3432 1.45233 17.2211 1.71876 17.1206C1.9852 17.0272 2.22065 16.8908 2.43132 16.74C2.64199 16.5892 2.84648 16.3091 3.06335 15.8927C3.1439 15.7419 3.6086 14.8658 4.46368 13.2645C5.32495 11.6561 6.00655 10.342 6.50844 9.32238C7.01033 8.30272 7.46885 7.25435 7.8778 6.17725C8.28675 5.09297 8.57798 4.0805 8.75767 3.12547C8.91877 2.27815 9.2038 1.71806 9.61275 1.43084C10.0217 1.14361 10.6103 1 11.3849 1C12.0478 1 12.6117 1.13644 13.064 1.40212C13.5225 1.6678 13.8943 2.05555 14.1917 2.5582C14.483 3.06803 14.7494 3.69274 14.9786 4.43953C15.2699 5.37302 15.6231 6.87377 16.0382 8.92026C16.4596 10.9667 16.8933 13.1856 17.3518 15.5767C17.4447 16.0435 17.5687 16.3594 17.7298 16.5461C17.8847 16.7256 18.083 16.8692 18.3246 16.977C18.5725 17.0847 18.7398 17.1996 18.8451 17.336C18.9442 17.4724 19 17.7381 19 18.1259C19 19.3681 17.6368 19.9928 14.9105 19.9928H14.2289H13.5969C11.6699 19.9928 10.7033 19.483 10.7033 18.4633C10.7033 18.1187 10.7652 17.8745 10.8892 17.7166C11.0131 17.5658 11.199 17.4221 11.453 17.2857C11.707 17.1565 11.8806 17.0344 11.9921 16.9267C12.0974 16.8118 12.147 16.6251 12.147 16.3594C12.147 16.1153 12.1036 15.9358 12.0045 15.8209C11.9115 15.6988 11.7814 15.627 11.6203 15.5695C11.4592 15.5193 11.2795 15.469 11.0874 15.4116H8.05129V15.4259Z" fill="#1C4D88"/>
  </g>
</svg>
