<svg width="150" height="41" viewBox="0 0 150 41" fill="none" xmlns="http://www.w3.org/2000/svg">
<path d="M49.8818 22.3012V10.6084H54.2583C55.5835 10.6084 56.6414 10.9425 57.4321 11.6106C58.2338 12.2677 58.6347 13.1697 58.6347 14.3167V14.3501C58.6347 15.5639 58.1949 16.5049 57.3151 17.1731C56.4465 17.8413 55.3552 18.1753 54.0411 18.1753H51.2015V22.3012H49.8818ZM51.2015 16.9726H54.0913C55.0601 16.9726 55.834 16.7388 56.4131 16.2711C57.0033 15.7922 57.2984 15.1686 57.2984 14.4002V14.3668C57.2984 13.5539 57.0145 12.9303 56.4465 12.496C55.8897 12.0505 55.1269 11.8278 54.1581 11.8278H51.2015V16.9726Z" fill="#F5F5F5"/>
<path d="M62.2089 22.3012V10.6084H67.2368C68.6733 10.6084 69.7814 10.9982 70.5609 11.7777C71.1622 12.379 71.4629 13.1474 71.4629 14.0828V14.1163C71.4629 15.0517 71.1734 15.8145 70.5943 16.4047C70.0152 16.9838 69.2468 17.3568 68.2892 17.5239L71.8805 22.3012H70.2602L66.8693 17.7577H63.5285V22.3012H62.2089ZM63.5285 16.5717H67.1199C68.0107 16.5717 68.7346 16.3546 69.2914 15.9203C69.8482 15.486 70.1266 14.9013 70.1266 14.1664V14.133C70.1266 13.4091 69.8649 12.8467 69.3415 12.4459C68.8181 12.0338 68.0831 11.8278 67.1366 11.8278H63.5285V16.5717Z" fill="#F5F5F5"/>
<path d="M75.4494 22.3012V10.6084H83.9017V11.8111H76.7691V15.8034H83.15V17.006H76.7691V21.0985H83.9852V22.3012H75.4494Z" fill="#F5F5F5"/>
<path d="M91.8181 22.4683C90.014 22.4683 88.4216 21.8446 87.0407 20.5974L87.8592 19.6286C88.4828 20.1965 89.1065 20.6141 89.7301 20.8814C90.3648 21.1486 91.0775 21.2823 91.8682 21.2823C92.6477 21.2823 93.2769 21.0985 93.7557 20.731C94.2346 20.3524 94.474 19.8736 94.474 19.2945V19.2611C94.474 18.6932 94.2624 18.2477 93.8393 17.9248C93.4161 17.5907 92.6143 17.2956 91.4339 17.0395C90.053 16.7388 89.0508 16.3379 88.4272 15.8368C87.8147 15.3245 87.5084 14.6007 87.5084 13.6652V13.6318C87.5084 12.7187 87.8704 11.9614 88.5942 11.3601C89.3292 10.7476 90.2479 10.4414 91.3504 10.4414C92.1856 10.4414 92.9205 10.5583 93.5553 10.7922C94.2012 11.026 94.8359 11.3879 95.4596 11.8779L94.6912 12.8969C93.6555 12.0505 92.5308 11.6274 91.317 11.6274C90.5597 11.6274 89.9528 11.8055 89.4962 12.1619C89.0508 12.5182 88.8281 12.9692 88.8281 13.5149V13.5483C88.8281 14.1274 89.0452 14.5895 89.4795 14.9348C89.925 15.2688 90.7657 15.5639 92.0018 15.8201C93.327 16.1207 94.2903 16.5272 94.8916 17.0395C95.5041 17.5517 95.8103 18.2477 95.8103 19.1275V19.1609C95.8103 20.152 95.4373 20.9538 94.6912 21.5662C93.9451 22.1676 92.9874 22.4683 91.8181 22.4683Z" fill="#F5F5F5"/>
<path d="M102.524 22.3012V11.8278H98.5816V10.6084H107.786V11.8278H103.843V22.3012H102.524Z" fill="#F5F5F5"/>
<path d="M111.471 22.3012V10.6084H112.791V22.3012H111.471Z" fill="#F5F5F5"/>
<path d="M122.813 22.5017C121.02 22.5017 119.578 21.9282 118.487 20.7812C117.407 19.6341 116.867 18.2032 116.867 16.4882V16.4548C116.867 14.8067 117.418 13.3868 118.52 12.1953C119.623 11.0037 121.026 10.408 122.73 10.408C123.665 10.408 124.467 10.536 125.135 10.7922C125.814 11.0483 126.466 11.438 127.089 11.9614L126.238 12.9637C125.235 12.0728 124.049 11.6274 122.68 11.6274C121.41 11.6274 120.352 12.0951 119.506 13.0305C118.659 13.9659 118.236 15.0962 118.236 16.4214V16.4548C118.236 17.8691 118.654 19.0328 119.489 19.946C120.335 20.8591 121.46 21.3157 122.863 21.3157C124.155 21.3157 125.28 20.9259 126.238 20.1464V17.2399H122.68V16.0539H127.507V20.7143C126.193 21.9059 124.628 22.5017 122.813 22.5017Z" fill="#F5F5F5"/>
<path d="M131.77 22.3012V10.6084H133.089V22.3012H131.77Z" fill="#F5F5F5"/>
<path d="M147.405 20.731C146.28 21.9115 144.849 22.5017 143.112 22.5017C141.375 22.5017 139.949 21.917 138.836 20.7478C137.722 19.5673 137.165 18.1475 137.165 16.4882V16.4548C137.165 14.7955 137.728 13.3757 138.852 12.1953C139.977 11.0037 141.408 10.408 143.145 10.408C144.882 10.408 146.308 10.9982 147.421 12.1786C148.535 13.3479 149.092 14.7621 149.092 16.4214V16.4548C149.092 18.1141 148.53 19.5395 147.405 20.731ZM139.838 19.8791C140.718 20.8146 141.82 21.2823 143.145 21.2823C144.47 21.2823 145.562 20.8201 146.419 19.8958C147.288 18.9716 147.722 17.8357 147.722 16.4882V16.4548C147.722 15.1074 147.282 13.9659 146.403 13.0305C145.534 12.0951 144.437 11.6274 143.112 11.6274C141.787 11.6274 140.69 12.0895 139.821 13.0138C138.964 13.9381 138.535 15.074 138.535 16.4214V16.4548C138.535 17.8023 138.969 18.9437 139.838 19.8791Z" fill="#F5F5F5"/>
<path d="M49.8818 40.3452V28.6524H54.2583C55.5835 28.6524 56.6414 28.9864 57.4321 29.6546C58.2338 30.3116 58.6347 31.2137 58.6347 32.3607V32.3941C58.6347 33.6079 58.1949 34.5489 57.3151 35.2171C56.4465 35.8852 55.3552 36.2193 54.0411 36.2193H51.2015V40.3452H49.8818ZM51.2015 35.0166H54.0913C55.0601 35.0166 55.834 34.7827 56.4131 34.315C57.0033 33.8362 57.2984 33.2126 57.2984 32.4442V32.4108C57.2984 31.5978 57.0145 30.9742 56.4465 30.5399C55.8897 30.0945 55.1269 29.8718 54.1581 29.8718H51.2015V35.0166Z" fill="#EAC642"/>
<path d="M62.2089 40.3452V28.6524H63.5285V39.1258H70.1099V40.3452H62.2089Z" fill="#EAC642"/>
<path d="M72.6528 40.3452L77.9814 28.5688H79.2175L84.5461 40.3452H83.1262L81.7565 37.2549H75.3923L74.0058 40.3452H72.6528ZM75.9101 36.069H81.2387L78.5827 30.1056L75.9101 36.069Z" fill="#EAC642"/>
<path d="M87.4866 40.3452V39.4599L95.0536 29.8384H87.7372V28.6524H96.8576V29.5377L89.274 39.1592H96.8576V40.3452H87.4866Z" fill="#EAC642"/>
<path d="M99.7701 40.3452L105.099 28.5688H106.335L111.663 40.3452H110.244L108.874 37.2549H102.51L101.123 40.3452H99.7701ZM103.027 36.069H108.356L105.7 30.1056L103.027 36.069Z" fill="#EAC642"/>
<path d="M22.0146 22.1616H29.057V24.0823H22.0146V22.1616Z" fill="url(#paint0_linear_21778_236789)"/>
<path d="M22.0146 26.0029H29.057V27.9236H22.0146V26.0029Z" fill="url(#paint1_linear_21778_236789)"/>
<path fill-rule="evenodd" clip-rule="evenodd" d="M14.3318 12.5585H28.7367C32.4493 12.5585 35.459 15.5682 35.459 19.2808C35.459 22.886 32.6208 25.8284 29.0568 25.9955V27.9179C33.6818 27.7495 37.3796 23.9469 37.3796 19.2808C37.3796 14.5074 33.51 10.6378 28.7367 10.6378H14.3318H12.4111V27.9237V40.4079H12.413L12.4114 40.4063L14.3318 38.4859V27.9237V26.003V12.5585ZM18.1731 34.6446L16.2524 36.5652V27.9237V26.003V24.0824V18.3204V14.4791H28.7367C31.3885 14.4791 33.5383 16.6289 33.5383 19.2808C33.5383 21.8251 31.5594 23.9072 29.0568 24.0719V22.1441C30.4973 21.9849 31.6177 20.7637 31.6177 19.2808C31.6177 17.6897 30.3278 16.3998 28.7367 16.3998H18.1731V17.3601V18.3204V22.1617V24.0824V26.003V27.9237V34.6446ZM22.0144 30.8033L20.0937 32.7239V31.1248V27.9237V26.003V24.0824V22.1617V20.2411V18.3204H22.0144H28.7367C29.267 18.3204 29.697 18.7504 29.697 19.2808C29.697 19.8111 29.267 20.2411 28.7367 20.2411H23.2948H22.0144V21.8416V22.1617V24.0824V26.003V27.9237V29.5242V30.8033Z" fill="#EAC642"/>
<g clip-path="url(#clip0_21778_236789)">
<path fill-rule="evenodd" clip-rule="evenodd" d="M8.11113 15.2539C8.18008 15.3666 8.2551 15.4784 8.33634 15.5894L8.33637 15.5893C10.4502 18.4825 11.2542 24.0692 9.99714 25.91L9.99747 25.9105C10.0011 25.9054 10.0047 25.9004 10.0084 25.8953C10.0284 25.8675 10.0485 25.8395 10.0679 25.811C10.0682 25.8104 10.0686 25.8099 10.0689 25.8094C11.4351 23.869 12.4473 21.286 12.0934 18.981C12.0651 18.8008 12.0299 18.6182 11.984 18.437C11.3191 15.7863 12.5477 15.2316 14.2785 14.4502C15.0029 14.1231 15.8152 13.7564 16.6134 13.1797C20.9752 10.0283 23.8126 8.52317 23.8126 8.52317C23.8126 8.52317 23.4212 8.08363 22.7335 7.46129C21.4206 6.26985 19.0272 4.41147 16.2133 3.67945C14.6542 3.27276 14.0789 4.4754 13.3929 5.90934C12.9071 6.92491 12.3658 8.0565 11.3802 8.81459C11.0828 9.0441 10.7439 9.23848 10.3545 9.3855C9.90264 9.55583 9.49841 9.77523 9.14343 10.0361C7.58085 11.1826 7.0134 13.0989 7.91659 14.9019L7.91692 14.9025C7.91692 14.9025 7.91692 14.9025 7.91692 14.9025C7.97529 15.0204 8.03998 15.1376 8.11113 15.2539Z" fill="url(#paint2_linear_21778_236789)"/>
<path d="M10.9806 14.7179C16.7245 12.7674 20.6293 7.23587 22.7548 7.46303C22.7548 7.46303 24.9017 8.9212 25.5377 10.285C25.5377 10.285 19.9974 16.2356 11.9841 18.4383C11.9841 18.4383 9.52035 15.2137 10.9806 14.7179Z" fill="white"/>
<path d="M10.9675 25.4258C10.7169 24.9137 10.0793 24.7158 9.54325 24.9839C9.00722 25.2519 8.77579 25.8844 9.02633 26.3966C9.27688 26.9088 9.91452 27.1067 10.4505 26.8386C10.9866 26.5705 11.218 25.938 10.9675 25.4258Z" fill="white"/>
</g>
<defs>
<linearGradient id="paint0_linear_21778_236789" x1="29.057" y1="22.1616" x2="22.0146" y2="22.1616" gradientUnits="userSpaceOnUse">
<stop stop-color="#EAC642"/>
<stop offset="1" stop-color="#EAC642" stop-opacity="0"/>
</linearGradient>
<linearGradient id="paint1_linear_21778_236789" x1="29.057" y1="26.0029" x2="22.0146" y2="26.0029" gradientUnits="userSpaceOnUse">
<stop stop-color="#EAC642"/>
<stop offset="1" stop-color="#EAC642" stop-opacity="0"/>
</linearGradient>
<linearGradient id="paint2_linear_21778_236789" x1="10.396" y1="6.51739" x2="18.8993" y2="20.495" gradientUnits="userSpaceOnUse">
<stop stop-color="#A50F26"/>
<stop offset="1" stop-color="#ED1536"/>
</linearGradient>
<clipPath id="clip0_21778_236789">
<rect width="22.5002" height="17.3924" fill="white" transform="translate(0.566895 12.4974) rotate(-31.3143)"/>
</clipPath>
</defs>
</svg>
