<svg width="408" height="360" viewBox="0 0 408 360" fill="none"
  xmlns="http://www.w3.org/2000/svg">
  <path d="M290.504 214.011C288.756 137.203 224.29 75.2871 145.272 75.2871C65.157 75.2871 0 138.95 0 217.228C0 294.275 63.1653 357.183 141.573 359.129V359.169H245.304H290.097H290.544V214.011H290.504ZM45.4026 217.188C45.4026 163.375 90.1955 119.609 145.272 119.609C200.349 119.609 245.142 163.375 245.142 217.188C245.142 271.002 200.349 314.768 145.272 314.768C90.1955 314.768 45.4026 271.002 45.4026 217.188Z" fill="#2397FF"/>
  <path d="M145.981 267.922C174.378 267.922 197.399 245.429 197.399 217.683C197.399 189.936 174.378 167.443 145.981 167.443C117.583 167.443 94.5625 189.936 94.5625 217.683C94.5625 245.429 117.583 267.922 145.981 267.922Z" fill="#FD2D40"/>
  <path d="M114.281 41.6663C136.002 13.4569 175.014 2.82624 207.953 0.244494C225.422 -1.12231 241.32 3.54761 258.218 6.66089C276.259 9.964 293.3 18.3547 308.305 29.365C332.205 46.8677 353.676 69.9895 367.894 96.9839C374.289 109.133 382.256 125.725 381.577 140.076C381.041 151.732 378.29 170.639 370.216 178.878C368.966 180.169 367.287 181.346 365.608 180.853C362.821 180.017 362.821 175.955 363.107 172.917C364.286 160.199 360.356 150.403 351.854 141.899C345.959 136.052 337.814 132.369 329.668 133.508C319.844 134.875 317.379 143.873 313.128 152.264C308.662 161.186 302.982 169.387 296.301 176.562" fill="#EF1245"/>
  <path d="M365.709 234.588C388.559 234.588 407.083 215.082 407.083 191.021C407.083 166.96 388.559 147.455 365.709 147.455C342.859 147.455 324.336 166.96 324.336 191.021C324.336 215.082 342.859 234.588 365.709 234.588Z" fill="white"/>
  <path fill-rule="evenodd" clip-rule="evenodd" d="M400.512 184.406C400.512 208.467 381.988 227.972 359.138 227.972C349.686 227.972 340.974 224.634 334.008 219.017C341.597 228.536 352.982 234.588 365.71 234.588C388.56 234.588 407.083 215.083 407.083 191.022C407.083 176.914 400.715 164.372 390.84 156.41C396.877 163.981 400.512 173.747 400.512 184.406Z" fill="#196AB3" fill-opacity="0.3" style="mix-blend-mode:multiply"/>
  <mask id="mask0_3107_783" style="mask-type:alpha" maskUnits="userSpaceOnUse" x="7" y="77" width="286" height="283">
    <path d="M293 359.098H251.682V219.461C251.682 165.647 206.973 121.881 152 121.881C97.0266 121.881 52.3176 165.647 52.3176 219.461V359.098H7L11 194.5C11 116.222 72.035 77.5195 152 77.5195C231.965 77.5195 293 147.722 293 226V359.098Z" fill="white"/>
  </mask>
  <g mask="url(#mask0_3107_783)">
    <path d="M238.816 69.9652C214.696 56.2883 188.09 47.2078 160.754 43.4336C129.435 39.1362 95.1182 34.2036 73.5928 64.4347C67.0146 73.6273 62.6656 81.2879 63.3234 92.9095C63.4331 94.8526 63.6524 97.0574 65.1142 98.2905C66.5029 99.4863 68.586 99.4116 70.3768 98.9631C87.7725 94.7031 106.374 99.3368 123.514 103.41C151.07 110.024 178.04 119.254 203.915 130.913C221.493 138.835 238.122 149.037 253.325 161.07C260.414 166.675 267.358 172.467 273.681 178.932C280.149 185.583 285.046 190.441 287.641 199.484C287.751 199.821 288.5 200.5 290 200.5C291.5 200.5 292.086 200.262 293 200C295.449 199.29 295.133 198.475 297.07 196.831C306.864 188.423 314.392 176.503 316.878 163.424C319.253 151.055 312.858 141.302 307.303 130.614C293.269 103.485 264.288 84.4268 238.816 69.9652Z" fill="black" fill-opacity="0.3" style="mix-blend-mode:multiply"/>
  </g>
  <path d="M241.217 63.2621C217.656 49.5852 191.667 40.5047 164.964 36.7304C134.37 32.4331 100.849 27.5004 79.8221 57.7315C73.3963 66.9242 69.1481 74.5847 69.7907 86.2063C69.8978 88.1495 70.112 90.3542 71.5399 91.5874C72.8965 92.7832 74.9313 92.7084 76.6806 92.26C93.6733 88 111.844 92.6337 128.587 96.7069C155.504 103.321 181.85 112.551 207.124 124.21C224.296 132.132 240.539 142.334 255.389 154.366C262.315 159.972 269.098 165.764 275.274 172.229C281.592 178.88 286.376 183.738 288.911 192.781C289.018 193.118 289.125 193.491 289.303 193.753C289.875 194.5 290.981 194.463 291.874 194.201C294.266 193.491 296.229 191.772 298.121 190.128C307.688 181.72 315.042 169.8 317.47 156.721C319.79 144.352 313.543 134.599 308.117 123.911C294.408 96.7816 266.099 77.7237 241.217 63.2621Z" fill="white"/>
</svg>
