<svg width="1689" height="360" viewBox="0 0 1689 360" fill="none" xmlns="http://www.w3.org/2000/svg">
<path d="M1578.67 359.098H1533.27V219.461C1533.27 165.647 1488.47 121.881 1433.4 121.881C1378.32 121.881 1333.53 165.647 1333.53 219.461V359.098H1288.12V219.461C1288.12 141.183 1353.28 77.5195 1433.4 77.5195C1513.51 77.5195 1578.67 141.183 1578.67 219.461V359.098Z" fill="#2397FF"/>
<path d="M560.075 253.225C545.361 289.246 509.348 314.743 467.319 314.743C412.242 314.743 367.45 270.977 367.45 217.164C367.45 163.35 412.242 119.584 467.319 119.584C509.836 119.584 546.215 145.717 560.604 182.373H608.16C592.227 120.895 535.118 75.2227 467.319 75.2227C387.204 75.2227 322.047 138.886 322.047 217.164C322.047 295.442 387.204 359.105 467.319 359.105C534.671 359.105 591.455 314.068 607.835 253.225H560.075Z" fill="#2397FF"/>
<path d="M290.504 214.009C288.756 137.201 224.29 75.2852 145.272 75.2852C65.157 75.2852 0 138.948 0 217.226C0 294.273 63.1653 357.181 141.573 359.127V359.167H245.304H290.097H290.544V214.009H290.504ZM45.4026 217.186C45.4026 163.373 90.1955 119.607 145.272 119.607C200.349 119.607 245.142 163.373 245.142 217.186C245.142 271 200.349 314.766 145.272 314.766C90.1955 314.766 45.4026 271 45.4026 217.186Z" fill="#2397FF"/>
<path d="M1256.63 217.164C1256.63 138.886 1191.47 75.2227 1111.36 75.2227C1031.24 75.2227 966.086 138.886 966.086 217.164C966.086 294.25 1029.33 357.198 1107.78 359.065V359.105H1211.11H1256.35V316.093V225.742C1256.55 222.922 1256.63 220.063 1256.63 217.164ZM1011.49 217.164C1011.49 163.35 1056.28 119.584 1111.36 119.584C1165.34 119.584 1209.4 161.642 1211.15 213.986H1211.11V221.969C1208.54 273.559 1164.77 314.743 1111.36 314.743C1056.32 314.743 1011.49 270.977 1011.49 217.164Z" fill="#2397FF"/>
<path d="M934.63 217.799C934.63 217.601 934.63 217.362 934.63 217.164C934.63 138.886 869.473 75.2227 789.358 75.2227C709.243 75.2227 644.086 138.886 644.086 217.164C644.086 295.442 709.243 359.105 789.358 359.105C856.71 359.105 913.494 314.068 929.874 253.225H882.155C867.441 289.246 831.428 314.743 789.399 314.743C734.525 314.743 689.895 271.295 689.529 217.799H889.228H934.63ZM789.358 119.584C828.542 119.584 862.522 141.745 878.862 173.914H699.854C716.194 141.745 750.174 119.584 789.358 119.584Z" fill="#2397FF"/>
<path d="M145.981 267.92C174.378 267.92 197.399 245.427 197.399 217.681C197.399 189.934 174.378 167.441 145.981 167.441C117.583 167.441 94.5625 189.934 94.5625 217.681C94.5625 245.427 117.583 267.92 145.981 267.92Z" fill="#FD2D40"/>
<path d="M1395.41 41.6663C1417.13 13.4569 1456.15 2.82624 1489.09 0.244494C1506.56 -1.12231 1522.45 3.54761 1539.35 6.66089C1557.39 9.964 1574.43 18.3547 1589.44 29.365C1613.34 46.8677 1634.81 69.9895 1649.03 96.9839C1655.42 109.133 1663.39 125.725 1662.71 140.076C1662.17 151.732 1659.42 170.639 1651.35 178.878C1650.1 180.169 1648.42 181.346 1646.74 180.853C1643.95 180.017 1643.95 175.955 1644.24 172.917C1645.42 160.199 1641.49 150.403 1632.99 141.899C1627.09 136.052 1618.95 132.369 1610.8 133.508C1600.98 134.875 1598.51 143.873 1594.26 152.264C1589.79 161.186 1584.11 169.387 1577.43 176.562" fill="#EF1245"/>
<path d="M1646.84 234.588C1669.69 234.588 1688.22 215.082 1688.22 191.021C1688.22 166.96 1669.69 147.455 1646.84 147.455C1623.99 147.455 1605.47 166.96 1605.47 191.021C1605.47 215.082 1623.99 234.588 1646.84 234.588Z" fill="white"/>
<path fill-rule="evenodd" clip-rule="evenodd" d="M1681.64 184.406C1681.64 208.467 1663.12 227.972 1640.27 227.972C1630.82 227.972 1622.11 224.634 1615.14 219.017C1622.73 228.536 1634.12 234.588 1646.84 234.588C1669.69 234.588 1688.22 215.083 1688.22 191.022C1688.22 176.914 1681.85 164.372 1671.97 156.41C1678.01 163.981 1681.64 173.747 1681.64 184.406Z" fill="#196AB3" fill-opacity="0.3" style="mix-blend-mode:multiply"/>
<mask id="mask0_3107_682" style="mask-type:alpha" maskUnits="userSpaceOnUse" x="1288" y="77" width="291" height="283">
<path d="M1578.68 359.098H1533.27V219.461C1533.27 165.647 1488.48 121.881 1433.4 121.881C1378.33 121.881 1333.54 165.647 1333.54 219.461V359.098H1288.13V219.461C1288.13 141.183 1353.29 77.5195 1433.4 77.5195C1513.52 77.5195 1578.68 141.183 1578.68 219.461V359.098Z" fill="white"/>
</mask>
<g mask="url(#mask0_3107_682)">
<path d="M1520.39 69.9652C1496.22 56.2883 1469.57 47.2078 1442.18 43.4336C1410.8 39.1362 1376.42 34.2036 1354.85 64.4347C1348.26 73.6273 1343.91 81.2879 1344.57 92.9095C1344.68 94.8526 1344.9 97.0574 1346.36 98.2905C1347.75 99.4863 1349.84 99.4116 1351.63 98.9631C1369.06 94.7031 1387.7 99.3368 1404.87 103.41C1432.48 110.024 1459.5 119.254 1485.42 130.913C1503.03 138.835 1519.69 149.037 1534.92 161.07C1542.03 166.675 1548.98 172.467 1555.32 178.932C1561.8 185.583 1566.7 190.441 1569.3 199.484C1569.41 199.821 1569.52 200.194 1569.71 200.456C1570.29 201.203 1571.43 201.166 1572.34 200.904C1574.8 200.194 1576.81 198.475 1578.75 196.831C1588.56 188.423 1596.11 176.503 1598.6 163.424C1600.98 151.055 1594.57 141.302 1589 130.614C1574.94 103.485 1545.91 84.4268 1520.39 69.9652Z" fill="black" fill-opacity="0.3" style="mix-blend-mode:multiply"/>
</g>
<path d="M1522.35 63.2621C1498.79 49.5852 1472.8 40.5047 1446.1 36.7304C1415.5 32.4331 1381.98 27.5004 1360.95 57.7315C1354.53 66.9242 1350.28 74.5847 1350.92 86.2063C1351.03 88.1495 1351.24 90.3542 1352.67 91.5874C1354.03 92.7832 1356.06 92.7084 1357.81 92.26C1374.81 88 1392.98 92.6337 1409.72 96.7069C1436.64 103.321 1462.98 112.551 1488.26 124.21C1505.43 132.132 1521.67 142.334 1536.52 154.366C1543.45 159.972 1550.23 165.764 1556.41 172.229C1562.73 178.88 1567.51 183.738 1570.04 192.781C1570.15 193.118 1570.26 193.491 1570.44 193.753C1571.01 194.5 1572.11 194.463 1573.01 194.201C1575.4 193.491 1577.36 191.772 1579.25 190.128C1588.82 181.72 1596.18 169.8 1598.6 156.721C1600.92 144.352 1594.68 134.599 1589.25 123.911C1575.54 96.7816 1547.23 77.7237 1522.35 63.2621Z" fill="white"/>
</svg>
