<svg width="47" height="51" viewBox="0 0 47 51" fill="none" xmlns="http://www.w3.org/2000/svg">
<path d="M26.0552 26.4248H35.445V28.9857H26.0552V26.4248Z" fill="url(#paint0_linear_21778_236918)"/>
<path d="M26.0552 31.5465H35.445V34.1074H26.0552V31.5465Z" fill="url(#paint1_linear_21778_236918)"/>
<path fill-rule="evenodd" clip-rule="evenodd" d="M15.8114 13.6204H35.0179C39.9681 13.6204 43.9809 17.6334 43.9809 22.5835C43.9809 27.3905 40.1967 31.3137 35.4447 31.5365V34.0997C41.6114 33.8751 46.5418 28.8051 46.5418 22.5835C46.5418 16.219 41.3823 11.0596 35.0179 11.0596H15.8114H13.2505V34.1074V50.753H13.253L13.2508 50.7509L15.8114 48.1903V34.1074V31.5465V13.6204ZM20.9331 43.0686L18.3722 45.6294V34.1074V31.5465V28.9857V21.303V16.1813H35.0179C38.5537 16.1813 41.4201 19.0477 41.4201 22.5835C41.4201 25.9759 38.7815 28.752 35.4447 28.9717V26.4013C37.3653 26.189 38.8592 24.5607 38.8592 22.5835C38.8592 20.462 37.1394 18.7422 35.0179 18.7422H20.9331V20.0226V21.303V26.4248V28.9857V31.5465V34.1074V43.0686ZM26.0548 37.9468L23.494 40.5077V38.3755V34.1074V31.5465V28.9857V26.4248V23.8639V21.303H26.0548H35.0179C35.725 21.303 36.2983 21.8764 36.2983 22.5835C36.2983 23.2906 35.725 23.8639 35.0179 23.8639H27.7621H26.0548V25.998V26.4248V28.9857V31.5465V34.1074V36.2415V37.9468Z" fill="#EAC642"/>
<g clip-path="url(#clip0_21778_236918)">
<path fill-rule="evenodd" clip-rule="evenodd" d="M8.7768 16.8116C8.85702 16.9427 8.9443 17.0729 9.0388 17.202L9.03884 17.2019C11.498 20.5678 12.4335 27.0674 10.971 29.2089L10.9714 29.2095C10.9756 29.2037 10.9798 29.1978 10.984 29.1919C11.0073 29.1596 11.0308 29.127 11.0532 29.0937C11.0537 29.0931 11.0541 29.0924 11.0545 29.0918C12.6439 26.8344 13.8215 23.8293 13.4097 21.1478C13.3768 20.9382 13.3359 20.7257 13.2825 20.5149C12.5089 17.431 13.9383 16.7857 15.9519 15.8766C16.7946 15.4962 17.7397 15.0695 18.6684 14.3986C23.7428 10.7323 27.0438 8.98117 27.0438 8.98117C27.0438 8.98117 26.5885 8.46982 25.7884 7.74578C24.261 6.35966 21.4765 4.19764 18.2028 3.346C16.389 2.87287 15.7197 4.27201 14.9216 5.94025C14.3564 7.12176 13.7267 8.43825 12.58 9.32021C12.234 9.58722 11.8398 9.81336 11.3868 9.9844C10.861 10.1826 10.3908 10.4378 9.97777 10.7413C8.15987 12.0752 7.4997 14.3045 8.55047 16.4022L8.55086 16.4028C8.55086 16.4028 8.55085 16.4028 8.55085 16.4028C8.61876 16.5401 8.69402 16.6764 8.7768 16.8116Z" fill="url(#paint2_linear_21778_236918)"/>
<path d="M12.1153 16.1882C18.7978 13.9189 23.3405 7.48357 25.8134 7.74783C25.8134 7.74783 28.311 9.44427 29.051 11.031C29.051 11.031 22.6054 17.9538 13.2828 20.5165C13.2828 20.5165 10.4164 16.765 12.1153 16.1882Z" fill="white"/>
<path d="M12.1002 28.6456C11.8087 28.0497 11.0669 27.8195 10.4432 28.1314C9.81963 28.4433 9.55038 29.1791 9.84186 29.775C10.1333 30.3708 10.8752 30.6011 11.4988 30.2892C12.1224 29.9773 12.3916 29.2415 12.1002 28.6456Z" fill="white"/>
</g>
<defs>
<linearGradient id="paint0_linear_21778_236918" x1="35.445" y1="26.4248" x2="26.0552" y2="26.4248" gradientUnits="userSpaceOnUse">
<stop stop-color="#EAC642"/>
<stop offset="1" stop-color="#EAC642" stop-opacity="0"/>
</linearGradient>
<linearGradient id="paint1_linear_21778_236918" x1="35.445" y1="31.5465" x2="26.0552" y2="31.5465" gradientUnits="userSpaceOnUse">
<stop stop-color="#EAC642"/>
<stop offset="1" stop-color="#EAC642" stop-opacity="0"/>
</linearGradient>
<linearGradient id="paint2_linear_21778_236918" x1="11.435" y1="6.64766" x2="21.3278" y2="22.9092" gradientUnits="userSpaceOnUse">
<stop stop-color="#A50F26"/>
<stop offset="1" stop-color="#ED1536"/>
</linearGradient>
<clipPath id="clip0_21778_236918">
<rect width="26.1767" height="20.2343" fill="white" transform="translate(0 13.6049) rotate(-31.3143)"/>
</clipPath>
</defs>
</svg>
