<svg width="1697" height="349" viewBox="0 0 1697 349" fill="none" xmlns="http://www.w3.org/2000/svg">
<path d="M1578.67 348.123H1533.27V208.486C1533.27 154.672 1488.47 110.906 1433.4 110.906C1378.32 110.906 1333.53 154.672 1333.53 208.486V348.123H1288.12V208.486C1288.12 130.208 1353.28 66.5449 1433.4 66.5449C1513.51 66.5449 1578.67 130.208 1578.67 208.486V348.123Z" fill="white"/>
<path d="M560.075 242.25C545.361 278.272 509.348 303.769 467.319 303.769C412.242 303.769 367.45 260.003 367.45 206.189C367.45 152.375 412.242 108.61 467.319 108.61C509.836 108.61 546.215 134.742 560.604 171.399H608.16C592.227 109.92 535.118 64.248 467.319 64.248C387.204 64.248 322.047 127.911 322.047 206.189C322.047 284.467 387.204 348.13 467.319 348.13C534.671 348.13 591.455 303.093 607.835 242.25H560.075Z" fill="white"/>
<path d="M290.504 203.035C288.756 126.226 224.29 64.3105 145.272 64.3105C65.157 64.3105 0 127.974 0 206.252C0 283.298 63.1653 346.207 141.573 348.153V348.193H245.304H290.097H290.544V203.035H290.504ZM45.4026 206.212C45.4026 152.398 90.1955 108.632 145.272 108.632C200.349 108.632 245.142 152.398 245.142 206.212C245.142 260.025 200.349 303.791 145.272 303.791C90.1955 303.791 45.4026 260.025 45.4026 206.212Z" fill="white"/>
<path d="M1256.63 206.189C1256.63 127.911 1191.47 64.248 1111.36 64.248C1031.24 64.248 966.086 127.911 966.086 206.189C966.086 283.276 1029.33 346.224 1107.78 348.09V348.13H1211.11H1256.35V305.119V214.767C1256.55 211.948 1256.63 209.088 1256.63 206.189ZM1011.49 206.189C1011.49 152.375 1056.28 108.61 1111.36 108.61C1165.34 108.61 1209.4 150.668 1211.15 203.012H1211.11V210.995C1208.54 262.584 1164.77 303.769 1111.36 303.769C1056.32 303.769 1011.49 260.003 1011.49 206.189Z" fill="white"/>
<path d="M934.63 206.824C934.63 206.626 934.63 206.388 934.63 206.189C934.63 127.911 869.473 64.248 789.358 64.248C709.243 64.248 644.086 127.911 644.086 206.189C644.086 284.467 709.243 348.13 789.358 348.13C856.71 348.13 913.494 303.093 929.874 242.25H882.155C867.441 278.272 831.428 303.769 789.399 303.769C734.525 303.769 689.895 260.32 689.529 206.824H889.228H934.63ZM789.358 108.61C828.542 108.61 862.522 130.77 878.862 162.94H699.854C716.194 130.77 750.174 108.61 789.358 108.61Z" fill="white"/>
<path d="M145.981 256.945C174.378 256.945 197.399 234.453 197.399 206.706C197.399 178.96 174.378 156.467 145.981 156.467C117.583 156.467 94.5625 178.96 94.5625 206.706C94.5625 234.453 117.583 256.945 145.981 256.945Z" fill="#FD2D40"/>
<path d="M1400.62 39.9401C1422.54 12.8994 1461.92 2.70915 1495.17 0.234365C1512.8 -1.07582 1528.85 3.40064 1545.9 6.38494C1564.11 9.55121 1581.31 17.5943 1596.46 28.1485C1620.58 44.9261 1642.26 67.0899 1656.61 92.966C1663.06 104.612 1671.1 120.516 1670.42 134.273C1669.88 145.446 1667.1 163.57 1658.95 171.468C1657.69 172.705 1655.99 173.833 1654.3 173.36C1651.49 172.559 1651.49 168.665 1651.78 165.754C1652.97 153.562 1649 144.172 1640.42 136.02C1634.47 130.415 1626.25 126.885 1618.02 127.977C1608.11 129.287 1605.62 137.912 1601.33 145.955C1596.82 154.508 1591.09 162.369 1584.34 169.248" fill="#EF1245"/>
<path d="M1654.39 224.868C1677.46 224.868 1696.16 206.171 1696.16 183.107C1696.16 160.043 1677.46 141.346 1654.39 141.346C1631.33 141.346 1612.63 160.043 1612.63 183.107C1612.63 206.171 1631.33 224.868 1654.39 224.868Z" fill="white"/>
<path fill-rule="evenodd" clip-rule="evenodd" d="M1689.53 176.765C1689.53 199.83 1670.83 218.527 1647.76 218.527C1638.22 218.527 1629.43 215.327 1622.4 209.943C1630.06 219.068 1641.55 224.869 1654.4 224.869C1677.46 224.869 1696.16 206.171 1696.16 183.107C1696.16 169.584 1689.73 157.562 1679.76 149.93C1685.86 157.187 1689.53 166.548 1689.53 176.765Z" fill="#196AB3" fill-opacity="0.3" style="mix-blend-mode:multiply"/>
<mask id="mask0_3107_742" style="mask-type:alpha" maskUnits="userSpaceOnUse" x="1288" y="66" width="291" height="283">
<path d="M1578.68 348.123H1533.27V208.486C1533.27 154.672 1488.48 110.906 1433.4 110.906C1378.33 110.906 1333.54 154.672 1333.54 208.486V348.123H1288.13V208.486C1288.13 130.208 1353.29 66.5449 1433.4 66.5449C1513.52 66.5449 1578.68 130.208 1578.68 208.486V348.123Z" fill="white"/>
</mask>
<g mask="url(#mask0_3107_742)">
<path d="M1526.76 67.0667C1502.36 53.9564 1475.46 45.2521 1447.81 41.6342C1416.14 37.5149 1381.44 32.7866 1359.67 61.7653C1353.02 70.5771 1348.62 77.9202 1349.29 89.0604C1349.4 90.923 1349.62 93.0364 1351.1 94.2185C1352.5 95.3648 1354.61 95.2931 1356.42 94.8633C1374.01 90.7798 1392.82 95.2215 1410.15 99.1259C1438.02 105.466 1465.29 114.314 1491.46 125.49C1509.24 133.084 1526.05 142.863 1541.43 154.397C1548.6 159.77 1555.62 165.322 1562.01 171.519C1568.55 177.895 1573.51 182.552 1576.13 191.22C1576.24 191.542 1576.35 191.901 1576.54 192.151C1577.13 192.868 1578.27 192.832 1579.2 192.581C1581.67 191.901 1583.71 190.253 1585.67 188.677C1595.57 180.617 1603.18 169.191 1605.7 156.653C1608.1 144.797 1601.63 135.448 1596.01 125.203C1581.82 99.1975 1552.51 80.9292 1526.76 67.0667Z" fill="black" fill-opacity="0.3" style="mix-blend-mode:multiply"/>
</g>
<path d="M1528.74 60.6428C1504.96 47.5326 1478.72 38.8282 1451.77 35.2104C1420.89 31.091 1387.05 26.3628 1365.83 55.3414C1359.34 64.1532 1355.06 71.4964 1355.71 82.6366C1355.81 84.4992 1356.03 86.6126 1357.47 87.7947C1358.84 88.9409 1360.89 88.8693 1362.66 88.4394C1379.81 84.3559 1398.15 88.7977 1415.05 92.7021C1442.22 99.0423 1468.81 107.89 1494.33 119.066C1511.66 126.66 1528.05 136.439 1543.04 147.973C1550.03 153.346 1556.88 158.898 1563.11 165.095C1569.49 171.471 1574.32 176.128 1576.88 184.796C1576.99 185.119 1577.1 185.477 1577.28 185.728C1577.85 186.444 1578.97 186.408 1579.87 186.157C1582.28 185.477 1584.27 183.829 1586.18 182.253C1595.83 174.193 1603.26 162.767 1605.71 150.23C1608.05 138.373 1601.74 129.024 1596.27 118.779C1582.43 92.7737 1553.85 74.5053 1528.74 60.6428Z" fill="white"/>
</svg>
