<svg width="685" height="162" viewBox="0 0 685 162" fill="none"
  xmlns="http://www.w3.org/2000/svg">
  <path d="M52.5757 62.6826H90.6937V73.0784H52.5757V62.6826Z" fill="url(#paint0_linear_508_944)"/>
  <path d="M52.5757 83.5996H90.6937V93.9954H52.5757V83.5996Z" fill="url(#paint1_linear_508_944)"/>
  <path fill-rule="evenodd" clip-rule="evenodd" d="M11.116 10.9525H88.9609C109.01 10.9525 125.346 27.165 125.346 47.3378C125.346 66.7681 110 82.7331 90.6936 83.5995V93.9953C115.693 93.0052 135.618 72.4611 135.618 47.2141C135.618 21.472 114.703 0.556641 88.9609 0.556641H11.116H0.720215V93.9953V161.444L11.116 151.049V93.9953V83.5995V10.9525ZM31.9077 130.257L21.5119 140.653V93.9953V83.5995V73.2036V42.0162V21.3483H88.9609C103.317 21.3483 114.951 32.9817 114.951 47.3378C114.951 61.0752 104.307 72.3373 90.6936 73.2036V62.8078C98.4904 61.9415 104.555 55.3822 104.555 47.3378C104.555 38.7984 97.6241 31.7441 88.9609 31.7441H31.9077V36.942V42.1399V62.9316V73.3274V83.7232V94.119V130.257ZM52.5756 109.589L42.1797 119.985V111.322V93.9953V83.5995V73.2036V62.8078V52.412V42.0162H52.5756H88.9609C91.8074 42.0162 94.1589 44.3676 94.1589 47.2141C94.1589 50.0606 91.8074 52.412 88.9609 52.412H59.5061H52.5756V61.0752V62.8078V73.2036V83.5995V93.9953V102.658V109.589Z" fill="#EAC642"/>
  <path d="M239.329 3.64974C235.492 1.9171 230.79 1.05078 225.468 1.05078H201.706V64.5396H208.389V44.6142H225.468C230.79 44.6142 235.492 43.7479 239.329 42.0153C243.166 40.2826 246.136 37.8074 248.24 34.5897C250.344 31.3719 251.334 27.5354 251.334 23.08C251.334 18.5009 250.344 14.5406 248.24 11.3228C246.136 7.85757 243.166 5.38237 239.329 3.64974ZM239.7 34.5897C236.359 37.3124 231.532 38.6738 225.22 38.6738H208.389V6.86749H225.22C231.532 6.86749 236.359 8.22885 239.7 11.0753C243.042 13.798 244.651 17.7584 244.651 22.8325C244.651 27.9067 242.918 31.7432 239.7 34.5897Z" fill="#13131F"/>
  <path d="M303.56 41.8928C307.397 40.1601 310.367 37.6849 312.471 34.4672C314.575 31.2494 315.565 27.4129 315.565 22.9575C315.565 18.3784 314.575 14.4181 312.471 11.2003C310.367 7.98257 307.397 5.50737 303.56 3.77474C299.724 2.0421 295.021 1.17578 289.699 1.17578H265.938V64.6646H272.621V44.4917H289.699C291.432 44.4917 293.165 44.3679 294.774 44.2442L309.253 64.6646H316.555L301.085 42.8828C301.952 42.5116 302.694 42.264 303.56 41.8928ZM289.452 38.7988H272.621V6.86873H289.452C295.764 6.86873 300.59 8.23009 303.932 11.0766C307.273 13.7993 308.882 17.7596 308.882 22.8337C308.882 27.9079 307.273 31.7444 303.932 34.5909C300.59 37.3136 295.764 38.7988 289.452 38.7988Z" fill="#13131F"/>
  <path d="M338.213 35.2085H371.009V29.5155H338.213V6.86749H374.97V1.05078H331.406V64.6633H376.331V58.8466H338.213V35.2085Z" fill="#13131F"/>
  <path d="M425.587 34.8374C423.236 33.5998 420.761 32.6097 417.914 31.7434C415.191 31.0008 412.345 30.2583 409.622 29.5157C406.899 28.8969 404.301 28.1544 401.949 27.288C399.598 26.4217 397.741 25.3079 396.38 23.699C395.019 22.2139 394.276 20.2337 394.276 17.7585C394.276 15.5309 394.895 13.6745 396.009 11.9418C397.246 10.2092 398.979 8.84783 401.454 7.85776C403.929 6.86768 407.023 6.37264 410.86 6.37264C413.706 6.37264 416.677 6.74392 419.647 7.61024C422.741 8.47655 425.587 9.83791 428.31 11.5705L430.538 6.24888C427.939 4.51624 424.968 3.15488 421.503 2.1648C418.038 1.17473 414.449 0.679688 410.86 0.679688C405.414 0.679688 401.083 1.42225 397.618 3.03112C394.152 4.64 391.553 6.74392 389.944 9.34287C388.336 11.9418 387.469 14.9121 387.469 18.0061C387.469 21.3476 388.212 24.0703 389.573 26.1742C390.935 28.2781 392.915 29.887 395.142 31.2484C397.494 32.486 399.969 33.476 402.815 34.3423C405.538 35.0849 408.385 35.8275 411.107 36.4463C413.83 37.0651 416.429 37.9314 418.78 38.7977C421.132 39.664 422.988 40.9016 424.35 42.3867C425.711 43.8719 426.454 45.852 426.454 48.3272C426.454 50.4311 425.835 52.2875 424.721 53.8964C423.483 55.629 421.751 56.9904 419.152 57.9805C416.677 58.9706 413.335 59.4656 409.375 59.4656C405.167 59.4656 401.207 58.723 397.494 57.2379C393.657 55.7528 390.687 53.8964 388.459 51.7925L385.86 56.9904C388.212 59.4656 391.553 61.4457 395.885 62.9309C400.216 64.416 404.672 65.2823 409.498 65.2823C414.944 65.2823 419.399 64.5397 422.865 62.9309C426.33 61.322 428.929 59.2181 430.661 56.6191C432.394 54.0202 433.26 51.1737 433.26 48.0797C433.26 44.7382 432.518 42.0155 431.156 40.0353C429.795 37.6839 427.939 36.075 425.587 34.8374Z" fill="#13131F"/>
  <path d="M437.096 6.86749H459.373V64.6633H466.056V6.86749H488.457V1.05078H437.096V6.86749Z" fill="#13131F"/>
  <path d="M505.785 1.05078H499.102V64.5396H505.785V1.05078Z" fill="#13131F"/>
  <path d="M535.238 14.0465C537.713 11.695 540.56 9.83862 543.901 8.47727C547.243 7.11591 550.832 6.49711 554.792 6.49711C558.505 6.49711 561.97 7.11591 565.188 8.22975C568.406 9.34359 571.376 11.3237 573.975 13.9227L578.183 9.71486C575.336 6.62087 571.871 4.39319 567.911 2.78432C563.827 1.2992 559.495 0.556641 554.668 0.556641C549.842 0.556641 545.386 1.2992 541.302 2.90808C537.218 4.51695 533.629 6.74463 530.659 9.71486C527.689 12.5613 525.337 16.0266 523.605 19.9869C521.996 23.9472 521.129 28.1551 521.129 32.8579C521.129 37.5608 521.996 41.7686 523.605 45.729C525.213 49.6893 527.565 53.0308 530.535 56.001C533.505 58.8475 537.094 61.1989 541.178 62.8078C545.263 64.4167 549.718 65.1592 554.545 65.1592C559 65.1592 563.208 64.5404 567.292 63.1791C571.376 61.8177 574.841 59.8376 577.935 57.1149V32.8579H553.183V39.541H571.252V54.1446C569.272 55.6297 567.168 56.7436 564.94 57.4861C561.723 58.6 558.257 59.095 554.668 59.095C550.832 59.095 547.243 58.4762 543.901 57.1149C540.56 55.7535 537.713 54.0209 535.238 51.5457C532.763 49.1942 530.906 46.3478 529.545 43.13C528.184 39.9123 527.565 36.447 527.565 32.7342C527.565 28.8976 528.184 25.4324 529.545 22.2146C530.906 19.2444 532.763 16.3979 535.238 14.0465Z" fill="#13131F"/>
  <path d="M603.307 1.05078H596.624V64.5396H603.307V1.05078Z" fill="#13131F"/>
  <path d="M682.636 19.9869C681.027 16.0266 678.676 12.6851 675.705 9.71486C672.735 6.86839 669.146 4.51695 665.186 2.90808C660.978 1.2992 656.646 0.556641 651.82 0.556641C646.993 0.556641 642.538 1.2992 638.454 2.90808C634.37 4.51695 630.904 6.74463 627.934 9.71486C624.964 12.6851 622.612 16.0266 621.004 19.9869C619.395 23.9472 618.528 28.1551 618.528 32.8579C618.528 37.5608 619.395 41.7686 621.004 45.729C622.612 49.6893 624.964 53.0308 627.934 56.001C630.904 58.9713 634.493 61.1989 638.577 62.8078C642.661 64.4167 647.117 65.1592 651.82 65.1592C656.646 65.1592 660.978 64.4167 665.062 62.8078C669.146 61.1989 672.611 58.9713 675.582 56.001C678.552 53.1545 680.903 49.6893 682.512 45.729C684.121 41.7686 684.987 37.5608 684.987 32.8579C685.111 28.1551 684.245 23.9472 682.636 19.9869ZM676.448 43.3775C675.087 46.5953 673.23 49.318 670.879 51.6694C668.527 54.0209 665.681 55.8773 662.463 57.2386C659.245 58.6 655.656 59.2188 651.943 59.2188C648.107 59.2188 644.642 58.6 641.3 57.2386C638.082 55.8773 635.236 54.1446 632.761 51.6694C630.409 49.318 628.553 46.4715 627.192 43.2538C625.83 40.036 625.211 36.5707 625.211 32.8579C625.211 29.0214 625.83 25.5561 627.192 22.3384C628.553 19.1206 630.409 16.3979 632.761 14.0465C635.112 11.695 637.959 9.83862 641.3 8.47727C644.518 7.11591 648.107 6.49711 651.943 6.49711C655.78 6.49711 659.245 7.11591 662.463 8.47727C665.681 9.83862 668.527 11.5713 670.879 14.0465C673.23 16.3979 675.087 19.2444 676.448 22.3384C677.809 25.5561 678.428 29.0214 678.428 32.8579C678.428 36.6945 677.685 40.1598 676.448 43.3775Z" fill="#13131F"/>
  <path d="M239.329 100.555C235.492 98.8224 230.79 97.9561 225.468 97.9561H201.706V161.445H208.389V141.396H225.468C230.79 141.396 235.492 140.529 239.329 138.797C243.166 137.064 246.136 134.589 248.24 131.371C250.344 128.153 251.334 124.317 251.334 119.862C251.334 115.282 250.344 111.322 248.24 108.104C246.136 104.763 243.166 102.288 239.329 100.555ZM239.7 131.371C236.359 134.094 231.532 135.455 225.22 135.455H208.389V103.773H225.22C231.532 103.773 236.359 105.134 239.7 107.981C243.042 110.703 244.651 114.664 244.651 119.738C244.651 124.688 242.918 128.648 239.7 131.371Z" fill="#EAC642"/>
  <path d="M272.621 97.9561H265.814V161.445H308.14V155.628H272.621V97.9561Z" fill="#EAC642"/>
  <path d="M338.212 97.9561L309.129 161.445H316.059L323.609 144.49H359.004L366.553 161.445H373.608L344.772 97.9561H338.212ZM326.084 139.044L341.43 104.887L356.776 139.044H326.084Z" fill="#EAC642"/>
  <path d="M429.052 102.535V97.9561H378.682V103.773H420.141L378.063 156.866V161.445H430.166V155.628H387.097L429.052 102.535Z" fill="#EAC642"/>
  <path d="M490.809 161.445H497.863L468.779 97.9561H462.096L433.26 161.445H440.191L447.74 144.49H483.135L490.809 161.445ZM450.215 139.044L465.562 104.887L480.908 139.044H450.215Z" fill="#EAC642"/>
  <defs>
    <linearGradient id="paint0_linear_508_944" x1="90.6937" y1="62.6826" x2="52.5757" y2="62.6826" gradientUnits="userSpaceOnUse">
      <stop stop-color="#EAC642"/>
      <stop offset="1" stop-color="#EAC642" stop-opacity="0"/>
    </linearGradient>
    <linearGradient id="paint1_linear_508_944" x1="90.6937" y1="83.5996" x2="52.5757" y2="83.5996" gradientUnits="userSpaceOnUse">
      <stop stop-color="#EAC642"/>
      <stop offset="1" stop-color="#EAC642" stop-opacity="0"/>
    </linearGradient>
  </defs>
</svg>
