<svg width="24" height="26" viewBox="0 0 24 26" fill="none"
  xmlns="http://www.w3.org/2000/svg">
  <path fill-rule="evenodd" clip-rule="evenodd" d="M14.5553 9.72647C14.0105 9.20201 13.7221 8.55195 13.7221 7.84531C13.7221 7.1163 14.0392 6.35707 14.5491 5.86676L15.4256 5.04076C15.0101 4.66883 14.4227 4.05806 14.4227 3.06425C14.4227 2.46584 14.6723 1.86636 15.1099 1.41896C15.5768 0.939923 16.2139 0.675781 16.9017 0.675781C17.8045 0.675781 18.3866 1.11378 18.6516 1.37478L18.679 1.40415L18.6616 1.42372L18.2576 1.81279L17.672 2.37463L17.6506 2.39435L17.6291 2.37369C17.5455 2.28801 17.3013 2.08603 16.9052 2.08603C16.6456 2.08603 16.3618 2.2017 16.1692 2.38783C16.0366 2.51449 15.8808 2.73634 15.8808 3.06889C15.8808 3.3826 15.9985 3.58015 16.1904 3.76785C16.5479 4.11546 19.4284 6.89568 19.4284 6.89568L20.4143 5.9448L21.4447 6.93687L20.459 7.88681L21.8449 9.22173L21.8314 9.24522L20.8438 10.1999L19.4372 8.88096C19.2324 9.07203 19.0223 9.27444 18.6796 9.60454C18.6413 9.64128 18.6015 9.67959 18.56 9.71966C18.0935 10.1671 17.4104 10.4657 16.7313 10.5192C16.1605 10.5635 15.3213 10.4629 14.5553 9.72647ZM16.4535 6.02569L15.583 6.86439C15.3314 7.10788 15.1802 7.46294 15.1802 7.81148C15.1802 8.15748 15.3194 8.47408 15.583 8.7295C16.1871 9.31024 17.0183 9.21043 17.5202 8.73539C17.9357 8.33883 18.313 7.97218 18.402 7.88396L16.4535 6.02569ZM5.61434 15.6454C8.26227 14.2886 9.90404 11.6634 9.90404 8.78493C9.90404 6.70954 9.0642 4.75718 7.53219 3.28873C5.99985 1.8187 3.96349 1.01053 1.79853 1.01053H0L0.00397856 25.3244H2.68468C4.1467 25.3244 5.52247 24.7783 6.55463 23.7874C7.58893 22.7948 8.16016 21.4765 8.16016 20.0756C8.16016 19.1684 7.91369 18.2742 7.44812 17.49C7.00751 16.742 6.37076 16.106 5.61434 15.6454ZM1.82402 2.75117C3.4939 2.75864 5.06648 3.38524 6.24844 4.51799C7.43834 5.65884 8.08981 7.17396 8.08981 8.78493C8.08981 10.3978 7.43834 11.914 6.24844 13.0532C5.06648 14.1854 3.4939 14.8121 1.82402 14.8197V2.75117ZM2.6827 23.5847H1.82402V16.5639C1.97268 16.5639 2.67511 16.5677 2.67511 16.5677C3.65363 16.5677 4.58003 16.9315 5.27189 17.5932C5.9626 18.2576 6.34227 19.1381 6.34227 20.0756C6.34227 22.0105 4.70053 23.5847 2.6827 23.5847ZM21.9336 13.7578C20.6019 12.4801 18.8299 11.7772 16.9459 11.7772C15.062 11.7772 13.2899 12.4801 11.9579 13.7578C10.6261 15.0367 9.89242 16.735 9.89242 18.5418C9.89242 20.349 10.6261 22.0462 11.9579 23.3237C13.2899 24.6022 15.062 25.3053 16.9459 25.3053C18.8299 25.3053 20.6019 24.6022 21.9336 23.3237C23.266 22.0462 24 20.349 24 18.5418C24 16.735 23.266 15.0367 21.9336 13.7578ZM16.9459 23.5652C15.5463 23.5652 14.23 23.0421 13.241 22.0933C12.2513 21.1447 11.7047 19.8825 11.7047 18.5418C11.7047 17.1985 12.2513 15.9375 13.241 14.9888C14.23 14.0382 15.5463 13.5159 16.9459 13.5159C18.3455 13.5159 19.6612 14.0382 20.6514 14.9888C21.6398 15.9375 22.1858 17.1985 22.1858 18.5418C22.1858 21.3115 19.8356 23.5652 16.9459 23.5652Z" fill="white"/>
</svg>
