<svg width="80" height="32" viewBox="0 0 80 32" fill="none" xmlns="http://www.w3.org/2000/svg">
<path d="M4.30046 9.10277C3.62713 9.10277 3.07471 8.90447 2.64742 8.50373C2.21581 8.10294 2 7.61597 2 7.03418C2 6.4351 2.21581 5.94809 2.64742 5.56891C3.07471 5.18968 3.62713 5 4.30046 5C4.98669 5 5.53916 5.18968 5.96646 5.56891C6.38938 5.94809 6.60519 6.4351 6.60519 7.03418C6.60519 7.63747 6.38938 8.13744 5.96646 8.52524C5.53916 8.90884 4.98669 9.10277 4.30046 9.10277ZM6.27289 24.0786H2.28058V11.1498H6.27289V24.0786Z" fill="white"/>
<path d="M8.98192 23.3957V19.348C9.71925 19.965 10.5216 20.4268 11.3847 20.7332C12.2478 21.0395 13.1196 21.1949 14.0001 21.1949C14.5205 21.1949 14.9716 21.1474 15.3533 21.0568C15.7393 20.9619 16.0602 20.8367 16.3205 20.6684C16.5807 20.5044 16.7715 20.3103 16.8973 20.0902C17.0274 19.8658 17.0881 19.6242 17.0881 19.3609C17.0881 19.0071 16.9884 18.6921 16.7845 18.4159C16.5807 18.1354 16.3031 17.8765 15.9518 17.6435C15.6005 17.4061 15.1841 17.1774 14.6983 16.9617C14.2169 16.7416 13.6965 16.5172 13.137 16.2885C11.7143 15.7016 10.6518 14.981 9.95342 14.1266C9.25515 13.2765 8.9082 12.2495 8.9082 11.0455C8.9082 10.1005 9.09469 9.28926 9.47635 8.61174C9.85801 7.92995 10.3785 7.37326 11.0334 6.93314C11.6927 6.49724 12.4517 6.17365 13.3148 5.96646C14.1779 5.75938 15.093 5.65576 16.0602 5.65576C17.0101 5.65576 17.8515 5.71627 18.5845 5.82836C19.3131 5.94062 19.9897 6.11752 20.61 6.35487V10.135C20.302 9.92356 19.9724 9.73796 19.6124 9.57837C19.2524 9.41863 18.8794 9.28494 18.4977 9.17706C18.1204 9.07349 17.7387 8.99578 17.3614 8.94397C16.984 8.89648 16.6284 8.87063 16.2901 8.87063C15.8217 8.87063 15.401 8.91374 15.0193 9.00004C14.6376 9.09076 14.3167 9.21581 14.0521 9.37556C13.7919 9.53514 13.588 9.72506 13.4406 9.94941C13.2974 10.1739 13.2281 10.4241 13.2281 10.7003C13.2281 11.0067 13.3061 11.2785 13.4666 11.5159C13.6271 11.7575 13.857 11.9862 14.1562 12.202C14.4511 12.4134 14.8111 12.6249 15.2362 12.832C15.6569 13.0391 16.1383 13.2506 16.6718 13.4707C17.4004 13.7727 18.051 14.0964 18.6322 14.4372C19.2134 14.7781 19.7122 15.1666 20.1242 15.5938C20.5406 16.0253 20.8572 16.5172 21.0784 17.0695C21.2996 17.6175 21.408 18.2605 21.408 18.9941C21.408 20.0082 21.2172 20.854 20.8312 21.5444C20.4451 22.2305 19.9247 22.7873 19.2611 23.2101C18.6018 23.6373 17.8342 23.9437 16.958 24.1293C16.0776 24.3148 15.1538 24.4055 14.1779 24.4055C13.1803 24.4055 12.2305 24.3234 11.3283 24.1551C10.4262 23.9868 9.64115 23.7322 8.98192 23.3957Z" fill="white"/>
<path d="M28.0893 22.5922H28.0375V30H24.0391V11.2341H28.0375V13.1664H28.0893C29.0792 11.6711 30.4668 10.9214 32.2564 10.9214C33.9379 10.9214 35.2347 11.4911 36.1511 12.6352C37.0675 13.7747 37.5257 15.3301 37.5257 17.2966C37.5257 19.4388 36.9897 21.1569 35.922 22.4551C34.8543 23.7533 33.4321 24.4003 31.6598 24.4003C30.0994 24.4003 28.9107 23.8004 28.0893 22.5922ZM27.977 17.3224V18.3506C27.977 19.2375 28.2104 19.9616 28.6859 20.5228C29.1571 21.0841 29.7795 21.3626 30.5489 21.3626C31.4567 21.3626 32.1656 21.0155 32.667 20.3171C33.1684 19.6188 33.4235 18.6291 33.4235 17.348C33.4235 15.0858 32.5374 13.959 30.7607 13.959C29.9438 13.959 29.2737 14.2632 28.7551 14.8802C28.2363 15.4972 27.977 16.3112 27.977 17.3224Z" fill="white"/>
<path d="M50.6837 24.095H46.8685V22.2473H46.8163C45.9408 23.6877 44.643 24.408 42.9226 24.408C41.6553 24.408 40.6579 24.0565 39.9306 23.3491C39.2033 22.6417 38.8418 21.6944 38.8418 20.5154C38.8418 18.0205 40.3443 16.5801 43.3451 16.1942L46.8947 15.7313C46.8947 14.3251 46.1194 13.6221 44.569 13.6221C43.0141 13.6221 41.5333 14.0766 40.1309 14.9897V12.0017C40.6928 11.7144 41.4593 11.4658 42.4349 11.2471C43.4061 11.0286 44.2946 10.9214 45.0959 10.9214C48.8197 10.9214 50.6837 12.7518 50.6837 16.4086V24.095ZM46.8947 18.8693V18.0033L44.521 18.3034C43.2101 18.4706 42.5568 19.0537 42.5568 20.0525C42.5568 20.5026 42.7136 20.8756 43.0315 21.1628C43.3538 21.45 43.785 21.5957 44.3294 21.5957C45.0872 21.5957 45.7013 21.3385 46.1804 20.8241C46.6551 20.3097 46.8947 19.6581 46.8947 18.8693Z" fill="white"/>
<path d="M63.5125 23.6321C62.6153 24.1508 61.3188 24.408 59.6274 24.408C57.6484 24.408 56.0471 23.8121 54.8237 22.6118C53.6002 21.4157 52.9863 19.8725 52.9863 17.9776C52.9863 15.7913 53.6432 14.0722 54.9525 12.8118C56.2661 11.5515 58.0219 10.9214 60.2198 10.9214C61.7352 10.9214 62.8342 11.1228 63.5125 11.5215V14.891C62.6839 14.2694 61.7567 13.9607 60.735 13.9607C59.593 13.9607 58.6916 14.2909 58.0219 14.9596C57.3565 15.6241 57.0216 16.5414 57.0216 17.7161C57.0216 18.8521 57.3436 19.7481 57.9789 20.3954C58.6143 21.047 59.4943 21.3685 60.6062 21.3685C61.5979 21.3685 62.5637 21.0599 63.5125 20.4383V23.6321Z" fill="white"/>
<path d="M77.6572 18.7964H69.3696C69.5009 20.6612 70.6655 21.5957 72.8549 21.5957C74.2524 21.5957 75.4805 21.2614 76.5392 20.5926V23.4562C75.3662 24.0908 73.8416 24.408 71.9614 24.408C69.9117 24.408 68.3194 23.8336 67.1845 22.6804C66.0538 21.5314 65.4863 19.9238 65.4863 17.8661C65.4863 15.7313 66.0961 14.0379 67.3243 12.7904C68.5481 11.5429 70.0515 10.9214 71.8386 10.9214C73.6891 10.9214 75.1248 11.4787 76.1369 12.589C77.149 13.7035 77.6572 15.2168 77.6572 17.1245V18.7964ZM74.0237 16.3571C74.0237 14.5181 73.2868 13.5963 71.8131 13.5963C71.1864 13.5963 70.6401 13.8579 70.1827 14.3852C69.7211 14.9125 69.4459 15.5726 69.3443 16.3571H74.0237Z" fill="white"/>
</svg>
