<svg width="90" height="16" viewBox="0 0 90 16" fill="none"
  xmlns="http://www.w3.org/2000/svg">
  <path d="M89.9997 15.9969H87.4113V8.12779C87.4113 5.0952 84.8576 2.62884 81.7176 2.62884C78.5777 2.62884 76.024 5.0952 76.024 8.12779V15.9969H73.4355V8.12779C73.4355 3.71654 77.1502 0.128906 81.7176 0.128906C86.2851 0.128906 89.9997 3.71654 89.9997 8.12779V15.9969Z" fill="white"/>
  <path d="M31.9296 10.0311C31.0907 12.061 29.0376 13.4978 26.6415 13.4978C23.5015 13.4978 20.9478 11.0315 20.9478 7.99888C20.9478 4.96629 23.5015 2.49993 26.6415 2.49993C29.0654 2.49993 31.1394 3.97258 31.9597 6.03833H34.671C33.7626 2.57379 30.5068 0 26.6415 0C22.074 0 18.3594 3.58764 18.3594 7.99888C18.3594 12.4101 22.074 15.9978 26.6415 15.9978C30.4813 15.9978 33.7186 13.4598 34.6524 10.0311H31.9296Z" fill="white"/>
  <path d="M16.5619 7.81955C16.4622 3.49111 12.787 0.00195312 8.28209 0.00195312C3.71466 0.00195312 0 3.58959 0 8.00083C0 12.3427 3.60111 15.8878 8.07122 15.9975V15.9997H13.985H16.5387H16.5642V7.81955H16.5619ZM2.58844 7.9986C2.58844 4.966 5.14213 2.49965 8.28209 2.49965C11.4221 2.49965 13.9757 4.966 13.9757 7.9986C13.9757 11.0312 11.4221 13.4975 8.28209 13.4975C5.14213 13.4975 2.58844 11.0312 2.58844 7.9986Z" fill="white"/>
  <path d="M71.6404 7.99888C71.6404 3.58764 67.9257 0 63.3583 0C58.7908 0 55.0762 3.58764 55.0762 7.99888C55.0762 12.343 58.6819 15.8903 63.1543 15.9955V15.9978H69.045H71.6241V13.5739V8.48231C71.6357 8.3234 71.6404 8.16226 71.6404 7.99888ZM57.6646 7.99888C57.6646 4.96629 60.2183 2.49993 63.3583 2.49993C66.4357 2.49993 68.9476 4.87005 69.0473 7.81984H69.045V8.26969C68.899 11.1769 66.4032 13.4978 63.3583 13.4978C60.2206 13.4978 57.6646 11.0315 57.6646 7.99888Z" fill="white"/>
  <path d="M53.2829 8.03469C53.2829 8.0235 53.2829 8.01007 53.2829 7.99888C53.2829 3.58764 49.5683 0 45.0008 0C40.4334 0 36.7188 3.58764 36.7188 7.99888C36.7188 12.4101 40.4334 15.9978 45.0008 15.9978C48.8406 15.9978 52.0779 13.4598 53.0118 10.0311H50.2913C49.4524 12.061 47.3993 13.4978 45.0032 13.4978C41.8748 13.4978 39.3304 11.0494 39.3095 8.03469H50.6945H53.2829ZM45.0008 2.49993C47.2347 2.49993 49.172 3.74878 50.1036 5.56162H39.8981C40.8297 3.74878 42.767 2.49993 45.0008 2.49993Z" fill="white"/>
  <path d="M8.32203 10.8537C9.941 10.8537 11.2534 9.58618 11.2534 8.02257C11.2534 6.45896 9.941 5.19141 8.32203 5.19141C6.70306 5.19141 5.39062 6.45896 5.39062 8.02257C5.39062 9.58618 6.70306 10.8537 8.32203 10.8537Z" fill="white"/>
</svg>
