<svg width="137" height="30" viewBox="0 0 137 30" fill="none"
  xmlns="http://www.w3.org/2000/svg">
  <path d="M37.4709 11.8933V0.200448H41.8474C43.1726 0.200448 44.2305 0.534528 45.0212 1.20269C45.823 1.85971 46.2239 2.76173 46.2239 3.90874V3.94215C46.2239 5.15598 45.784 6.09697 44.9042 6.76513C44.0356 7.43329 42.9443 7.76737 41.6303 7.76737H38.7906V11.8933H37.4709ZM38.7906 6.56468H41.6804C42.6492 6.56468 43.4231 6.33083 44.0022 5.86311C44.5924 5.38426 44.8875 4.76065 44.8875 3.99226V3.95885C44.8875 3.14592 44.6036 2.52231 44.0356 2.088C43.4788 1.64256 42.716 1.41984 41.7472 1.41984H38.7906V6.56468Z" fill="white"/>
  <path d="M49.798 11.8933V0.200448H54.8259C56.2625 0.200448 57.3705 0.590208 58.15 1.36973C58.7514 1.97107 59.052 2.73946 59.052 3.67489V3.70829C59.052 4.64372 58.7625 5.40654 58.1834 5.99675C57.6043 6.57582 56.836 6.94887 55.8783 7.11592L59.4696 11.8933H57.8493L54.4584 7.34977H51.1176V11.8933H49.798ZM51.1176 6.16379H54.709C55.5999 6.16379 56.3237 5.94663 56.8805 5.51233C57.4373 5.07802 57.7157 4.49338 57.7157 3.75841V3.725C57.7157 3.00116 57.454 2.43879 56.9306 2.03789C56.4072 1.62586 55.6722 1.41984 54.7257 1.41984H51.1176V6.16379Z" fill="white"/>
  <path d="M63.0385 11.8933V0.200448H71.4908V1.40314H64.3582V5.3954H70.7391V6.59809H64.3582V10.6906H71.5743V11.8933H63.0385Z" fill="white"/>
  <path d="M79.4072 12.0603C77.6031 12.0603 76.0107 11.4367 74.6298 10.1895L75.4483 9.22062C76.0719 9.78856 76.6956 10.2062 77.3192 10.4734C77.9539 10.7407 78.6666 10.8743 79.4573 10.8743C80.2368 10.8743 80.866 10.6906 81.3449 10.3231C81.8237 9.94446 82.0631 9.46562 82.0631 8.88654V8.85313C82.0631 8.2852 81.8515 7.83976 81.4284 7.51681C81.0052 7.18273 80.2034 6.88763 79.023 6.6315C77.6421 6.33083 76.6399 5.92993 76.0163 5.42881C75.4038 4.91655 75.0975 4.19271 75.0975 3.25729V3.22388C75.0975 2.31072 75.4595 1.55347 76.1833 0.952129C76.9183 0.339648 77.837 0.0334077 78.9395 0.0334077C79.7747 0.0334077 80.5097 0.150336 81.1444 0.384193C81.7903 0.618049 82.425 0.979969 83.0487 1.46995L82.2803 2.4889C81.2446 1.64256 80.1199 1.21939 78.9061 1.21939C78.1488 1.21939 77.5419 1.39757 77.0853 1.75392C76.6399 2.11027 76.4172 2.56128 76.4172 3.10695V3.14036C76.4172 3.71943 76.6343 4.18157 77.0686 4.52679C77.5141 4.86087 78.3548 5.15598 79.5909 5.41211C80.9161 5.71278 81.8794 6.11924 82.4807 6.6315C83.0932 7.14376 83.3994 7.83976 83.3994 8.7195V8.75291C83.3994 9.74402 83.0264 10.5458 82.2803 11.1583C81.5342 11.7596 80.5765 12.0603 79.4072 12.0603Z" fill="white"/>
  <path d="M90.1129 11.8933V1.41984H86.1707V0.200448H95.3747V1.41984H91.4325V11.8933H90.1129Z" fill="white"/>
  <path d="M99.06 11.8933V0.200448H100.38V11.8933H99.06Z" fill="white"/>
  <path d="M110.402 12.0937C108.609 12.0937 107.167 11.5202 106.076 10.3732C104.996 9.22619 104.456 7.79521 104.456 6.08027V6.04686C104.456 4.39873 105.007 2.97888 106.109 1.78733C107.212 0.595777 108.615 0 110.319 0C111.254 0 112.056 0.128064 112.724 0.384193C113.403 0.640321 114.055 1.03008 114.679 1.55347L113.827 2.55572C112.824 1.66483 111.638 1.21939 110.269 1.21939C108.999 1.21939 107.941 1.68711 107.095 2.62253C106.249 3.55796 105.825 4.68826 105.825 6.01345V6.04686C105.825 7.46113 106.243 8.62485 107.078 9.538C107.925 10.4512 109.049 10.9077 110.452 10.9077C111.744 10.9077 112.869 10.518 113.827 9.73845V6.83195H110.269V5.64596H115.096V10.3064C113.782 11.4979 112.217 12.0937 110.402 12.0937Z" fill="white"/>
  <path d="M119.359 11.8933V0.200448H120.678V11.8933H119.359Z" fill="white"/>
  <path d="M134.994 10.3231C133.869 11.5035 132.438 12.0937 130.701 12.0937C128.964 12.0937 127.538 11.5091 126.425 10.3398C125.311 9.15937 124.754 7.73953 124.754 6.08027V6.04686C124.754 4.38759 125.317 2.96775 126.441 1.78733C127.566 0.595777 128.997 0 130.734 0C132.472 0 133.897 0.590209 135.011 1.77063C136.124 2.93991 136.681 4.35418 136.681 6.01345V6.04686C136.681 7.70612 136.119 9.13153 134.994 10.3231ZM127.427 9.47118C128.307 10.4066 129.409 10.8743 130.734 10.8743C132.06 10.8743 133.151 10.4122 134.008 9.48789C134.877 8.5636 135.311 7.42772 135.311 6.08027V6.04686C135.311 4.6994 134.871 3.55796 133.992 2.62253C133.123 1.68711 132.026 1.21939 130.701 1.21939C129.376 1.21939 128.279 1.68154 127.41 2.60583C126.553 3.53012 126.124 4.66599 126.124 6.01345V6.04686C126.124 7.39432 126.558 8.53576 127.427 9.47118Z" fill="white"/>
  <path d="M37.4709 29.9375V18.2447H41.8474C43.1726 18.2447 44.2305 18.5787 45.0212 19.2469C45.823 19.9039 46.2239 20.8059 46.2239 21.9529V21.9864C46.2239 23.2002 45.784 24.1412 44.9042 24.8093C44.0356 25.4775 42.9443 25.8116 41.6303 25.8116H38.7906V29.9375H37.4709ZM38.7906 24.6089H41.6804C42.6492 24.6089 43.4231 24.375 44.0022 23.9073C44.5924 23.4285 44.8875 22.8049 44.8875 22.0365V22.0031C44.8875 21.1901 44.6036 20.5665 44.0356 20.1322C43.4788 19.6868 42.716 19.464 41.7472 19.464H38.7906V24.6089Z" fill="#EAC642"/>
  <path d="M49.798 29.9375V18.2447H51.1176V28.7181H57.699V29.9375H49.798Z" fill="#EAC642"/>
  <path d="M60.2419 29.9375L65.5705 18.1611H66.8066L72.1352 29.9375H70.7154L69.3456 26.8472H62.9814L61.595 29.9375H60.2419ZM63.4992 25.6612H68.8278L66.1719 19.6979L63.4992 25.6612Z" fill="#EAC642"/>
  <path d="M75.0758 29.9375V29.0522L82.6427 19.4306H75.3263V18.2447H84.4467V19.13L76.8631 28.7515H84.4467V29.9375H75.0758Z" fill="#EAC642"/>
  <path d="M87.3592 29.9375L92.6878 18.1611H93.9239L99.2525 29.9375H97.8326L96.4629 26.8472H90.0987L88.7122 29.9375H87.3592ZM90.6165 25.6612H95.9451L93.2891 19.6979L90.6165 25.6612Z" fill="#EAC642"/>
  <path d="M9.60327 11.7529H16.6457V13.6736H9.60327V11.7529Z" fill="url(#paint0_linear_17995_537943)"/>
  <path d="M9.60327 15.5947H16.6457V17.5154H9.60327V15.5947Z" fill="url(#paint1_linear_17995_537943)"/>
  <path fill-rule="evenodd" clip-rule="evenodd" d="M1.92065 2.15014H16.3255C20.0382 2.15014 23.0478 5.15984 23.0478 8.87243C23.0478 12.4777 20.2097 15.4201 16.6457 15.5872V17.5096C21.2707 17.3412 24.9685 13.5386 24.9685 8.87243C24.9685 4.09909 21.0989 0.229492 16.3255 0.229492H1.92065H0V17.5154V29.9996H0.00187541L0.000234226 29.998L1.92065 28.0775V17.5154V15.5947V2.15014ZM5.76196 24.2362L3.8413 26.1569V17.5154V15.5947V13.6741V7.9121V4.0708H16.3255C18.9774 4.0708 21.1272 6.22059 21.1272 8.87243C21.1272 11.4167 19.1482 13.4988 16.6457 13.6636V11.7358C18.0861 11.5765 19.2065 10.3554 19.2065 8.87243C19.2065 7.28134 17.9167 5.99145 16.3255 5.99145H5.76196V6.95178V7.9121V11.7534V13.6741V15.5947V17.5154V24.2362ZM9.60326 20.3949L7.68261 22.3156V20.7164V17.5154V15.5947V13.6741V11.7534V9.83275V7.9121H9.60326H16.3255C16.8559 7.9121 17.2859 8.34209 17.2859 8.87243C17.2859 9.40276 16.8559 9.83275 16.3255 9.83275H10.8837H9.60326V11.4333V11.7534V13.6741V15.5947V17.5154V19.1159V20.3949Z" fill="#EAC642"/>
  <defs>
    <linearGradient id="paint0_linear_17995_537943" x1="16.6457" y1="11.7529" x2="9.60327" y2="11.7529" gradientUnits="userSpaceOnUse">
      <stop stop-color="#EAC642"/>
      <stop offset="1" stop-color="#EAC642" stop-opacity="0"/>
    </linearGradient>
    <linearGradient id="paint1_linear_17995_537943" x1="16.6457" y1="15.5947" x2="9.60327" y2="15.5947" gradientUnits="userSpaceOnUse">
      <stop stop-color="#EAC642"/>
      <stop offset="1" stop-color="#EAC642" stop-opacity="0"/>
    </linearGradient>
  </defs>
</svg>
