<svg width="78" height="36" viewBox="0 0 78 36" fill="none" xmlns="http://www.w3.org/2000/svg">
  <path fill-rule="evenodd" clip-rule="evenodd" d="M67.4983 0.551707C68.6886 0.553638 69.4562 0.556397 70.0359 0.561638C70.6079 0.566603 70.9998 0.573776 71.315 0.583982C71.916 0.603292 72.346 0.638325 72.7192 0.691289C73.3457 0.78039 73.8532 0.930454 74.3178 1.15555C74.7804 1.37927 75.1996 1.67912 75.5589 2.04132C75.9181 2.40351 76.2144 2.82557 76.4357 3.29093C76.658 3.75878 76.807 4.26966 76.8954 4.90192C76.948 5.27818 76.9833 5.71293 77.0031 6.31981C77.0132 6.63814 77.0206 7.03344 77.0255 7.6108C77.0307 8.19561 77.0337 8.96966 77.0356 10.1691V25.8318C77.0337 27.0312 77.0307 27.8052 77.0255 28.39C77.0203 28.9671 77.0132 29.3627 77.0031 29.681C76.9833 30.2882 76.9483 30.7226 76.8954 31.0989C76.807 31.7309 76.658 32.242 76.4357 32.7099C76.2144 33.1753 75.9179 33.5976 75.5589 33.9595C75.1996 34.3217 74.7804 34.6213 74.3178 34.8453C73.8532 35.0701 73.3457 35.2204 72.7192 35.3095C72.3462 35.3625 71.9163 35.3975 71.315 35.4168C70.9998 35.4271 70.6079 35.4342 70.0359 35.4392C69.4562 35.4442 68.6886 35.4472 67.4983 35.4491H10.9666C9.77627 35.4472 9.00871 35.4444 8.429 35.4392C7.85697 35.4342 7.46511 35.4271 7.14993 35.4168C6.54886 35.3975 6.11894 35.3625 5.7457 35.3095C5.11917 35.2204 4.61176 35.0704 4.14706 34.8453C3.68456 34.6216 3.26532 34.3217 2.90604 33.9595C2.54677 33.5973 2.25049 33.1753 2.02923 32.7099C1.80687 32.242 1.65791 31.7312 1.56946 31.0989C1.51688 30.7226 1.48156 30.2879 1.46212 29.681C1.45199 29.3627 1.44459 28.9674 1.43966 28.39C1.43446 27.8052 1.43145 27.0312 1.42953 25.8318V10.1688C1.43145 8.96938 1.43446 8.19533 1.43966 7.61053C1.44487 7.03344 1.45199 6.63787 1.46212 6.31953C1.48183 5.71238 1.51688 5.27791 1.56946 4.90164C1.65791 4.26966 1.80687 3.75851 2.02923 3.29066C2.25049 2.82529 2.54705 2.40296 2.90604 2.04104C3.26504 1.67912 3.68456 1.37927 4.14706 1.15527C4.61176 0.930454 5.11917 0.780114 5.7457 0.691013C6.11867 0.638049 6.54859 0.603016 7.14993 0.583706C7.46511 0.5735 7.85697 0.566327 8.429 0.561362C9.00871 0.556397 9.77627 0.553362 10.9666 0.551431L67.4983 0.551707ZM67.4991 0H67.498H10.9666C9.77353 0.00193098 9.00488 0.00496536 8.42408 0.00993073C7.85861 0.0148961 7.46018 0.0217924 7.13213 0.0325507C6.53188 0.0518605 6.0806 0.086618 5.6693 0.144823C4.99403 0.24082 4.43486 0.40385 3.90965 0.657911C3.39128 0.908938 2.92302 1.243 2.51857 1.65098C2.11439 2.05842 1.7836 2.52985 1.53523 3.05232C1.28385 3.58113 1.12229 4.14415 1.027 4.8244C0.968671 5.24177 0.933894 5.6972 0.914452 6.3016C0.903772 6.63704 0.896653 7.03896 0.891723 7.60556C0.886794 8.18127 0.883508 8.94759 0.881592 10.1677V25.8312C0.883508 27.0521 0.886794 27.8185 0.891723 28.3944C0.896653 28.9608 0.903772 29.363 0.914452 29.6981C0.933894 30.3025 0.968671 30.758 1.027 31.1753C1.12229 31.8556 1.28358 32.4189 1.53523 32.9477C1.7836 33.4701 2.11439 33.9416 2.51857 34.349C2.92302 34.757 3.39128 35.0911 3.90965 35.3421C4.43459 35.5964 4.99376 35.7595 5.66903 35.8552C6.0806 35.9137 6.53188 35.9481 7.13213 35.9674C7.45991 35.9782 7.85833 35.9851 8.4238 35.9901C9.00433 35.995 9.77326 35.9981 10.9655 36H67.498C68.6911 35.9981 69.4598 35.9953 70.0406 35.9901C70.606 35.9851 71.0045 35.9782 71.3325 35.9674C71.9327 35.9481 72.384 35.9134 72.7953 35.8552C73.4706 35.7592 74.0298 35.5961 74.555 35.3421C75.0734 35.0911 75.5416 34.757 75.9461 34.349C76.3502 33.9416 76.681 33.4701 76.9294 32.9477C77.1808 32.4189 77.3423 31.8559 77.4376 31.1756C77.496 30.7585 77.5307 30.3031 77.5502 29.6984C77.5609 29.363 77.568 28.9608 77.5729 28.3944C77.5781 27.8182 77.5811 27.0519 77.583 25.8323V10.1688C77.5811 8.94814 77.5778 8.18182 77.5729 7.60556C77.568 7.03923 77.5609 6.63704 77.5502 6.30188C77.5307 5.6972 77.496 5.24177 77.4376 4.82468C77.3423 4.14442 77.1811 3.58113 76.9294 3.05232C76.681 2.52985 76.3502 2.05842 75.9461 1.65098C75.5416 1.243 75.0734 0.908938 74.555 0.657911C74.03 0.40385 73.4709 0.240544 72.7956 0.144823C72.384 0.0863422 71.9327 0.0518605 71.3325 0.0325507C71.0045 0.0220683 70.606 0.0148961 70.0408 0.00993073C69.46 0.00496536 68.6914 0.00193098 67.4991 0ZM22.6371 11.7168C21.6498 11.6432 20.7543 12.0003 20.0335 12.2877C19.5783 12.4692 19.1927 12.623 18.8976 12.623C18.5625 12.623 18.1489 12.4578 17.6848 12.2725C17.0775 12.03 16.3838 11.753 15.6672 11.7667C14.0066 11.7913 12.4764 12.7399 11.6204 14.2375C9.89585 17.2529 11.1801 21.7215 12.8601 24.1683C13.6819 25.3638 14.6619 26.7114 15.9489 26.6623C16.5242 26.6395 16.9335 26.4638 17.3567 26.2821C17.8451 26.0725 18.3521 25.8548 19.1544 25.8548C19.9199 25.8548 20.4044 26.066 20.8703 26.2691C21.3154 26.4632 21.7436 26.6499 22.3838 26.638C23.7173 26.6132 24.5624 25.4176 25.3781 24.2152C26.2793 22.8902 26.6736 21.6054 26.7274 21.4299L26.7328 21.4125C26.7032 21.4012 24.1333 20.4078 24.1075 17.425C24.0847 14.9773 26.0531 13.7774 26.2141 13.6792L26.2213 13.6748C25.0605 11.9537 23.2685 11.764 22.6371 11.7168ZM22.6586 6.95508C22.7854 8.1087 22.3251 9.26866 21.6411 10.1015C20.9576 10.9348 19.8376 11.582 18.7401 11.4962C18.5892 10.3663 19.1448 9.18536 19.7771 8.448C20.4833 7.61575 21.6742 6.99453 22.6586 6.95508Z" fill="black"/>
  <path d="M32.5779 10.1289H34.9584C36.2131 10.1289 37.082 10.9774 37.082 12.2411V12.2502C37.082 13.5095 36.2131 14.3715 34.9584 14.3715H33.5709V16.5731H32.5779V10.1289ZM33.5709 10.9727V13.5318H34.7103C35.5748 13.5318 36.0712 13.0629 36.0712 12.2546V12.2458C36.0712 11.4417 35.5751 10.973 34.7103 10.973L33.5709 10.9727Z" fill="black"/>
  <path d="M37.9988 11.8765H38.9564V12.6803H38.9785C39.1291 12.1311 39.5194 11.7871 40.0514 11.7871C40.1886 11.7871 40.3083 11.8095 40.3839 11.823V12.7206C40.3086 12.6894 40.1399 12.6671 39.9539 12.6671C39.3375 12.6671 38.9564 13.0737 38.9564 13.7746V16.5748H37.9988V11.8765Z" fill="black"/>
  <path d="M40.8596 14.2433V14.2389C40.8596 12.7697 41.7019 11.7871 43.0097 11.7871C44.3176 11.7871 45.1199 12.7341 45.1199 14.1451V14.4712H41.8172C41.8347 15.36 42.318 15.878 43.0804 15.878C43.6478 15.878 44.0246 15.5831 44.1445 15.2303L44.1579 15.1947H45.0665L45.0577 15.2438C44.9071 15.9897 44.1889 16.6686 43.0582 16.6686C41.6885 16.6683 40.8596 15.726 40.8596 14.2433ZM41.8301 13.7879H44.1711C44.0911 12.9752 43.639 12.5777 43.0138 12.5777C42.3933 12.5774 41.9144 13.0017 41.8301 13.7879Z" fill="black"/>
  <path d="M46.0859 11.8765H47.0435V12.6045H47.0657C47.2653 12.1132 47.7393 11.7871 48.3511 11.7871C48.994 11.7871 49.4637 12.122 49.6501 12.7118H49.6723C49.9117 12.1402 50.4612 11.7871 51.1264 11.7871C52.0484 11.7871 52.6514 12.4034 52.6514 13.3457V16.5745H51.6894V13.5779C51.6894 12.9661 51.3654 12.6133 50.7981 12.6133C50.2307 12.6133 49.8361 13.042 49.8361 13.6362V16.5748H48.896V13.5065C48.896 12.9617 48.5548 12.6133 48.0137 12.6133C47.4463 12.6133 47.043 13.0643 47.043 13.6717V16.5745H46.0854L46.0859 11.8765Z" fill="black"/>
  <path d="M53.7595 10.5993C53.7595 10.2912 54.0076 10.041 54.3178 10.041C54.6327 10.041 54.8765 10.2912 54.8765 10.5993C54.8765 10.9031 54.6327 11.153 54.3178 11.153C54.0076 11.153 53.7595 10.9031 53.7595 10.5993ZM53.8392 11.8765H54.7968V16.5746H53.8392V11.8765Z" fill="black"/>
  <path d="M55.9907 14.9207V11.875H56.9483V14.7331C56.9483 15.4432 57.2764 15.8363 57.9413 15.8363C58.6152 15.8363 59.0497 15.3494 59.0497 14.6173V11.8753H60.0117V16.5733H59.0497V15.8677H59.0276C58.7836 16.3411 58.3093 16.6671 57.6001 16.6671C56.5759 16.6669 55.9907 16.0015 55.9907 14.9207Z" fill="black"/>
  <path d="M61.1365 11.8765H62.0941V12.6045H62.1163C62.3159 12.1132 62.7899 11.7871 63.4017 11.7871C64.0446 11.7871 64.5143 12.122 64.7007 12.7118H64.7229C64.9623 12.1402 65.5118 11.7871 66.177 11.7871C67.099 11.7871 67.702 12.4034 67.702 13.3457V16.5745H66.74V13.5779C66.74 12.9661 66.416 12.6133 65.8487 12.6133C65.2813 12.6133 64.8867 13.042 64.8867 13.6362V16.5748H63.9466V13.5065C63.9466 12.9617 63.6054 12.6133 63.0643 12.6133C62.4969 12.6133 62.0936 13.0643 62.0936 13.6717V16.5745H61.136L61.1365 11.8765Z" fill="black"/>
  <path d="M32.5779 19.6562H34.9584C36.2131 19.6562 37.082 20.5045 37.082 21.7685V21.7773C37.082 23.0366 36.2131 23.8986 34.9584 23.8986H33.5709V26.1003H32.5779V19.6562ZM33.5709 20.5005V23.0592H34.7103C35.5748 23.0592 36.0712 22.5902 36.0712 21.782V21.7732C36.0712 20.969 35.5751 20.5005 34.7103 20.5005H33.5709Z" fill="black"/>
  <path d="M37.5852 24.7629V24.754C37.5852 23.9367 38.2147 23.4365 39.3186 23.3695L40.5864 23.2937V22.9408C40.5864 22.4228 40.254 22.11 39.6598 22.11C39.1058 22.11 38.764 22.3737 38.6844 22.7486L38.6756 22.7888H37.7711L37.7755 22.7397C37.842 21.9312 38.5381 21.3105 39.6866 21.3105C40.8257 21.3105 41.5484 21.918 41.5484 22.8603V26.0983H40.5864V25.3568H40.5689C40.2983 25.8613 39.7575 26.1829 39.1411 26.1829C38.2103 26.1832 37.5852 25.607 37.5852 24.7629ZM39.4029 25.4106C40.0765 25.4106 40.5864 24.9504 40.5864 24.3386V23.9725L39.447 24.044C38.8708 24.0796 38.5515 24.3342 38.5515 24.7317V24.7405C38.5518 25.1515 38.8886 25.4106 39.4029 25.4106Z" fill="black"/>
  <path d="M42.6565 21.4038H43.6141V22.2077H43.6362C43.7869 21.6584 44.1771 21.3145 44.7091 21.3145C44.8463 21.3145 44.966 21.3368 45.0416 21.3503V22.2479C44.9663 22.2168 44.7976 22.1944 44.6116 22.1944C43.9952 22.1944 43.6141 22.6008 43.6141 23.302V26.1019H42.6565V21.4038Z" fill="black"/>
  <path d="M46.4484 24.8628V22.1697H45.7791V21.4017H46.4484V20.1777H47.4281V21.4017H48.3014V22.1697H47.4281V24.8046C47.4281 25.2824 47.6409 25.4253 48.0443 25.4253C48.1464 25.4253 48.2308 25.4165 48.3014 25.4076V26.1536C48.1905 26.1712 48.009 26.1938 47.8137 26.1938C46.8917 26.1936 46.4484 25.8005 46.4484 24.8628Z" fill="black"/>
  <path d="M49.3186 21.4038H50.2762V22.1136H50.2984C50.5421 21.6361 51.021 21.3145 51.7259 21.3145C52.7497 21.3145 53.3396 21.9798 53.3396 23.0606V26.1019H52.3776V23.2438C52.3776 22.5379 52.0495 22.1406 51.3844 22.1406C50.7105 22.1406 50.2762 22.6319 50.2762 23.3643V26.1022H49.3186V21.4038Z" fill="black"/>
  <path d="M54.2781 23.767V23.7623C54.2781 22.2931 55.1205 21.3105 56.4283 21.3105C57.7361 21.3105 58.5385 22.2576 58.5385 23.6685V23.9946H55.2357C55.2533 24.8834 55.7366 25.4017 56.4989 25.4017C57.0663 25.4017 57.4431 25.1068 57.5631 24.754L57.5765 24.7182H58.4851L58.4763 24.7673C58.3257 25.5132 57.6074 26.1921 56.4768 26.1921C55.1073 26.1921 54.2781 25.2497 54.2781 23.767ZM55.2489 23.3116H57.5899C57.5099 22.4989 57.0578 22.1011 56.4327 22.1011C55.8122 22.1011 55.3332 22.5254 55.2489 23.3116Z" fill="black"/>
  <path d="M59.552 21.4038H60.5096V22.2077H60.5317C60.6824 21.6584 61.0726 21.3145 61.6046 21.3145C61.7418 21.3145 61.8615 21.3368 61.9371 21.3503V22.2479C61.8618 22.2168 61.6931 22.1944 61.5071 22.1944C60.8907 22.1944 60.5096 22.6008 60.5096 23.302V26.1019H59.552V21.4038Z" fill="black"/>
</svg>
