<svg width="13" height="13" viewBox="0 0 13 13" fill="none" xmlns="http://www.w3.org/2000/svg">
  <path d="M4.87597 12.491C4.66623 12.491 4.48271 12.3909 4.3254 12.1907L0.657306 7.67174C0.604871 7.605 0.564353 7.54065 0.535751 7.47868C0.511917 7.41194 0.5 7.34521 0.5 7.27847C0.5 7.13546 0.547669 7.01629 0.643006 6.92096C0.74311 6.82085 0.867048 6.7708 1.01482 6.7708C1.19119 6.7708 1.34612 6.85899 1.47959 7.03536L4.85452 11.2469L11.5114 0.764561C11.5734 0.669223 11.6378 0.602487 11.7045 0.564353C11.7712 0.521451 11.8594 0.5 11.9691 0.5C12.1121 0.5 12.2289 0.545285 12.3194 0.635855C12.41 0.726426 12.4553 0.845597 12.4553 0.99337C12.4553 1.05057 12.4457 1.11016 12.4267 1.17213C12.4076 1.2341 12.3742 1.30322 12.3266 1.37949L5.4051 12.1979C5.27162 12.3933 5.09525 12.491 4.87597 12.491Z" fill="white"/>
</svg>
